<svg xmlns="http://www.w3.org/2000/svg" xmlns:xlink="http://www.w3.org/1999/xlink" viewBox="0,0,256,256" width="80px" height="80px"><g fill="none" fill-rule="nonzero" stroke="none" stroke-width="1" stroke-linecap="butt" stroke-linejoin="miter" stroke-miterlimit="10" stroke-dasharray="" stroke-dashoffset="0" font-family="none" font-weight="none" font-size="none" text-anchor="none" style="mix-blend-mode: normal"><g transform="scale(6.4,6.4)"><path d="M2.5,2.5h35v35h-35z" fill="#006ebc"></path><path d="M37,3v34h-34v-34h34M38,2h-36v36h36v-36z" fill="#4788c7"></path><path d="M8,16h5v11.061v4.939h-5zM10.5,14v0c-1.5,0 -2.5,-1.133 -2.5,-2.533c0,-1.4 1,-2.467 2.5,-2.467c1.5,0 2.438,1.067 2.5,2.467c0,1.4 -0.938,2.533 -2.5,2.533z" fill="#ffffff"></path><g fill="#ffffff"><path d="M25.948,16c-3.27,0 -4.948,2.156 -4.948,2.156v-2.156h-5v16h5v-9c0,-1.657 1.343,-3 3,-3c1.657,0 3,1.343 3,3v9h5v-9.044c0,-4.66 -2.713,-6.956 -6.052,-6.956z"></path></g></g></g></svg>