<?xml version="1.0" encoding="UTF-8"?>
<svg version="1.1" xmlns="http://www.w3.org/2000/svg" width="512" height="512">
<path d="M0 0 C1.48247795 -0.00570986 2.96495151 -0.0126765 4.44741821 -0.02079773 C8.45581643 -0.03867764 12.46399511 -0.03757039 16.47242117 -0.03185534 C19.82708902 -0.02875556 23.18171517 -0.0348648 26.53637707 -0.04089409 C34.45527653 -0.05492114 42.37406807 -0.05339361 50.29296875 -0.04199219 C58.44325912 -0.03051641 66.59322022 -0.0445816 74.74346721 -0.07138866 C81.75861221 -0.09359234 88.77365421 -0.10017245 95.78883183 -0.09431225 C99.97090297 -0.09095216 104.15276317 -0.09329412 108.33480453 -0.11056328 C112.26990899 -0.12610475 116.20452832 -0.1219979 120.13961411 -0.10325813 C121.57704581 -0.09959186 123.01451404 -0.10262303 124.45191193 -0.11314392 C133.95933752 -0.17737585 142.37179312 0.35494432 149.95361328 6.58764648 C150.56205078 7.33143555 151.17048828 8.07522461 151.79736328 8.84155273 C152.42642578 9.58276367 153.05548828 10.32397461 153.70361328 11.08764648 C158.38052808 17.88522119 158.4463671 25.34126266 158.39501953 33.30249023 C158.39289711 34.55493027 158.39289711 34.55493027 158.39073181 35.83267212 C158.38516502 38.48150316 158.37261875 41.13024754 158.35986328 43.77905273 C158.35484399 45.58243692 158.35028183 47.38582245 158.34619141 49.18920898 C158.33520648 53.59418994 158.31796491 57.99910668 158.29736328 62.40405273 C159.03212639 62.40036556 159.7668895 62.39667839 160.52391815 62.39287949 C178.41879321 62.30446535 196.31362455 62.23831245 214.20867157 62.19680405 C222.86266433 62.17619631 231.51651111 62.14811001 240.17041016 62.10229492 C247.71491105 62.06237226 255.25930619 62.03660692 262.80390978 62.02769876 C266.79717636 62.02249316 270.79014048 62.01029575 274.78330994 61.98113251 C278.54588336 61.95387735 282.3080312 61.94562793 286.07069397 61.95162201 C288.10170942 61.95000584 290.13267907 61.92853609 292.16357422 61.90637207 C299.82320767 61.94082036 306.00457201 62.29110062 311.80809784 67.85149765 C315.67761185 72.25506419 317.54558018 75.73745098 317.55463219 81.5747261 C317.56108108 82.62625878 317.56752997 83.67779145 317.57417428 84.76118875 C317.57107708 85.91525586 317.56797988 87.06932297 317.56478882 88.25836182 C317.56931993 89.48528425 317.57385104 90.71220668 317.57851946 91.97630858 C317.58900358 95.38376983 317.59048695 98.7910203 317.58813071 102.19848275 C317.58772298 105.87278018 317.59875757 109.54704599 317.60824585 113.22132874 C317.62486712 120.42112072 317.63035593 127.62087996 317.63147061 134.82068953 C317.63242066 140.67341029 317.63652885 146.52612024 317.64287186 152.37883759 C317.66048831 168.97128123 317.66971024 185.56369898 317.66821091 202.15615204 C317.66809104 203.49823544 317.66809104 203.49823544 317.66796875 204.86743164 C317.66788699 205.7632462 317.66780523 206.65906075 317.66772099 207.58202121 C317.66690825 222.09699215 317.68604177 236.61185929 317.71424548 251.12680021 C317.7429743 266.02957642 317.75678574 280.93230201 317.75505793 295.83510661 C317.75439397 304.2022825 317.75988884 312.5693496 317.78141403 320.93650055 C317.79962594 328.06144922 317.80397324 335.1862398 317.79039519 342.31120166 C317.78386516 345.94565946 317.78374913 349.57981399 317.80110168 353.21424294 C317.819732 357.15690539 317.80727841 361.09912507 317.7918396 365.04180908 C317.80212673 366.18695331 317.81241385 367.33209754 317.82301271 368.5119431 C317.75552903 376.30368041 316.70662387 381.99479214 310.98486328 387.71655273 C304.92586281 391.5210414 300.10417445 392.84864952 292.96762371 392.78716278 C292.1521234 392.7921223 291.33662308 392.79708181 290.49641064 392.80219162 C287.76418696 392.81514344 285.03245233 392.80676436 282.30021667 392.79846191 C280.32139451 392.80335101 278.34257521 392.8095409 276.36376077 392.8169198 C270.92608408 392.83334009 265.48855217 392.83099711 260.05085933 392.82554483 C254.18636914 392.82287722 248.32191778 392.83740142 242.45744324 392.84963989 C230.96807207 392.87070754 219.47875135 392.87523397 207.98936316 392.87345201 C198.65131807 392.87214503 189.31328744 392.87589743 179.97524452 392.88337708 C178.63348923 392.88442741 177.29173395 392.88547503 175.94997865 392.88651994 C175.28393182 392.88703928 174.61788499 392.88755863 173.93165492 392.88809371 C172.93075194 392.88887392 172.93075194 392.88887392 171.90962869 392.8896699 C171.24123941 392.89019389 170.57285013 392.89071788 169.88420663 392.89125775 C151.08543097 392.90584084 132.28666094 392.91412365 113.48787975 392.90950775 C112.77922112 392.9093358 112.0705625 392.90916384 111.34042936 392.90898668 C107.74870111 392.90809779 104.15697287 392.90715298 100.56524464 392.90618867 C99.85192195 392.90599763 99.13859926 392.9058066 98.40366074 392.90560978 C96.96114878 392.90522269 95.51863683 392.90483236 94.07612489 392.9044388 C71.63249491 392.89846927 49.18896805 392.91390502 26.74536133 392.94604492 C1.52668636 392.98212822 -23.69192323 393.00145367 -48.91062564 392.99650621 C-51.60010731 392.99603624 -54.28958898 392.99562599 -56.97907066 392.99525452 C-57.64128316 392.99515213 -58.30349566 392.99504974 -58.9857752 392.99494426 C-68.97897226 392.99374982 -78.9720752 393.00577762 -88.96525002 393.0243988 C-100.33212231 393.04539917 -111.69883634 393.04901637 -123.06571511 393.03009921 C-128.86544677 393.02093364 -134.66488322 393.01982389 -140.46459198 393.04045486 C-145.77511896 393.0591368 -151.08510837 393.05469211 -156.39561471 393.03190905 C-158.31549071 393.02771631 -160.2354077 393.03194585 -162.15524039 393.04550499 C-181.39975909 393.17215293 -181.39975909 393.17215293 -188.70263672 387.40405273 C-192.97376106 382.84811794 -194.8237431 378.56013953 -194.83965111 372.35642719 C-194.84472565 371.30688557 -194.84980019 370.25734395 -194.85502851 369.17599803 C-194.85552627 368.01901808 -194.85602402 366.86203812 -194.85653687 365.66999817 C-194.86091912 364.44393016 -194.86530137 363.21786215 -194.86981642 361.95464057 C-194.88088721 358.54497831 -194.88743077 355.13536196 -194.89199758 351.72568834 C-194.89795297 348.05069766 -194.90956295 344.3757239 -194.92028809 340.70074463 C-194.94481321 331.82239127 -194.95943924 322.94403231 -194.97234815 314.0656555 C-194.97605995 311.55822186 -194.98003319 309.05078879 -194.98410082 306.5433557 C-195.00933678 290.97410143 -195.03139091 275.40484627 -195.04382896 259.83557606 C-195.04675868 256.22908843 -195.04972034 252.62260084 -195.05273438 249.01611328 C-195.05348043 248.11973322 -195.05422648 247.22335316 -195.05499513 246.29981007 C-195.06764935 231.77829375 -195.10087326 217.25689986 -195.14253621 202.73544077 C-195.18495561 187.82818275 -195.20852399 172.92098741 -195.21374953 158.01366919 C-195.2171636 149.64308595 -195.22891827 141.27269403 -195.26185226 132.90217018 C-195.28985402 125.77352585 -195.30085161 118.64511207 -195.2896568 111.516417 C-195.28447042 107.87986728 -195.28735469 104.24380036 -195.31212234 100.60732079 C-195.33876648 96.66235973 -195.32655354 92.71805654 -195.31063843 88.77302551 C-195.32452052 87.62719917 -195.3384026 86.48137282 -195.35270536 85.30082446 C-195.28382381 78.37757532 -194.24640273 73.74360285 -189.70263672 68.40405273 C-184.7921842 63.73912284 -180.35693462 62.15182205 -173.63456726 62.1635437 C-172.41605576 62.16079437 -171.19754425 62.15804504 -169.94210815 62.1552124 C-168.6001577 62.16228967 -167.25820825 62.16955928 -165.91625977 62.17700195 C-164.49682117 62.17756637 -163.07738198 62.17724891 -161.65794373 62.17611694 C-157.81120373 62.17554362 -153.9645887 62.18729457 -150.11787772 62.20126486 C-146.09534067 62.21377565 -142.07280069 62.21494299 -138.05024719 62.21731567 C-130.43595314 62.22352941 -122.82171658 62.2399388 -115.20744783 62.26001465 C-106.53761375 62.28237694 -97.8677769 62.29336792 -89.19792116 62.30340552 C-71.36612709 62.32430512 -53.53438653 62.35947905 -35.70263672 62.40405273 C-35.71311035 61.30005127 -35.72358398 60.1960498 -35.734375 59.05859375 C-35.77082564 54.92679135 -35.79362763 50.79500291 -35.8125 46.66308594 C-35.82250083 44.88148603 -35.83610588 43.09990229 -35.85351562 41.31835938 C-35.87802629 38.74401841 -35.8891792 36.16989616 -35.89794922 33.59545898 C-35.90827179 32.81070694 -35.91859436 32.0259549 -35.92922974 31.21742249 C-35.93113177 21.64685014 -34.21771919 14.55277165 -27.70263672 7.40405273 C-19.73908905 -0.34992789 -10.45740259 -0.03644277 0 0 Z M-12.70263672 24.40405273 C-12.70263672 36.94405273 -12.70263672 49.48405273 -12.70263672 62.40405273 C36.13736328 62.40405273 84.97736328 62.40405273 135.29736328 62.40405273 C135.29736328 49.86405273 135.29736328 37.32405273 135.29736328 24.40405273 C133.53541308 22.64210253 131.03052226 23.27790755 128.64111328 23.27706909 C127.41271729 23.27424927 126.18432129 23.27142944 124.91870117 23.26852417 C123.54492173 23.27046876 122.17114243 23.27251695 120.79736328 23.2746582 C119.36043249 23.2733042 117.92350205 23.27152428 116.48657227 23.26934814 C112.5734574 23.26477368 108.66036877 23.26656342 104.74725342 23.26972723 C100.66109138 23.27225076 96.57493166 23.26991331 92.48876953 23.26834106 C85.62548416 23.26651935 78.76220953 23.26892573 71.89892578 23.27368164 C63.95264322 23.27912427 56.00638631 23.27736161 48.06010437 23.27185524 C41.24993164 23.26732416 34.43976665 23.26667353 27.6295929 23.2692939 C23.55676859 23.27085671 19.48395636 23.27105035 15.41113281 23.26775742 C11.58300571 23.26487878 7.75491183 23.26685424 3.92678833 23.27265167 C2.517833 23.27397931 1.1088749 23.27358509 -0.30007935 23.27138901 C-2.21551415 23.2686777 -4.13095504 23.27267215 -6.04638672 23.27706909 C-7.12082031 23.27744612 -8.19525391 23.27782314 -9.30224609 23.27821159 C-11.65473851 23.13311532 -11.65473851 23.13311532 -12.70263672 24.40405273 Z " fill="#DFE4E7" transform="translate(194.70263671875,59.595947265625)"/>
<path d="M0 0 C2.90234375 1.0390625 2.90234375 1.0390625 5.9375 2.625 C6.51975342 2.92784912 7.10200684 3.23069824 7.7019043 3.54272461 C14.72996857 7.26869167 21.56483031 11.35556188 28.41772461 15.39111328 C35.72542498 19.69307716 43.08841601 23.87987604 50.5 28 C58.72223416 32.57529092 66.88572021 37.23588388 75 42 C84.0479543 47.31024172 93.16308226 52.48442074 102.328125 57.58959961 C111.76652775 62.85224651 121.15027684 68.20753005 130.52441406 73.58349609 C136.65927944 77.09973415 142.80827833 80.58485472 149 84 C144.83519337 88.96563921 140.50293369 93.64481223 135.9140625 98.21875 C134.92314102 99.21110657 134.92314102 99.21110657 133.91220093 100.22351074 C132.52342439 101.61296345 131.13340162 103.00117156 129.7421875 104.38818359 C127.63427071 106.49075281 125.531735 108.59859604 123.4296875 110.70703125 C122.0706329 112.0654248 120.711268 113.42350798 119.3515625 114.78125 C118.73358795 115.40124878 118.1156134 116.02124756 117.47891235 116.66003418 C114.56472025 119.55893343 111.61623044 122.35641817 108.48214722 125.01686096 C102.94733414 129.84160905 97.80656098 135.06150971 92.62695312 140.25952148 C91.50284974 141.38390746 90.37852508 142.50807226 89.2539978 143.6320343 C86.22340016 146.66234678 83.19588071 149.69571737 80.16893196 152.7296741 C76.99703356 155.90785299 73.82227492 159.08317218 70.64782715 162.25880432 C64.64661803 168.26311297 58.64796108 174.26996462 52.65023184 180.27774912 C45.8178221 187.12136293 38.98254925 193.96211409 32.14704227 200.80263412 C18.09485494 214.86525461 4.04624145 228.9314407 -10 243 C-14.26544437 241.47662701 -15.95651277 238.95573949 -18 235 C-18.55262381 231.93011407 -18.54061258 228.9278799 -18.50793457 225.81494141 C-18.51417453 224.89933252 -18.5204145 223.98372364 -18.52684355 223.04036903 C-18.54277817 219.97717035 -18.53016725 216.91476687 -18.51757812 213.8515625 C-18.52299902 211.65353939 -18.53012149 209.45551991 -18.53881836 207.25750732 C-18.55705834 201.29061734 -18.54998123 195.32400391 -18.53730202 189.35710907 C-18.52717795 183.11387891 -18.53656606 176.87067249 -18.54284668 170.62744141 C-18.55059103 159.47121438 -18.53815708 148.31508891 -18.51780933 137.15888619 C-18.49993877 127.04791908 -18.50304303 116.93713567 -18.52148438 106.82617188 C-18.54290053 95.07872176 -18.55085315 83.33136111 -18.53903532 71.58389091 C-18.53279782 65.36750757 -18.53197194 59.15125072 -18.54518127 52.93487549 C-18.55673212 47.09072518 -18.54872762 41.24692194 -18.52560425 35.40280914 C-18.52031312 33.25740383 -18.52183779 31.11196934 -18.53065491 28.96657562 C-18.54157772 26.03900835 -18.52788574 23.11255481 -18.50793457 20.18505859 C-18.51685746 19.33505594 -18.52578034 18.48505329 -18.53497362 17.60929298 C-18.46428286 12.26545161 -17.52605987 9.25059479 -14 5 C-9.12291613 0.70352135 -6.55603985 -0.3965071 0 0 Z " fill="#29A1D9" transform="translate(179,164)"/>
<path d="M0 0 C3.63632623 1.37448867 6.97064121 3.00434858 10.359375 4.90625 C11.38514648 5.48052734 12.41091797 6.05480469 13.46777344 6.64648438 C14.5509082 7.25814453 15.63404297 7.86980469 16.75 8.5 C17.86149414 9.12712891 18.97298828 9.75425781 20.11816406 10.40039062 C22.36114974 11.66858755 24.60302516 12.93875026 26.84375 14.2109375 C29.64050555 15.79622716 32.44432821 17.36807734 35.25 18.9375 C36.75064858 19.79052669 38.25069861 20.64460768 39.75 21.5 C40.4212793 21.87189453 41.09255859 22.24378906 41.78417969 22.62695312 C46.19274802 25.1767614 49.11861313 27.76171238 52 32 C52.62890625 34.78125 52.62890625 34.78125 52.5625 37.5 C52.56378906 38.3971875 52.56507813 39.294375 52.56640625 40.21875 C51.57930847 45.06574049 49.72536359 47.77289087 45.76049805 50.59277344 C42.89977373 52.3479735 39.9977753 53.997557 37.0625 55.625 C35.99 56.23472656 34.9175 56.84445312 33.8125 57.47265625 C31.60504457 58.72624074 29.39424909 59.97396166 27.18017578 61.21582031 C23.45189852 63.30750235 19.74024629 65.42716936 16.03051758 67.55151367 C14.32969986 68.52507388 12.62769298 69.49655926 10.92456055 70.46606445 C5.38023042 73.62363505 -0.13423224 76.82871455 -5.63671875 80.05859375 C-16.31685725 86.3270672 -27.08544211 92.4082625 -37.92773438 98.39160156 C-46.38691558 103.07202532 -54.74805274 107.90167896 -63.08203125 112.80078125 C-70.17161269 116.95900339 -77.31808698 121.00361292 -84.5 125 C-92.76216257 129.59865392 -100.96829408 134.27924243 -109.125 139.0625 C-117.32305141 143.86816069 -125.54634918 148.62478918 -133.8125 153.3125 C-134.7917041 153.8701001 -135.7709082 154.4277002 -136.77978516 155.00219727 C-137.68390137 155.51322998 -138.58801758 156.0242627 -139.51953125 156.55078125 C-140.31464111 157.00106689 -141.10975098 157.45135254 -141.92895508 157.9152832 C-145.24084712 159.64989789 -147.87931493 160.1371357 -151.5625 160.125 C-152.34753906 160.12757813 -153.13257813 160.13015625 -153.94140625 160.1328125 C-156 160 -156 160 -158 159 C-156.44452763 155.28254798 -154.16896704 152.91992849 -151.33358765 150.08634949 C-150.85566414 149.60601157 -150.37774064 149.12567365 -149.88533461 148.63078004 C-148.28423331 147.02404767 -146.67608975 145.42455722 -145.06787109 143.82495117 C-143.91758695 142.67359394 -142.76773594 141.52180384 -141.61828613 140.36961365 C-138.4944383 137.24091626 -135.36437116 134.1185095 -132.23303175 130.99731231 C-128.95298054 127.72604992 -125.67820783 124.44951122 -122.40274048 121.17366028 C-116.89640913 115.66826585 -111.38621792 110.16675882 -105.87353516 104.66772461 C-99.51284452 98.32272464 -93.15736002 91.97254876 -86.80487764 85.61933154 C-80.03135286 78.84512918 -73.2540165 72.07474995 -66.47557116 65.30547166 C-64.52913437 63.36115941 -62.58340293 61.41614371 -60.63782883 59.47096825 C-57.56878436 56.40293446 -54.49718005 53.33748552 -51.42364502 50.27395058 C-50.30058423 49.15379101 -49.1783456 48.0328064 -48.05702591 46.91090393 C-42.74527793 41.59744141 -37.42935709 36.3346865 -31.69600105 31.47127151 C-28.52987736 28.72467676 -25.60618766 25.72860386 -22.65625 22.75390625 C-22.00168823 22.09792953 -21.34712646 21.44195282 -20.67272949 20.76609802 C-18.61276177 18.70059855 -16.55632634 16.63162405 -14.5 14.5625 C-13.0913795 13.14885566 -11.68252733 11.73544214 -10.2734375 10.32226562 C-6.84627867 6.88416851 -3.42227981 3.44295344 0 0 Z " fill="#E26456" transform="translate(327,249)"/>
<path d="M0 0 C1.48247795 -0.00570986 2.96495151 -0.0126765 4.44741821 -0.02079773 C8.45581643 -0.03867764 12.46399511 -0.03757039 16.47242117 -0.03185534 C19.82708902 -0.02875556 23.18171517 -0.0348648 26.53637707 -0.04089409 C34.45527653 -0.05492114 42.37406807 -0.05339361 50.29296875 -0.04199219 C58.44325912 -0.03051641 66.59322022 -0.0445816 74.74346721 -0.07138866 C81.75861221 -0.09359234 88.77365421 -0.10017245 95.78883183 -0.09431225 C99.97090297 -0.09095216 104.15276317 -0.09329412 108.33480453 -0.11056328 C112.26990899 -0.12610475 116.20452832 -0.1219979 120.13961411 -0.10325813 C121.57704581 -0.09959186 123.01451404 -0.10262303 124.45191193 -0.11314392 C133.95933752 -0.17737585 142.37179312 0.35494432 149.95361328 6.58764648 C150.56205078 7.33143555 151.17048828 8.07522461 151.79736328 8.84155273 C152.42642578 9.58276367 153.05548828 10.32397461 153.70361328 11.08764648 C158.38052808 17.88522119 158.4463671 25.34126266 158.39501953 33.30249023 C158.39289711 34.55493027 158.39289711 34.55493027 158.39073181 35.83267212 C158.38516502 38.48150316 158.37261875 41.13024754 158.35986328 43.77905273 C158.35484399 45.58243692 158.35028183 47.38582245 158.34619141 49.18920898 C158.33606029 53.5942166 158.31647858 57.99903843 158.29736328 62.40405273 C150.70736328 62.40405273 143.11736328 62.40405273 135.29736328 62.40405273 C134.96736328 49.86405273 134.63736328 37.32405273 134.29736328 24.40405273 C86.11736328 24.40405273 37.93736328 24.40405273 -11.70263672 24.40405273 C-12.03263672 36.94405273 -12.36263672 49.48405273 -12.70263672 62.40405273 C-20.29263672 62.40405273 -27.88263672 62.40405273 -35.70263672 62.40405273 C-35.74877734 57.15683908 -35.78853336 51.91034149 -35.8125 46.66308594 C-35.82250083 44.88148603 -35.83610588 43.09990229 -35.85351562 41.31835938 C-35.87802629 38.74401841 -35.8891792 36.16989616 -35.89794922 33.59545898 C-35.90827179 32.81070694 -35.91859436 32.0259549 -35.92922974 31.21742249 C-35.93113177 21.64685014 -34.21771919 14.55277165 -27.70263672 7.40405273 C-19.73908905 -0.34992789 -10.45740259 -0.03644277 0 0 Z " fill="#D4D5DB" transform="translate(194.70263671875,59.595947265625)"/>
<path d="M0 0 C1.50240234 0.78503906 1.50240234 0.78503906 3.03515625 1.5859375 C3.61740967 1.88878662 4.19966309 2.19163574 4.79956055 2.50366211 C11.82762482 6.22962917 18.66248656 10.31649938 25.51538086 14.35205078 C32.82308123 18.65401466 40.18607226 22.84081354 47.59765625 26.9609375 C55.81989041 31.53622842 63.98337646 36.19682138 72.09765625 40.9609375 C81.14561055 46.27117922 90.26073851 51.44535824 99.42578125 56.55053711 C108.864184 61.81318401 118.24793309 67.16846755 127.62207031 72.54443359 C133.75693569 76.06067165 139.90593458 79.54579222 146.09765625 82.9609375 C139.95820502 90.26381415 133.33461408 97.01701798 126.62011719 103.78857422 C125.17953615 105.24586049 123.74436199 106.70851013 122.31445312 108.17626953 C120.24106043 110.30410062 118.1519903 112.41530649 116.05859375 114.5234375 C115.41997406 115.18472656 114.78135437 115.84601563 114.12338257 116.52734375 C113.52240753 117.12546875 112.9214325 117.72359375 112.30224609 118.33984375 C111.7785141 118.8716626 111.2547821 119.40348145 110.71517944 119.95141602 C109.09765625 120.9609375 109.09765625 120.9609375 107.30339432 120.80831814 C104.2177803 119.62291466 102.52015531 117.75172877 100.18832397 115.41236877 C99.70854178 114.93514986 99.22875959 114.45793094 98.73443854 113.96625084 C97.12742849 112.36418496 95.53138048 110.75162677 93.93505859 109.13891602 C92.78566331 107.98867457 91.63560714 106.8390932 90.48493958 105.69012451 C87.36061962 102.56666658 84.24564733 99.43403318 81.13223982 96.29970288 C77.87539254 93.02411478 74.61006027 89.75700783 71.34561157 86.48899841 C65.16201298 80.29606849 58.98610121 74.09553108 52.81290019 67.89223856 C45.79322139 60.83908127 38.76507165 53.79439126 31.73617244 46.7504245 C17.86864062 32.8528106 4.01082228 18.94555009 -9.84018898 5.03147221 C-11.19288669 3.67327756 -12.54689478 2.31638647 -13.90234375 0.9609375 C-9.4653635 -1.87872986 -4.87544193 -1.74544758 0 0 Z " fill="#4EBD9E" transform="translate(181.90234375,165.0390625)"/>
<path d="M0 0 C3.63632623 1.37448867 6.97064121 3.00434858 10.359375 4.90625 C11.38514648 5.48052734 12.41091797 6.05480469 13.46777344 6.64648438 C14.5509082 7.25814453 15.63404297 7.86980469 16.75 8.5 C18.41724121 9.44069336 18.41724121 9.44069336 20.11816406 10.40039062 C22.36114974 11.66858755 24.60302516 12.93875026 26.84375 14.2109375 C29.64050555 15.79622716 32.44432821 17.36807734 35.25 18.9375 C36.75064858 19.79052669 38.25069861 20.64460768 39.75 21.5 C40.4212793 21.87189453 41.09255859 22.24378906 41.78417969 22.62695312 C46.19274802 25.1767614 49.11861313 27.76171238 52 32 C52.62890625 34.78125 52.62890625 34.78125 52.5625 37.5 C52.56378906 38.3971875 52.56507813 39.294375 52.56640625 40.21875 C51.57930847 45.06574049 49.72536359 47.77289087 45.76049805 50.59277344 C42.89975321 52.34798609 39.99808001 53.99805759 37.0625 55.625 C36.00450195 56.2245752 34.94650391 56.82415039 33.85644531 57.44189453 C31.66316727 58.68440322 29.46700281 59.92182979 27.26806641 61.15429688 C24.12171545 62.93125887 21.00105587 64.74574421 17.88671875 66.578125 C16.93595459 67.13419434 15.98519043 67.69026367 15.00561523 68.26318359 C13.20145321 69.31847532 11.40006197 70.37852188 9.60180664 71.44384766 C8.7896167 71.9135498 7.97742676 72.38325195 7.140625 72.8671875 C6.43454102 73.28081543 5.72845703 73.69444336 5.00097656 74.12060547 C3 75 3 75 -1 75 C-2.84771729 73.63330078 -2.84771729 73.63330078 -4.75878906 71.6953125 C-5.47923401 70.97456543 -6.19967896 70.25381836 -6.94195557 69.51123047 C-7.70876648 68.72377441 -8.47557739 67.93631836 -9.265625 67.125 C-10.05902283 66.32594238 -10.85242065 65.52688477 -11.66986084 64.70361328 C-14.20609402 62.14495877 -16.72808273 59.57275851 -19.25 57 C-20.96522667 55.26471598 -22.68136147 53.53032909 -24.3984375 51.796875 C-28.60955802 47.54161058 -32.80906031 43.27513651 -37 39 C-35.60919475 35.86261846 -33.98977796 33.74524719 -31.56005859 31.33300781 C-30.85948334 30.63258362 -30.15890808 29.93215942 -29.43710327 29.21051025 C-28.68184357 28.46557312 -27.92658386 27.72063599 -27.1484375 26.953125 C-26.37440582 26.18192322 -25.60037415 25.41072144 -24.80288696 24.6161499 C-22.33158077 22.15603144 -19.85340817 19.70296152 -17.375 17.25 C-15.69745948 15.58249106 -14.02037055 13.91452768 -12.34375 12.24609375 C-8.23439081 8.1587763 -4.11937353 4.07722304 0 0 Z " fill="#F9D262" transform="translate(327,249)"/>
</svg>
