<?xml version="1.0" standalone="no"?>
<!DOCTYPE svg PUBLIC "-//W3C//DTD SVG 20010904//EN"
 "http://www.w3.org/TR/2001/REC-SVG-20010904/DTD/svg10.dtd">
<svg version="1.0" xmlns="http://www.w3.org/2000/svg"
 width="1440.000000pt" height="3040.000000pt" viewBox="0 0 1440.000000 3040.000000"
 preserveAspectRatio="xMidYMid meet">

<g transform="translate(0.000000,3040.000000) scale(0.100000,-0.100000)"
fill="#000000" stroke="none">
<path d="M0 15200 l0 -15200 7200 0 7200 0 0 15200 0 15200 -7200 0 -7200 0 0
-15200z m2654 14979 l18 -21 22 21 c32 30 53 27 61 -9 6 -28 9 -30 48 -28 l42
3 -3 -37 c-2 -26 1 -38 10 -39 7 -1 19 -2 27 -3 8 0 19 -9 25 -19 9 -14 7 -21
-6 -31 -24 -18 -23 -43 2 -56 30 -16 25 -46 -10 -59 -30 -10 -38 -25 -20 -36
14 -9 12 -55 -2 -56 -7 -1 -24 -2 -38 -2 -20 -2 -25 -7 -26 -30 -1 -36 -23
-51 -45 -31 -23 21 -44 17 -57 -11 -6 -14 -19 -25 -27 -25 -8 0 -21 11 -27 25
-13 29 -34 32 -60 9 -23 -22 -49 -2 -46 35 3 23 -1 26 -37 31 -42 5 -42 7 -29
61 5 22 2 27 -20 33 -32 8 -35 40 -6 56 24 13 26 33 5 50 -18 15 -20 50 -2 51
6 1 17 2 22 4 6 1 16 3 23 3 9 1 12 15 10 40 l-3 37 38 -2 c34 -2 39 1 49 27
12 35 36 39 62 9z m9571 -4 c49 -8 125 -48 159 -84 l25 -26 -127 -155 c-71
-85 -132 -155 -138 -154 -5 0 -66 70 -136 155 l-127 154 25 26 c38 39 114 78
175 88 54 9 67 8 144 -4z m1115 -9 c0 -21 5 -25 38 -28 l37 -3 3 -190 c2 -170
1 -191 -15 -202 -11 -9 -53 -13 -118 -13 -65 0 -107 4 -118 13 -16 11 -17 32
-15 202 l3 190 38 3 c32 3 37 7 37 28 0 23 3 24 55 24 52 0 55 -1 55 -24z
m-442 -203 l-3 -218 -217 -3 c-120 -1 -218 1 -218 5 0 10 423 433 433 433 4 0
6 -98 5 -217z m-11015 126 c22 -28 22 -86 -2 -124 -10 -17 -44 -59 -76 -93
l-57 -62 86 0 c79 0 86 -2 86 -20 0 -19 -7 -20 -115 -20 -135 0 -140 6 -74 80
95 107 119 142 119 174 0 40 -15 56 -54 56 -34 0 -66 -25 -66 -52 0 -13 -7
-18 -25 -18 -31 0 -33 22 -5 67 11 19 31 35 47 39 15 3 33 7 38 8 23 6 81 -15
98 -35z m272 -1 c31 -36 32 -76 4 -112 -19 -24 -20 -28 -6 -39 28 -21 38 -63
24 -104 -15 -49 -70 -78 -124 -68 -39 7 -93 53 -93 79 0 25 47 21 55 -5 16
-48 107 -43 119 7 12 45 -25 84 -78 84 -19 0 -26 5 -26 20 0 16 7 20 34 20 19
0 42 7 50 16 19 18 21 65 4 82 -28 28 -108 3 -108 -35 0 -13 -31 -18 -43 -7
-8 8 12 61 29 75 19 15 72 26 107 21 15 -2 38 -18 52 -34z m-995 -143 l0 -175
-25 0 -25 0 0 145 c0 80 -2 145 -4 145 -2 0 -22 -7 -45 -15 -40 -14 -41 -14
-41 9 0 18 11 26 58 43 31 12 63 22 70 22 9 1 12 -40 12 -174z m280 0 l0 -175
-25 0 -25 0 0 145 c0 80 -2 145 -4 145 -2 0 -22 -7 -45 -15 -40 -14 -41 -14
-41 9 0 18 11 26 58 43 31 12 63 22 70 22 9 1 12 -40 12 -174z m185 60 c0 -22
-31 -33 -47 -17 -17 17 -1 44 24 40 15 -2 23 -10 23 -23z m0 -210 c0 -22 -31
-33 -47 -17 -17 17 -1 44 24 40 15 -2 23 -10 23 -23z m-615 -960 l24 -26 -94
-94 -95 -95 208 0 207 0 0 -40 0 -40 -207 0 -208 0 95 -95 95 -95 -28 -27 -27
-28 -143 143 -142 142 140 140 c77 77 142 140 146 140 3 0 16 -11 29 -25z
m2250 -250 l0 -265 -40 0 c-28 0 -40 4 -40 14 0 11 -8 10 -37 -6 -108 -56
-206 32 -205 182 1 140 90 220 196 176 21 -9 40 -16 42 -16 2 0 4 41 4 90 l0
90 40 0 40 0 0 -265z m168 243 c7 -7 12 -21 12 -33 0 -29 -19 -45 -52 -45 -25
0 -48 23 -48 49 0 33 63 54 88 29z m2046 -4 c32 -32 13 -74 -34 -74 -31 0 -50
17 -50 45 0 43 53 61 84 29z m-1271 -8 c21 -8 48 -22 59 -33 26 -23 58 -86 58
-113 0 -17 -6 -20 -44 -20 -40 0 -44 2 -49 29 -10 46 -43 71 -97 71 -50 0 -84
-22 -100 -64 -17 -46 -22 -134 -10 -191 16 -76 46 -105 110 -105 54 0 87 25
97 71 5 27 9 29 51 29 l45 0 -6 -36 c-7 -43 -47 -98 -85 -118 -43 -22 -114
-29 -162 -16 -120 32 -182 198 -134 359 35 119 151 178 267 137z m-1303 -31
l0 -35 -120 0 -120 0 0 -70 0 -70 100 0 100 0 0 -35 0 -35 -100 0 -100 0 0
-75 0 -75 120 0 120 0 0 -35 0 -35 -165 0 -165 0 0 250 0 250 165 0 165 0 0
-35z m730 -45 l0 -50 35 0 c32 0 35 -2 35 -30 0 -28 -3 -30 -35 -30 l-36 0 3
-117 3 -118 33 -3 c29 -3 32 -6 32 -37 0 -47 -50 -61 -109 -30 -40 20 -51 61
-51 191 l0 114 -30 0 c-27 0 -30 3 -30 30 0 27 3 30 30 30 29 0 30 2 30 43 0
24 3 47 7 50 3 4 24 7 45 7 l38 0 0 -50z m1638 -2 c3 -46 5 -48 33 -48 26 0
29 -3 29 -30 0 -27 -3 -30 -30 -30 l-30 0 0 -119 0 -120 33 -3 c27 -2 33 -8
35 -30 4 -35 -31 -54 -82 -44 -65 12 -76 40 -76 187 l0 129 -30 0 c-27 0 -30
3 -30 30 0 27 3 30 30 30 29 0 30 1 30 51 l0 50 43 -3 42 -3 3 -47z m-642 -63
c43 -28 51 -61 56 -212 l3 -143 -42 0 c-32 0 -43 4 -43 15 0 12 -6 12 -37 -5
-44 -23 -72 -25 -116 -6 -45 19 -68 48 -73 93 -10 78 56 133 160 133 53 0 56
1 56 24 0 32 -25 56 -56 56 -33 0 -64 -17 -64 -35 0 -11 -12 -15 -45 -15 -49
0 -53 6 -30 50 25 48 84 72 159 65 27 -2 59 -11 72 -20z m380 5 c54 -27 77
-72 82 -165 6 -121 -53 -200 -148 -200 -33 0 -54 6 -69 19 l-21 19 0 -86 0
-87 -45 0 -45 0 0 255 0 255 40 0 c26 0 43 -5 46 -14 5 -12 11 -11 37 5 41 24
70 24 123 -1z m775 9 c72 -24 119 -97 119 -184 0 -138 -115 -226 -235 -180
-96 36 -139 149 -101 258 18 50 42 76 91 98 47 22 79 23 126 8z m456 -22 c33
-33 42 -81 43 -224 l0 -123 -45 0 -45 0 0 124 c0 159 -6 176 -61 176 -73 0
-79 -13 -79 -167 l0 -133 -45 0 -45 0 0 185 0 185 45 0 c33 0 45 -4 45 -15 0
-11 8 -10 43 6 54 25 111 20 144 -14z m-2797 -162 l0 -185 -45 0 -45 0 0 185
0 185 45 0 45 0 0 -185z m2040 0 l0 -185 -45 0 -45 0 0 185 0 185 45 0 45 0 0
-185z m2001 -1465 c-19 -16 -47 -32 -64 -36 -16 -3 -52 -24 -81 -45 -28 -21
-56 -39 -62 -39 -6 0 -30 -14 -52 -30 -37 -27 -42 -35 -43 -73 l-1 -42 -10 33
c-7 19 -18 32 -28 32 -27 0 -83 -21 -109 -42 -13 -10 -31 -18 -41 -18 -9 0
-25 -9 -35 -20 -10 -11 -26 -20 -35 -20 -10 0 -23 -6 -29 -14 -7 -8 -24 -17
-39 -21 -31 -7 -132 -74 -132 -87 0 -12 -92 -68 -113 -68 -10 0 -20 -7 -24
-16 -6 -17 -26 -41 -78 -97 -17 -18 -36 -43 -43 -57 -25 -50 -59 -88 -71 -81
-14 9 -263 -240 -259 -259 2 -7 -15 -22 -37 -34 -22 -12 -45 -33 -52 -47 -7
-15 -24 -34 -36 -42 -13 -9 -30 -29 -37 -46 -7 -17 -19 -31 -26 -31 -7 0 -20
-13 -29 -30 -9 -16 -20 -30 -25 -30 -5 0 -21 -22 -35 -50 -14 -27 -40 -62 -60
-77 -19 -16 -37 -41 -41 -58 -4 -16 -21 -50 -38 -74 -67 -93 -75 -107 -75
-121 -1 -24 -117 -140 -129 -128 -7 7 -12 0 -16 -19 -4 -17 -20 -40 -36 -52
-17 -12 -30 -30 -30 -40 0 -10 -12 -26 -26 -36 -23 -15 -26 -22 -20 -55 7 -47
-10 -62 -34 -30 -21 28 -46 23 -77 -16 -22 -29 -23 -33 -8 -48 22 -21 41 -20
65 4 l20 20 0 -31 c0 -41 -46 -119 -70 -119 -14 0 -21 -10 -25 -37 -4 -21 -15
-49 -24 -63 -10 -14 -26 -41 -36 -60 -10 -19 -37 -55 -61 -80 -79 -83 -144
-160 -144 -169 0 -6 -18 -20 -39 -32 -25 -13 -37 -27 -34 -35 9 -24 -16 -44
-48 -37 -18 3 -29 1 -29 -6 0 -6 6 -11 14 -11 14 0 26 -21 26 -46 0 -8 -10
-14 -22 -14 -21 0 -21 0 -2 -15 19 -15 18 -16 -9 -40 -33 -29 -40 -30 -57 -10
-7 8 -20 15 -29 15 -22 -1 -64 -37 -56 -50 7 -11 -23 -55 -69 -100 -22 -22
-27 -34 -22 -53 5 -20 2 -26 -18 -31 -13 -3 -37 -20 -54 -37 -25 -26 -33 -29
-50 -20 -28 15 -28 15 -42 -19 -8 -18 -26 -36 -44 -44 -48 -20 -100 -72 -101
-98 0 -18 -6 -24 -27 -26 -16 -2 -28 -8 -28 -13 0 -5 -4 -9 -8 -9 -5 0 -35
-26 -68 -58 -32 -31 -75 -71 -95 -87 -32 -26 -34 -31 -20 -42 14 -11 14 -13
-6 -19 -12 -3 -24 -12 -27 -20 -3 -8 -14 -14 -24 -14 -17 0 -72 -41 -72 -55 0
-3 8 -5 18 -5 10 0 13 -3 6 -8 -6 -4 -14 -14 -17 -22 -4 -12 -6 -11 -6 3 -1
22 -13 22 -37 -3 -34 -34 -44 -49 -44 -65 0 -29 -19 -53 -47 -60 -44 -10 -104
-57 -119 -92 -11 -28 -11 -33 1 -33 8 0 15 -5 15 -11 0 -7 -11 -8 -31 -4 -29
7 -31 5 -27 -13 4 -13 0 -23 -8 -26 -8 -3 -14 -14 -14 -24 0 -24 -27 -47 -63
-56 -15 -4 -35 -15 -43 -25 -9 -10 -27 -31 -40 -45 -13 -15 -24 -33 -24 -41 0
-7 -9 -17 -20 -20 -11 -3 -20 -10 -20 -15 0 -4 -16 -23 -36 -42 -20 -18 -54
-50 -76 -71 -21 -20 -50 -44 -63 -53 -14 -9 -25 -20 -25 -25 0 -5 -28 -46 -63
-92 -35 -45 -66 -90 -70 -99 -3 -10 -11 -18 -17 -18 -5 0 -10 -11 -10 -25 0
-14 -4 -25 -8 -25 -15 0 -47 -74 -52 -120 -4 -37 -10 -47 -32 -58 -22 -10 -28
-20 -28 -43 0 -25 -3 -29 -18 -25 -13 5 -29 -8 -60 -45 -23 -29 -42 -56 -42
-61 0 -17 32 -21 73 -8 38 11 40 13 22 26 -18 13 -18 14 0 34 16 18 19 18 29
4 9 -12 17 -13 38 -5 14 5 29 15 33 20 8 14 52 14 60 1 9 -14 -35 -67 -66 -78
-14 -5 -43 -28 -64 -51 -22 -22 -45 -41 -52 -41 -7 0 -13 -8 -13 -19 0 -10 -9
-30 -20 -44 -13 -16 -16 -28 -10 -32 14 -8 -22 -53 -60 -77 -17 -10 -30 -24
-30 -33 0 -8 -9 -20 -20 -27 -12 -8 -20 -24 -20 -41 0 -20 -11 -38 -37 -62
-21 -19 -41 -35 -45 -35 -5 0 -8 -16 -8 -35 0 -32 3 -35 28 -34 15 0 37 -2 49
-6 18 -6 22 -2 28 24 8 37 41 81 61 81 9 0 14 -11 14 -29 0 -16 6 -33 13 -39
19 -16 65 -2 90 28 l23 27 22 -38 c12 -21 22 -45 22 -54 0 -18 43 -65 61 -65
7 0 10 11 7 30 -6 42 15 58 36 28 22 -31 20 -52 -9 -86 -21 -26 -24 -36 -18
-81 3 -28 12 -56 19 -62 19 -15 18 -44 -2 -60 -14 -12 -20 -9 -40 16 -18 23
-24 26 -24 13 0 -10 9 -23 20 -30 21 -13 28 -48 10 -48 -5 0 -10 7 -10 15 0 8
-4 15 -10 15 -5 0 -10 -8 -10 -19 0 -84 -54 -113 -218 -118 -88 -3 -121 -8
-149 -23 -20 -11 -57 -22 -82 -26 -25 -4 -58 -13 -73 -20 -15 -8 -40 -14 -57
-14 -16 0 -33 -5 -37 -12 -5 -8 10 -9 62 -2 107 14 238 8 269 -12 21 -14 31
-15 51 -5 54 24 87 5 65 -37 -9 -17 -6 -23 14 -36 21 -14 25 -24 25 -66 l0
-49 26 24 c21 19 30 22 40 14 8 -6 14 -18 14 -25 0 -8 8 -14 18 -14 17 0 29
-16 52 -72 7 -17 17 -25 26 -21 8 3 21 0 29 -7 9 -8 15 -8 15 -2 0 6 3 17 6
25 3 8 -2 22 -12 31 -15 16 -15 18 1 36 17 19 16 21 -14 55 -36 41 -34 36 -21
69 12 31 49 36 57 7 3 -11 12 -22 20 -25 10 -4 13 -1 8 13 -4 14 0 23 13 30
28 15 57 -18 49 -56 -3 -16 3 -52 13 -83 11 -30 19 -65 20 -77 0 -12 6 -34 14
-50 19 -38 37 -122 35 -164 -1 -19 0 -40 2 -48 3 -9 -16 -24 -53 -42 -56 -28
-88 -62 -68 -74 5 -3 39 -8 75 -12 50 -5 65 -9 65 -22 0 -22 -106 -134 -119
-126 -12 7 -110 -19 -160 -43 -23 -11 -61 -17 -112 -18 -81 0 -109 -12 -109
-45 0 -22 -11 -24 -28 -7 -17 17 -15 54 4 105 18 47 37 59 58 37 14 -13 18
-10 36 28 11 23 20 48 20 56 0 7 6 12 13 9 8 -2 11 -22 9 -64 -2 -36 1 -63 7
-67 15 -10 25 38 17 84 -5 31 -3 40 8 40 8 0 16 7 20 15 3 8 15 15 26 15 17 0
19 -4 14 -25 -5 -21 -3 -25 15 -25 16 0 21 6 21 25 0 26 25 45 59 45 11 0 22
9 26 20 8 27 -2 42 -22 32 -19 -11 -91 9 -104 29 -5 8 -9 36 -9 62 0 30 -4 46
-10 42 -5 -3 -10 -23 -10 -44 0 -54 -31 -92 -69 -85 -28 6 -29 5 -28 -31 1
-28 -5 -42 -22 -56 -31 -25 -41 -16 -41 34 0 45 -22 87 -45 87 -7 0 -27 -11
-43 -25 -16 -13 -48 -27 -71 -31 -49 -8 -37 -24 17 -24 42 0 54 -26 23 -51
-16 -13 -21 -24 -16 -39 13 -42 -15 -162 -51 -217 -32 -48 -38 -52 -82 -58
-62 -8 -141 -25 -170 -36 -33 -13 -70 -1 -78 24 -4 12 -15 33 -25 46 -11 13
-19 32 -19 43 0 20 -37 99 -50 108 -5 3 -10 19 -12 35 -4 36 -36 48 -45 16 -3
-12 -10 -21 -15 -21 -5 0 -8 -12 -6 -27 4 -33 20 -34 30 -1 5 20 6 20 7 -7 0
-16 9 -57 20 -90 29 -89 41 -191 31 -260 -5 -35 -5 -77 0 -100 5 -22 10 -70
10 -107 0 -58 -3 -68 -17 -68 -10 1 -27 14 -38 30 -11 16 -33 47 -49 70 -21
30 -31 56 -34 96 -4 46 -9 59 -33 76 -15 11 -33 35 -40 52 -7 17 -23 45 -36
63 -14 17 -29 48 -34 67 -23 84 -45 12 -35 -116 10 -138 9 -290 -2 -340 -6
-25 -25 -69 -43 -98 -24 -38 -32 -65 -34 -103 -1 -38 -9 -63 -30 -95 -16 -24
-32 -62 -36 -85 -4 -23 -20 -78 -36 -122 -27 -76 -30 -80 -58 -80 -37 0 -53
29 -66 123 -5 37 -14 84 -20 105 -10 36 -11 37 -48 31 l-38 -6 -7 55 c-3 31
-1 79 5 108 14 64 7 158 -12 170 -8 5 -9 9 -3 9 6 0 16 17 21 38 8 30 7 43 -4
58 -8 11 -11 30 -7 47 3 15 1 33 -4 40 -15 18 -33 167 -34 274 -1 71 -5 96
-15 100 -8 3 -17 3 -20 -1 -10 -9 -25 -104 -25 -156 -1 -52 23 -203 33 -210 3
-3 13 -48 21 -101 12 -81 12 -98 1 -105 -9 -6 -17 -49 -23 -139 -5 -71 -14
-157 -21 -189 -6 -33 -8 -72 -5 -88 3 -18 0 -33 -11 -44 -15 -15 -18 -14 -33
5 -16 23 -30 19 -30 -8 -1 -9 -10 -27 -20 -40 -16 -19 -23 -21 -34 -12 -12 10
-23 7 -56 -14 -40 -25 -43 -26 -61 -9 -10 9 -21 32 -25 50 -3 18 -23 52 -45
76 -21 24 -39 46 -39 49 0 4 -7 10 -16 13 -22 8 -44 -11 -44 -39 0 -12 -7 -28
-15 -35 -7 -6 -28 -37 -46 -68 -39 -71 -57 -92 -79 -92 -10 0 -29 -9 -43 -21
-22 -16 -24 -23 -16 -37 8 -13 7 -34 -5 -81 -9 -34 -16 -76 -16 -92 0 -40 -44
-61 -96 -45 l-34 11 0 1007 c0 623 4 1008 9 1008 6 0 13 -4 16 -10 3 -5 17
-10 31 -10 22 0 23 2 13 21 -8 17 -17 20 -40 15 -28 -5 -29 -4 -29 34 0 45 19
53 47 20 22 -26 37 -25 55 1 13 20 17 21 51 10 35 -12 40 -11 63 13 26 25 25
50 0 40 -8 -3 -32 4 -55 15 -22 12 -53 21 -69 21 -16 0 -44 3 -61 6 l-31 7 0
567 0 567 123 6 c132 6 375 22 552 37 61 5 196 14 300 19 105 5 214 14 244 20
30 6 61 7 70 2 15 -8 77 -2 160 15 35 7 51 32 66 103 4 19 25 52 47 75 70 73
78 83 78 99 0 9 5 19 10 22 6 4 22 29 36 57 14 28 48 75 76 104 37 39 49 59
46 78 -3 26 32 66 59 66 8 0 11 5 8 10 -3 6 -15 10 -25 10 -34 0 -30 17 8 36
20 10 61 34 90 53 47 30 51 35 35 46 -16 12 -15 15 13 39 l29 26 -115 -5
c-169 -8 -272 -14 -400 -25 -63 -5 -166 -12 -229 -15 -63 -3 -131 -9 -150 -15
-20 -5 -112 -11 -206 -14 -350 -9 -752 -27 -815 -36 -36 -5 -75 -10 -87 -10
l-23 0 0 1918 c0 2095 -3 1967 57 2091 14 29 54 84 89 120 67 71 133 113 223
142 53 17 218 18 3286 18 l3230 0 -34 -29z m1269 19 c14 0 59 3 101 7 l76 6 7
-26 c7 -30 36 -35 61 -10 8 9 22 13 30 10 11 -4 12 -11 4 -36 -6 -16 -12 -30
-12 -31 -1 0 -47 -4 -102 -9 -66 -5 -115 -4 -143 3 -33 9 -47 8 -63 -1 -16
-10 -28 -10 -60 0 -32 9 -51 9 -85 0 -24 -7 -57 -12 -73 -12 -29 0 -115 -57
-194 -130 -81 -74 -127 -90 -127 -45 0 21 -5 25 -29 25 -25 0 -30 -5 -41 -45
-11 -40 -15 -44 -36 -39 -29 7 -83 -32 -83 -61 -1 -12 -22 -37 -51 -60 -27
-22 -50 -46 -50 -53 0 -8 -11 -23 -25 -34 -29 -23 -65 -88 -65 -118 0 -11 -4
-20 -9 -20 -5 0 -12 -10 -16 -22 -16 -59 -45 -90 -45 -48 0 11 4 20 9 20 5 0
12 9 15 20 3 11 8 29 11 39 5 16 2 18 -15 14 -11 -3 -20 -11 -20 -19 0 -7 -6
-17 -13 -21 -8 -4 -19 -17 -25 -28 -16 -29 -15 0 3 41 8 19 30 50 49 69 19 18
40 51 45 73 6 22 18 45 26 52 8 7 15 19 15 28 0 16 45 62 60 62 5 0 14 9 20
20 6 11 20 20 31 20 18 0 20 4 13 32 -6 29 -5 31 9 20 19 -16 40 -7 76 32 14
14 34 26 47 26 12 0 43 20 70 45 27 26 61 52 75 60 15 8 40 28 57 45 28 28 32
29 57 16 24 -13 28 -11 55 15 30 31 85 40 107 18 8 -8 21 -1 50 25 38 36 39
36 108 31 39 -3 81 -5 95 -6z m541 -6 c1 -17 2 -17 6 0 4 16 30 17 354 17
l350 0 -17 -30 c-20 -33 -66 -49 -90 -29 -12 10 -17 8 -28 -7 -8 -10 -16 -17
-18 -14 -2 3 -12 17 -21 33 -32 51 -71 31 -163 -84 -33 -41 -62 -69 -74 -69
-24 0 -116 -92 -141 -142 -20 -39 -45 -53 -34 -19 3 11 3 31 -1 45 -9 35 -38
34 -54 -3 -13 -33 -29 -42 -59 -34 -23 6 -28 19 -8 26 8 4 7 6 -3 6 -8 0 -24
-6 -34 -14 -17 -13 -18 -15 -3 -15 21 0 23 -26 3 -33 -8 -3 -20 1 -26 9 -7 8
-19 14 -27 14 -10 0 -12 8 -8 34 4 20 2 36 -4 40 -19 12 -12 29 9 23 14 -3 20
0 20 10 0 9 20 39 45 68 46 54 46 63 3 78 -23 8 -23 33 -2 45 22 12 1 26 -26
17 -16 -5 -18 -9 -7 -26 8 -14 9 -24 1 -36 -18 -28 -33 -26 -64 7 -17 18 -33
30 -36 28 -7 -8 -7 -39 1 -64 5 -15 0 -25 -19 -38 -14 -9 -40 -32 -58 -51 -17
-19 -39 -35 -49 -35 -18 0 -99 -71 -99 -87 0 -5 -25 -36 -55 -68 -30 -32 -55
-66 -55 -75 0 -11 -10 -20 -29 -23 -20 -4 -31 -14 -35 -32 -4 -14 -13 -25 -21
-25 -8 0 -19 -9 -25 -20 -17 -33 -33 -24 -26 14 6 29 3 37 -19 53 l-26 19 45
42 c25 24 46 48 46 53 0 16 52 59 71 59 11 0 19 5 19 12 0 16 40 58 56 58 6 0
34 22 61 49 27 27 67 58 89 69 37 19 40 24 36 52 -6 38 20 70 58 70 15 0 35 9
45 20 25 28 144 30 146 3z m1199 2 c0 -17 46 -39 61 -29 5 3 9 14 9 25 0 14 7
19 25 19 29 0 30 -5 10 -40 -8 -14 -14 -44 -15 -68 0 -24 -5 -52 -10 -62 -7
-13 -7 -21 0 -25 17 -10 11 -52 -12 -90 -17 -30 -19 -38 -8 -45 18 -11 30 -3
30 20 0 37 44 36 55 -1 12 -36 135 -19 135 19 0 42 44 56 54 17 4 -16 13 -25
26 -25 10 0 22 -4 25 -10 14 -23 26 -8 19 25 -5 31 -4 35 14 35 11 0 33 -11
49 -24 15 -13 60 -34 98 -46 81 -27 101 -41 110 -78 11 -43 34 -62 77 -62 52
0 109 -25 115 -50 5 -18 11 -20 37 -14 17 4 36 13 41 21 10 13 13 13 25 -2 23
-28 38 -79 27 -97 -6 -8 -7 -26 -4 -39 8 -31 82 -120 113 -137 13 -7 24 -19
24 -27 0 -10 11 -15 33 -15 27 0 36 -6 51 -35 13 -24 19 -52 17 -84 -2 -46 1
-52 59 -119 33 -38 60 -75 60 -81 0 -7 7 -25 15 -41 16 -32 55 -42 55 -15 0
17 16 20 25 6 3 -6 -2 -14 -10 -19 -21 -11 -9 -41 14 -35 40 10 69 -95 41
-147 -7 -13 -6 -21 5 -30 19 -16 65 -95 65 -113 0 -7 11 -24 25 -37 20 -19 25
-33 25 -71 0 -26 4 -50 9 -54 5 -3 15 -31 21 -63 20 -100 29 -128 55 -166 31
-46 75 -155 75 -188 0 -14 9 -37 20 -51 12 -15 24 -52 29 -89 5 -35 16 -90 25
-123 10 -33 15 -69 12 -79 -3 -11 -1 -25 5 -32 7 -8 7 -14 -1 -19 -11 -7 -14
-78 -3 -88 13 -13 43 27 49 65 10 59 27 33 22 -33 -5 -69 -10 -76 -42 -61 -22
10 -24 8 -33 -26 -6 -20 -9 -55 -8 -77 9 -127 8 -147 -9 -157 -13 -8 -15 -13
-5 -24 9 -11 8 -15 -6 -20 -21 -9 -36 13 -29 43 5 18 -1 25 -29 36 -45 19 -53
33 -23 41 24 6 40 31 30 47 -3 5 -20 9 -39 9 -25 0 -35 5 -40 20 -4 12 -2 27
4 34 6 7 22 34 36 59 20 39 23 55 18 99 -3 29 -12 62 -19 73 -7 11 -16 41 -19
67 -5 34 -14 51 -31 63 -13 8 -24 21 -24 29 0 7 -6 26 -14 42 -8 16 -22 83
-31 149 -15 106 -22 129 -61 201 -24 45 -50 108 -59 140 -24 90 -45 196 -45
224 0 32 -25 69 -55 80 -20 8 -24 18 -30 79 -4 39 -11 72 -16 73 -29 4 -35 0
-40 -32 -5 -30 -7 -32 -14 -15 -15 36 -55 95 -64 95 -5 0 -14 -12 -20 -28 -6
-15 -20 -33 -31 -39 -16 -11 -20 -9 -29 20 -13 39 -16 124 -7 152 5 15 -1 30
-23 54 -16 18 -33 47 -37 65 -11 51 -52 177 -62 189 -5 7 -12 24 -15 38 -6 22
-49 79 -60 79 -2 0 -4 -17 -3 -37 1 -42 -24 -55 -34 -18 -7 28 -70 28 -80 0
-5 -14 -11 -1 -20 47 -12 58 -16 66 -31 58 -11 -6 -19 -28 -24 -65 -10 -84
-45 -72 -45 16 0 35 -17 78 -67 169 -8 14 -17 33 -20 43 -7 24 -21 21 -34 -6
-8 -18 -7 -35 4 -69 9 -24 19 -74 23 -109 3 -35 11 -72 15 -81 6 -11 5 -19 -2
-24 -14 -8 -58 44 -59 69 0 13 -7 17 -27 15 -24 -3 -28 2 -38 36 -6 22 -21 46
-33 54 -12 8 -22 23 -22 34 0 28 -18 58 -35 58 -8 0 -20 12 -28 26 -13 25 -14
25 -41 -45 -28 -68 -29 -69 -55 -58 -31 14 -41 28 -62 86 -15 43 -16 44 -32
25 -9 -10 -26 -29 -36 -41 -11 -12 -21 -32 -24 -45 -4 -20 -4 -20 -6 5 0 15
-8 30 -16 33 -8 4 -15 14 -15 24 0 11 -5 22 -10 25 -6 4 -8 28 -4 58 6 55 -5
101 -21 89 -6 -4 -20 -29 -33 -57 -19 -42 -22 -62 -17 -123 5 -73 4 -73 -25
-90 -17 -9 -32 -24 -35 -33 -3 -9 -14 -24 -24 -33 -26 -24 -38 -3 -17 29 9 13
16 35 16 48 0 20 -4 23 -34 19 -39 -5 -55 12 -33 36 22 24 38 128 29 187 -6
41 -11 51 -30 53 -24 4 -28 22 -11 54 15 28 3 68 -21 68 -10 0 -22 -9 -25 -20
-7 -22 -20 -26 -30 -10 -13 22 -42 8 -75 -37 -56 -76 -113 -69 -87 11 8 23 7
30 -6 37 -8 5 -18 23 -22 40 -5 23 -10 28 -18 20 -16 -16 -57 -14 -57 3 0 8 6
16 13 19 6 2 21 29 31 58 34 98 11 89 241 89 177 0 205 -2 205 -15z m968 3
c-7 -19 -51 -21 -89 -4 l-34 14 63 1 c47 1 63 -2 60 -11z m1933 -4 c132 -39
266 -149 322 -265 60 -123 57 -40 57 -1640 l0 -1466 -317 -6 c-236 -4 -333
-10 -374 -21 -31 -8 -65 -13 -76 -10 -22 6 -99 -12 -107 -25 -7 -11 21 -106
45 -153 13 -25 26 -38 39 -38 11 0 20 -6 20 -14 0 -19 -37 -27 -44 -10 -5 14
-37 19 -49 8 -3 -4 0 -18 7 -33 8 -14 13 -48 13 -76 -1 -63 25 -110 52 -93 14
8 24 7 44 -7 31 -20 34 -42 10 -83 l-17 -29 -20 41 c-24 46 -34 52 -61 32 -17
-13 -18 -18 -7 -35 16 -27 15 -56 -3 -108 -10 -28 -12 -50 -6 -66 6 -14 5 -30
-1 -41 -5 -9 -7 -24 -4 -31 3 -8 1 -17 -4 -20 -10 -6 -12 10 -14 85 -1 32 -4
35 -28 33 -25 -2 -28 1 -28 31 0 37 -21 61 -45 52 -21 -8 -19 -40 5 -61 26
-24 25 -32 -4 -39 -14 -3 -28 -15 -31 -26 -3 -11 -13 -20 -21 -20 -8 0 -14 -5
-14 -11 0 -5 -4 -7 -10 -4 -15 9 -12 86 4 132 14 39 14 142 1 164 -4 6 -3 21
3 32 6 12 16 50 24 84 15 65 9 93 -19 93 -13 0 -15 9 -9 58 9 83 11 91 24 104
32 32 5 68 -50 68 -28 0 -38 4 -38 16 0 12 8 15 33 12 26 -2 33 1 35 19 4 25
-31 53 -65 53 -34 0 -29 12 27 62 47 43 49 47 40 77 -5 18 -13 38 -18 44 -5 7
-12 27 -16 45 -16 83 -19 94 -33 99 -9 4 -20 -1 -25 -10 -11 -21 -54 -22 -61
-3 -4 9 5 21 19 31 14 9 29 27 34 40 7 17 14 22 29 18 19 -5 21 -1 22 58 2 93
1 138 -1 189 -2 25 1 58 5 73 5 20 2 38 -11 63 -16 30 -17 37 -5 56 27 43 31
75 10 93 -30 28 -50 12 -48 -39 2 -25 -3 -51 -10 -60 -19 -22 -27 -181 -11
-201 14 -17 7 -45 -13 -45 -16 0 -37 55 -37 96 0 50 -39 247 -56 283 -14 30
-14 38 -2 70 13 32 13 40 0 60 -18 27 -35 201 -21 218 7 7 4 29 -7 62 -14 43
-14 54 -3 68 19 22 13 194 -7 206 -18 10 -18 37 0 37 7 0 16 -13 19 -28 3 -15
24 -48 46 -73 23 -24 41 -52 41 -61 0 -10 17 -36 38 -58 l39 -39 13 23 c18 34
5 75 -43 142 -46 63 -77 148 -77 208 0 32 -3 37 -19 31 -14 -4 -27 4 -50 32
-17 21 -31 45 -31 55 0 22 -29 38 -66 35 -23 -2 -30 2 -32 21 -2 12 6 34 18
49 21 26 21 27 2 34 -28 10 -35 47 -11 54 13 4 19 16 19 36 0 31 9 36 28 17
17 -17 15 -38 -4 -38 -9 0 -14 -7 -12 -17 2 -12 13 -18 33 -18 20 0 33 -7 41
-22 6 -13 18 -31 27 -41 10 -10 17 -25 17 -32 0 -7 3 -11 6 -8 3 4 0 32 -8 63
-10 43 -19 60 -35 66 -15 5 -20 14 -16 28 3 12 -3 26 -16 37 -12 10 -21 26
-21 36 0 10 -12 24 -27 32 -35 18 -62 49 -91 103 -18 33 -20 46 -12 68 14 38
12 55 -7 62 -29 10 -63 45 -63 64 0 10 -4 21 -10 24 -5 3 -10 18 -10 32 0 25
-33 81 -57 96 -7 4 -13 16 -13 25 0 10 -5 23 -11 29 -7 7 -9 19 -5 28 5 15 13
13 61 -14 61 -34 69 -37 62 -18 -2 6 2 20 10 29 14 15 13 18 -13 23 -66 15
-95 28 -104 46 -6 10 -17 19 -25 19 -8 0 -30 16 -49 35 -20 19 -44 35 -54 35
-10 0 -33 18 -51 40 -17 22 -37 40 -44 40 -14 0 -145 51 -166 64 -12 8 -11 11
3 22 23 16 14 47 -20 65 -24 12 -28 12 -45 -10 -10 -13 -19 -30 -19 -38 0 -23
-44 -93 -62 -99 -24 -7 -42 4 -30 19 18 23 42 111 42 153 0 51 -15 94 -32 94
-7 0 -19 9 -26 20 -12 20 -10 20 891 20 798 0 910 -2 958 -16z m-2554 -196
c-3 -7 -5 -2 -5 12 0 14 2 19 5 13 2 -7 2 -19 0 -25z m-3097 -61 c0 -8 -9 -22
-19 -31 -11 -10 -22 -28 -25 -41 -3 -13 -15 -27 -26 -30 -13 -4 -20 -15 -20
-30 0 -13 -5 -25 -11 -27 -10 -3 -42 -79 -35 -85 11 -11 70 14 84 36 9 14 27
37 39 51 13 14 23 28 23 32 0 14 21 8 26 -7 4 -10 -11 -34 -40 -65 -25 -27
-46 -56 -46 -64 0 -9 -8 -20 -18 -25 -11 -6 -27 -32 -37 -58 -9 -26 -23 -52
-30 -58 -6 -5 -16 -23 -22 -40 -5 -17 -22 -36 -37 -43 -15 -8 -34 -28 -42 -45
-7 -18 -14 -25 -15 -17 -2 23 2 45 11 50 4 3 7 48 7 100 0 100 -4 86 74 258
10 23 19 49 19 56 0 22 90 96 116 96 14 0 24 -6 24 -13z m1370 -67 c0 -5 -7
-10 -16 -10 -8 0 -12 5 -9 10 3 6 10 10 16 10 5 0 9 -4 9 -10z m2138 -27 c25
-37 32 -57 23 -72 -8 -12 -28 12 -58 68 -16 29 -16 31 1 31 8 0 23 -12 34 -27z
m-2178 -17 c0 -8 -4 -18 -10 -21 -5 -3 -10 3 -10 14 0 12 5 21 10 21 6 0 10
-6 10 -14z m2646 -11 c3 -13 4 -30 1 -37 -3 -7 -6 -1 -6 14 -1 15 -9 32 -18
37 -17 10 -17 10 -1 11 10 0 20 -10 24 -25z m-2532 0 c3 -8 17 -15 31 -15 35
0 33 -33 -5 -77 -16 -18 -30 -44 -30 -56 0 -31 -15 -51 -34 -44 -24 9 -19 44
9 69 17 15 25 32 25 54 0 34 -14 52 -25 34 -10 -17 -25 -11 -25 10 0 10 8 24
18 29 23 14 29 13 36 -4z m2296 -31 c0 -8 -5 -12 -10 -9 -6 4 -8 11 -5 16 9
14 15 11 15 -7z m-2360 -34 c0 -11 -7 -20 -15 -20 -8 0 -15 -7 -15 -15 0 -8
-7 -15 -16 -15 -14 0 -14 1 0 16 9 8 21 24 26 35 14 24 20 24 20 -1z m-445
-170 c3 -5 1 -10 -4 -10 -6 0 -11 5 -11 10 0 6 2 10 4 10 3 0 8 -4 11 -10z
m45 -21 c0 -11 -4 -17 -10 -14 -5 3 -10 13 -10 21 0 8 5 14 10 14 6 0 10 -9
10 -21z m-323 -91 c-3 -8 -6 -5 -6 6 -1 11 2 17 5 13 3 -3 4 -12 1 -19z m-731
-68 c7 -32 20 -31 34 4 7 16 9 8 9 -32 1 -30 -6 -66 -15 -84 -9 -17 -16 -48
-16 -67 0 -20 -6 -47 -13 -61 -12 -23 -14 -23 -21 -7 -4 10 -4 50 -1 87 5 63
4 70 -15 76 -18 5 -19 11 -13 52 10 66 41 85 51 32z m3643 -96 c12 -28 7 -44
-14 -44 -16 0 -31 43 -20 59 10 18 21 13 34 -15z m-4612 -96 c-3 -7 -5 -2 -5
12 0 14 2 19 5 13 2 -7 2 -19 0 -25z m4674 -110 c-8 -30 -9 -28 -9 27 0 50 1
56 9 33 7 -17 7 -38 0 -60z m504 2 c3 -5 1 -10 -4 -10 -6 0 -11 5 -11 10 0 6
2 10 4 10 3 0 8 -4 11 -10z m-5070 -77 c5 -19 2 -23 -14 -23 -18 0 -21 6 -21
37 0 32 2 35 14 23 8 -8 17 -25 21 -37z m4547 -29 c-6 -35 -12 -29 -12 14 0
23 3 32 9 24 4 -7 6 -24 3 -38z m-5196 -95 c-12 -40 -14 -64 -7 -76 11 -22 -8
-53 -34 -53 -15 0 -17 -6 -12 -42 3 -24 9 -44 14 -45 25 -9 35 -23 29 -39 -6
-16 -8 -16 -22 4 -19 27 -51 29 -59 3 -4 -13 -18 -20 -48 -24 -23 -3 -44 -4
-46 -1 -2 2 5 24 17 48 12 24 22 48 22 53 0 6 7 16 15 23 8 7 25 33 37 59 22
44 52 89 83 122 8 9 16 27 16 40 1 19 2 20 6 5 3 -10 -2 -45 -11 -77z m1402
-78 c28 -24 28 -31 -3 -31 -24 0 -51 31 -38 44 10 9 16 7 41 -13z m4536 -35
c-3 -9 -10 -16 -15 -16 -11 0 -12 43 -2 54 10 10 24 -20 17 -38z m-5740 -70
c-17 -13 -17 -18 -7 -45 6 -17 7 -31 2 -31 -5 0 -9 5 -9 10 0 6 -14 10 -31 10
l-30 0 20 26 c12 15 21 31 21 37 0 6 8 19 17 29 17 19 18 19 27 -1 7 -17 5
-25 -10 -35z m5278 -8 c-15 -15 -26 -4 -18 18 5 13 9 15 18 6 9 -9 9 -15 0
-24z m-3712 -39 c0 -5 -7 -9 -15 -9 -8 0 -15 7 -15 15 0 9 6 12 15 9 8 -4 15
-10 15 -15z m-1303 -66 c-3 -10 -5 -4 -5 12 0 17 2 24 5 18 2 -7 2 -21 0 -30z
m1043 -1 c0 -21 -2 -24 -10 -12 -13 20 -13 53 0 45 6 -3 10 -18 10 -33z m267
-49 c-15 -15 -62 22 -65 51 l-4 29 38 -36 c21 -20 35 -39 31 -44z m-1807 5 c0
-6 -7 -7 -16 -4 -9 3 -18 6 -20 6 -2 0 -4 12 -4 28 l1 27 19 -24 c11 -13 20
-28 20 -33z m-130 0 c0 -7 -5 -20 -10 -28 -8 -12 -10 -9 -10 13 0 15 5 27 10
27 6 0 10 -6 10 -12z m1634 -14 c18 -7 21 -30 6 -39 -14 -8 -82 23 -75 35 7
11 45 13 69 4z m-1360 -20 c20 -8 20 -18 1 -37 -17 -17 -55 -11 -55 9 0 7 8
18 18 23 21 13 17 12 36 5z m-294 -136 c0 -31 -15 -45 -24 -23 -9 23 5 80 15
63 5 -7 9 -25 9 -40z m25 -92 c49 -1 60 -4 63 -19 5 -26 -14 -44 -54 -51 -23
-5 -39 -15 -45 -30 -6 -12 -26 -28 -45 -35 -19 -7 -34 -17 -34 -22 0 -5 -4 -9
-9 -9 -6 0 -6 12 -1 29 6 22 4 33 -6 42 -24 20 2 52 36 45 20 -3 30 -1 34 10
8 21 -1 34 -25 34 -10 0 -19 5 -19 11 0 7 8 9 23 4 12 -4 49 -8 82 -9z m3049
-292 c22 -9 20 -31 -5 -44 -16 -9 -18 -14 -8 -26 9 -11 7 -14 -10 -14 -18 0
-21 4 -16 20 4 14 2 20 -8 20 -8 0 -22 11 -31 25 l-16 25 39 0 c22 0 46 -3 55
-6z m-3164 -19 c0 -11 -12 -15 -45 -15 -25 0 -45 4 -45 9 0 5 9 7 19 4 11 -3
28 0 38 6 25 14 33 14 33 -4z m6525 -55 c3 -5 -1 -10 -10 -10 -9 0 -13 5 -10
10 3 6 8 10 10 10 2 0 7 -4 10 -10z m-6338 -6 c-3 -3 -12 -4 -19 -1 -8 3 -5 6
6 6 11 1 17 -2 13 -5z m293 -19 c0 -9 -9 -15 -25 -15 -26 0 -34 15 -12 23 23
10 37 7 37 -8z m2167 -80 c34 -28 70 -47 103 -55 30 -7 54 -20 61 -31 5 -10
15 -19 22 -19 23 0 122 -52 150 -78 21 -20 30 -23 39 -14 14 14 118 16 118 3
0 -5 -6 -11 -12 -14 -22 -8 -3 -17 48 -23 27 -3 58 -10 69 -14 11 -5 34 -11
50 -12 22 -2 30 -8 30 -23 0 -28 36 -31 60 -5 16 18 29 20 144 19 69 -1 116
-4 103 -7 -70 -20 32 -49 111 -32 34 7 54 7 68 -1 11 -6 37 -9 57 -7 l37 3 7
-49 c10 -71 15 -79 42 -72 23 6 25 3 32 -39 5 -40 9 -45 31 -45 26 0 26 0 19
-72 -3 -40 -9 -89 -12 -109 -5 -32 -3 -37 17 -42 12 -3 31 -1 42 4 15 8 23 7
36 -5 13 -14 16 -40 16 -149 0 -73 1 -117 3 -99 2 19 9 32 17 32 8 0 17 12 20
28 10 45 13 55 29 97 l15 40 1 -71 c0 -51 4 -75 15 -84 17 -14 19 -70 5 -177
-8 -58 -6 -89 9 -160 l18 -87 18 57 c13 41 16 75 13 121 -3 36 -1 87 4 113 5
26 10 83 12 127 2 43 9 82 15 85 5 4 15 29 22 56 16 66 42 135 51 135 19 0 18
-51 -1 -91 -16 -33 -21 -62 -21 -125 0 -87 8 -144 20 -144 11 0 28 47 35 98 4
23 13 48 20 56 8 7 17 41 21 74 3 34 12 63 19 66 7 2 16 22 20 43 9 48 15 59
26 42 12 -20 11 -89 -2 -89 -6 0 -3 -7 5 -16 9 -8 16 -28 16 -44 0 -39 20
-133 31 -145 5 -5 9 -25 10 -45 1 -19 4 -46 9 -60 12 -41 18 -6 25 154 6 162
19 242 42 268 13 15 17 15 30 3 8 -8 21 -15 29 -15 13 0 19 -15 26 -65 3 -15
13 -21 46 -26 23 -3 52 -14 64 -26 13 -11 31 -23 41 -26 9 -4 22 -17 28 -30 8
-18 31 -31 90 -50 43 -15 85 -27 93 -27 8 0 22 -10 30 -21 8 -12 25 -27 38
-33 12 -6 42 -40 67 -75 27 -39 56 -68 76 -76 33 -14 55 -50 55 -89 0 -14 10
-30 25 -40 13 -9 29 -33 34 -53 14 -49 14 -53 -2 -53 -7 0 -19 -6 -25 -12 -10
-10 -8 -16 9 -29 32 -24 38 -107 11 -152 -15 -27 -20 -54 -21 -123 -1 -49 -6
-107 -11 -128 -5 -22 -6 -52 -3 -68 4 -21 2 -28 -11 -28 -21 0 -30 -42 -17
-82 12 -36 10 -44 -43 -221 -14 -48 -26 -95 -26 -105 0 -9 -18 -70 -40 -135
-22 -66 -45 -142 -51 -170 -6 -29 -15 -56 -19 -62 -4 -5 -10 -37 -14 -70 -13
-120 -17 -134 -38 -140 -12 -4 -17 -12 -14 -22 10 -25 -14 -54 -61 -74 -25
-11 -50 -18 -55 -17 -6 2 -18 28 -29 58 -10 29 -23 56 -27 59 -5 3 -12 22 -16
41 -6 34 -76 120 -97 120 -5 0 -14 11 -19 25 -6 16 -17 25 -30 25 -12 0 -47
13 -78 30 -60 31 -298 110 -332 110 -11 0 -37 10 -58 23 -20 13 -59 29 -87 37
-27 7 -66 23 -86 36 -19 13 -44 24 -55 24 -11 0 -56 9 -100 21 -56 15 -113 21
-199 22 -137 2 -171 -8 -194 -60 -8 -18 -23 -35 -33 -39 -20 -6 -33 -44 -25
-73 3 -12 -4 -27 -19 -40 -13 -12 -24 -30 -24 -41 0 -33 -35 -60 -79 -60 -37
0 -43 -4 -75 -52 -46 -70 -91 -112 -110 -105 -19 7 -71 -56 -63 -76 3 -9 29
-16 69 -20 55 -5 65 -4 77 13 7 11 20 20 27 20 17 0 17 -1 5 -33 -8 -20 -19
-25 -60 -31 -41 -5 -51 -10 -51 -26 0 -10 5 -22 10 -25 13 -8 -38 -58 -60 -60
-28 -2 -60 -26 -60 -44 0 -10 13 -36 29 -58 17 -24 31 -57 33 -78 3 -33 7 -39
38 -49 30 -10 35 -16 42 -52 9 -56 51 -137 81 -157 13 -8 30 -29 36 -46 14
-32 40 -48 51 -30 13 21 45 4 63 -34 9 -20 23 -37 31 -37 8 0 20 -13 28 -30
11 -26 18 -30 53 -30 33 -1 37 -2 22 -11 -28 -16 -2 -41 39 -37 18 2 33 -1 33
-7 0 -5 -9 -9 -20 -8 -11 2 -19 -3 -19 -12 0 -10 10 -15 30 -15 17 0 30 -4 30
-8 0 -4 8 -8 18 -8 9 0 39 -4 66 -8 38 -6 47 -5 44 6 -3 7 -24 16 -49 19 -28
4 -13 6 41 4 47 -1 112 -10 145 -19 33 -9 73 -18 88 -21 18 -4 25 -10 21 -17
-4 -7 12 -28 40 -52 43 -38 47 -46 53 -97 5 -49 3 -58 -21 -86 -17 -20 -26
-43 -26 -66 0 -32 -8 -41 -92 -109 -111 -89 -247 -188 -259 -188 -13 0 -133
-83 -147 -102 -7 -10 -21 -18 -32 -18 -10 0 -36 -15 -59 -32 -75 -61 -96 -75
-128 -91 -17 -10 -54 -39 -81 -67 -27 -27 -55 -50 -62 -50 -27 0 -162 -126
-187 -175 -9 -16 -19 -32 -22 -35 -3 -3 -18 -21 -32 -40 -15 -19 -39 -48 -53
-64 -15 -15 -29 -40 -32 -55 -6 -26 -71 -81 -98 -81 -18 0 -33 -20 -38 -50 -2
-20 -10 -26 -33 -28 -34 -3 -55 -29 -65 -77 -5 -24 -11 -31 -35 -33 -21 -2
-38 -14 -57 -41 -23 -32 -35 -39 -75 -45 -46 -6 -103 -45 -103 -71 0 -17 -63
-61 -68 -47 -2 7 -19 12 -38 12 -38 0 -54 -21 -35 -44 19 -22 -26 -65 -89 -86
-45 -15 -56 -23 -58 -43 -3 -22 -9 -25 -65 -32 -34 -3 -74 -9 -90 -12 -25 -5
-26 -7 -10 -18 28 -21 1 -42 -61 -47 -38 -3 -68 -14 -102 -36 -27 -17 -61 -34
-76 -37 -14 -4 -28 -14 -31 -24 -2 -10 -23 -22 -48 -30 -24 -7 -58 -21 -75
-32 -16 -10 -57 -25 -90 -34 -32 -8 -70 -24 -84 -35 -50 -40 -87 -53 -195 -71
-60 -11 -119 -23 -130 -28 -11 -5 -46 -12 -79 -15 -32 -4 -66 -11 -76 -16 -24
-13 -103 -13 -116 0 -5 5 -39 13 -74 16 -36 3 -78 11 -95 18 -16 8 -61 23
-100 35 -107 34 -155 60 -212 113 -28 26 -61 48 -72 48 -12 0 -21 6 -21 13 0
6 -13 19 -29 28 -15 9 -39 36 -52 59 -13 24 -36 51 -50 59 -63 38 -180 188
-224 287 -15 34 -32 58 -44 61 -12 3 -25 20 -31 38 -6 18 -21 40 -34 49 -14 8
-26 29 -30 49 -4 19 -17 51 -30 70 -13 19 -29 52 -36 73 -16 49 -28 64 -51 64
-13 0 -20 10 -24 38 -3 20 -14 55 -25 77 -10 22 -30 68 -44 103 -14 35 -36 76
-50 92 -13 16 -29 45 -35 63 -7 21 -21 37 -37 43 -20 7 -35 29 -65 99 -21 50
-39 104 -39 120 0 17 -13 57 -30 90 -16 33 -30 68 -30 78 0 9 -4 25 -9 35 -14
27 -41 147 -41 181 0 16 -4 33 -10 36 -5 3 -10 22 -10 41 0 19 -10 60 -21 92
-25 65 -39 214 -39 419 -1 101 5 160 24 255 13 68 27 140 31 161 3 21 17 71
31 110 13 40 24 86 24 102 0 17 7 40 15 51 8 12 24 59 36 105 12 46 30 101 40
121 11 21 19 47 19 59 0 12 9 36 20 54 11 18 21 56 24 91 2 32 5 62 5 67 1 4
10 7 21 7 11 0 20 6 20 14 0 7 12 31 27 52 14 21 35 62 46 89 10 28 25 57 32
65 32 36 125 234 150 321 15 52 41 120 56 151 16 32 29 66 29 77 0 11 5 23 11
27 6 3 19 27 30 52 11 25 35 66 54 91 18 26 39 66 47 89 7 23 16 42 19 42 20
0 76 76 111 149 22 47 59 107 83 135 23 28 46 65 49 83 4 17 18 43 31 57 13
14 27 42 31 61 3 19 11 35 18 35 6 0 24 12 39 26 23 21 26 28 15 41 -10 13 -8
18 11 34 13 11 30 19 38 19 8 0 27 9 42 19 31 22 106 51 134 51 10 0 20 -7 23
-15 8 -19 38 -19 53 -1 10 11 7 18 -11 31 -22 17 -21 17 40 11 75 -7 116 7
154 53 28 33 64 41 87 19 10 -11 17 -8 35 15 17 22 30 27 63 27 36 0 44 4 55
28 12 24 19 27 66 29 47 3 54 0 64 -22 13 -28 30 -32 48 -10 7 8 23 15 36 15
13 0 24 2 24 4 0 2 3 13 6 23 6 15 4 16 -7 6 -7 -7 -36 -13 -64 -13 l-50 0 33
28 c33 29 34 29 79 14 51 -17 44 -21 96 53 16 22 24 25 52 19 27 -5 34 -2 39
14 5 14 13 18 26 15 13 -3 22 1 26 12 5 11 14 15 29 11 15 -4 28 1 40 14 10
11 23 20 30 20 6 0 22 11 35 26 16 17 31 23 45 20 14 -4 32 5 58 29 20 19 37
38 37 43 0 16 29 22 53 11 20 -9 31 -6 68 18 27 18 81 38 139 52 52 13 100 27
107 33 6 5 56 14 109 19 54 6 101 13 104 16 3 3 48 2 100 -2 93 -6 96 -7 147
-50z m436 -36 c-18 -17 -78 -20 -98 -5 -20 15 -19 15 5 16 14 0 31 4 39 9 16
10 66 -8 54 -20z m282 -159 c-3 -5 -15 -10 -25 -10 -10 0 -22 5 -25 10 -4 6 7
10 25 10 18 0 29 -4 25 -10z m-1865 -48 c0 -13 -12 -22 -22 -16 -10 6 -1 24
13 24 5 0 9 -4 9 -8z m2201 -17 c0 -6 -10 -12 -23 -13 -19 -4 -20 -2 -9 12 15
17 33 18 32 1z m2852 -98 c-3 -5 -10 -4 -15 1 -6 6 -7 16 -3 22 6 9 9 9 16 -1
4 -7 5 -17 2 -22z m-253 -41 c0 -3 -4 -8 -10 -11 -5 -3 -10 -1 -10 4 0 6 5 11
10 11 6 0 10 -2 10 -4z m440 -91 c0 -28 -4 -35 -19 -35 -26 0 -34 15 -27 46 4
15 14 24 26 24 16 0 20 -7 20 -35z m-394 -110 c-7 -5 -18 -20 -25 -32 -14 -27
-29 -30 -38 -7 -3 9 5 26 21 43 14 15 26 34 26 42 1 8 7 3 15 -11 11 -20 12
-27 1 -35z m-7466 25 c0 -11 -7 -20 -15 -20 -13 0 -14 4 -5 20 6 11 13 20 15
20 3 0 5 -9 5 -20z m7522 -35 c10 -23 8 -29 -15 -52 -31 -31 -45 -25 -29 12 7
14 12 35 12 45 0 28 18 25 32 -5z m255 -37 c-3 -8 -6 -5 -6 6 -1 11 2 17 5 13
3 -3 4 -12 1 -19z m-317 -63 c0 -8 -4 -15 -10 -15 -5 0 -7 7 -4 15 4 8 8 15
10 15 2 0 4 -7 4 -15z m-1430 -11 c0 -8 -5 -12 -10 -9 -6 4 -8 11 -5 16 9 14
15 11 15 -7z m1392 -28 c3 -31 2 -33 -14 -25 -19 10 -21 18 -12 43 10 26 22
18 26 -18z m-6288 -11 c-4 -8 -18 -18 -33 -21 -14 -2 -43 -10 -64 -15 -22 -6
-41 -8 -43 -6 -12 11 31 37 61 37 19 0 37 5 40 10 10 17 45 12 39 -5z m-157
-62 c5 -13 -25 -26 -38 -17 -6 3 -5 11 2 20 13 16 31 14 36 -3z m6353 -27 c0
-24 -32 -88 -57 -114 -17 -18 -16 -38 3 -67 19 -29 12 -58 -20 -75 -13 -7 -26
-25 -30 -41 -5 -25 -8 -27 -40 -22 -29 4 -35 2 -41 -16 -5 -18 -9 -20 -21 -10
-8 7 -12 19 -9 28 4 9 8 26 10 39 1 12 10 31 19 41 10 10 19 36 21 57 5 60 21
90 61 121 21 15 49 40 63 54 33 34 41 35 41 5z m-6500 -110 c0 -9 -40 -13 -46
-5 -3 5 6 9 20 9 14 0 26 -2 26 -4z m6497 -28 c-3 -8 -6 -5 -6 6 -1 11 2 17 5
13 3 -3 4 -12 1 -19z m1498 -68 c3 -5 18 -11 33 -11 23 -1 23 -2 5 -6 -12 -2
-27 -11 -33 -19 -14 -16 -76 -19 -85 -5 -6 11 41 51 61 51 7 0 16 -4 19 -10z
m-1920 -10 c3 -5 1 -10 -4 -10 -6 0 -11 5 -11 10 0 6 2 10 4 10 3 0 8 -4 11
-10z m92 -67 c10 -25 43 -50 76 -57 18 -4 27 -12 27 -25 0 -20 -29 -32 -57
-24 -21 6 -93 92 -93 110 0 20 40 15 47 -4z m97 1 c9 -22 -1 -33 -24 -27 -26
7 -27 43 -1 43 10 0 22 -7 25 -16z m1216 -153 c0 -5 -9 -7 -20 -4 -11 3 -20 7
-20 9 0 2 9 4 20 4 11 0 20 -4 20 -9z m-1153 -77 c-3 -3 -12 -4 -19 -1 -8 3
-5 6 6 6 11 1 17 -2 13 -5z m694 -65 c29 -15 7 -39 -35 -38 -17 0 -59 -2 -94
-6 -43 -4 -61 -2 -57 5 3 5 19 10 34 10 15 0 31 4 37 10 5 5 25 12 42 14 18 2
36 6 39 10 8 8 11 8 34 -5z m-818 -36 c7 -6 -40 -43 -55 -43 -10 0 -10 34 -1
43 8 9 48 9 56 0z m-13 -115 c11 -18 20 -40 20 -50 0 -9 5 -18 11 -20 6 -2 10
-12 8 -22 -4 -17 -6 -17 -31 3 -35 28 -71 88 -64 106 9 25 35 17 56 -17z
m1330 17 c10 -12 10 -15 -3 -15 -8 0 -22 -3 -31 -6 -12 -4 -16 0 -16 15 0 25
31 29 50 6z m-1290 -176 c0 -20 -21 -49 -35 -49 -18 0 -18 2 -3 35 11 25 38
35 38 14z m983 -36 c4 -3 3 -11 -2 -17 -17 -23 -19 -56 -4 -65 12 -6 14 -17
10 -40 l-6 -31 177 6 c97 3 226 9 286 14 60 5 112 7 117 5 4 -3 11 -1 14 5 4
7 37 10 81 8 41 -1 78 2 84 8 5 5 54 8 109 6 l101 -3 0 -1002 0 -1002 -97 4
c-145 5 -766 -29 -807 -45 -8 -3 -16 -15 -18 -27 -2 -14 -14 -24 -35 -29 -23
-6 -33 -14 -33 -28 0 -13 -7 -20 -19 -20 -21 0 -31 19 -31 61 0 32 -29 43 -31
12 0 -15 -2 -14 -9 3 -4 12 -15 24 -24 27 -12 5 -16 21 -16 70 0 35 -5 68 -11
74 -35 35 -25 140 13 127 16 -5 18 1 18 68 -1 45 -6 80 -14 91 -19 25 -27 419
-11 580 7 68 6 77 -9 77 -23 0 -78 29 -93 49 -27 35 -12 41 31 12 56 -39 75
-28 76 44 0 28 1 64 1 80 2 60 1 101 -5 170 -4 51 -1 91 13 147 10 42 15 81
11 85 -12 14 6 151 24 178 18 28 30 162 15 171 -17 10 -9 35 15 45 17 8 26 22
30 50 5 29 11 39 24 39 10 0 22 -3 25 -7z m-956 -50 c-3 -3 -11 -2 -17 2 -9 6
-9 10 1 16 14 8 27 -7 16 -18z m883 18 c0 -5 -9 -11 -20 -14 -20 -5 -26 3 -13
16 9 10 33 8 33 -2z m213 -47 c11 -11 -3 -24 -18 -18 -8 4 -12 10 -9 15 6 11
18 12 27 3z m-7889 -239 c2 -7 -2 -19 -10 -25 -21 -18 -47 5 -34 31 11 19 35
16 44 -6z m184 -41 c-8 -7 -88 -8 -95 0 -4 3 18 6 47 6 29 0 51 -3 48 -6z
m-60 -118 c-4 -26 -27 -28 -42 -3 -8 13 -8 20 3 26 21 14 42 1 39 -23z m-2048
15 c0 -12 -28 -22 -34 -12 -3 5 -3 11 1 15 9 9 33 7 33 -3z m8700 -36 c0 -19
-4 -35 -10 -35 -11 0 -13 30 -4 54 10 25 14 19 14 -19z m-6700 -210 l23 -25
-30 0 c-30 0 -50 21 -37 41 9 14 19 11 44 -16z m-67 9 c12 -12 -6 -34 -29 -34
-23 0 -32 18 -17 33 8 9 38 9 46 1z m-2973 -24 c0 -9 -31 -30 -44 -30 -12 0
-6 28 7 33 20 9 37 8 37 -3z m1000 -44 c-14 -14 -24 0 -16 21 6 15 8 15 16 3
6 -9 5 -19 0 -24z m8773 -18 c9 -5 17 -13 17 -18 0 -13 -27 -13 -35 0 -3 6
-19 10 -36 10 -28 0 -37 9 -23 23 8 7 49 -1 77 -15z m-8903 8 c0 -3 -4 -8 -10
-11 -5 -3 -10 -1 -10 4 0 6 5 11 10 11 6 0 10 -2 10 -4z m8820 -56 c4 -27 10
-35 25 -35 30 0 45 -13 45 -40 0 -15 -7 -26 -21 -30 -16 -5 -20 -13 -16 -33 6
-34 25 -89 44 -124 12 -24 12 -32 -1 -60 -8 -18 -17 -48 -20 -65 -3 -18 -15
-53 -26 -77 -11 -25 -20 -66 -20 -92 0 -59 -26 -201 -50 -279 -11 -33 -19 -84
-18 -113 1 -29 -4 -58 -10 -64 -9 -9 -12 -7 -12 10 0 12 -4 22 -10 22 -5 0
-10 -12 -10 -28 0 -15 -11 -39 -25 -55 -20 -21 -22 -27 -10 -27 14 0 16 -7 10
-42 -4 -24 -16 -58 -26 -77 -14 -26 -15 -39 -8 -60 28 -74 137 -277 189 -351
33 -47 76 -116 96 -155 33 -65 35 -74 30 -137 -5 -59 -30 -134 -72 -217 -10
-18 -9 -33 2 -70 31 -104 10 -172 -88 -273 -39 -40 -82 -90 -95 -110 -14 -21
-35 -40 -47 -44 -38 -12 -66 -45 -66 -81 0 -84 -69 -203 -118 -203 -9 0 -28
-9 -42 -20 -34 -26 -91 -26 -115 0 -25 28 -69 23 -73 -7 -2 -13 1 -23 7 -23 6
0 11 -11 11 -25 0 -19 -5 -25 -23 -25 -15 0 -29 -11 -41 -32 -17 -28 -20 -29
-31 -15 -15 21 -51 22 -59 2 -3 -10 -19 -15 -42 -15 -26 0 -37 -5 -41 -17 -2
-10 -15 -26 -29 -36 -24 -18 -25 -18 -53 12 -20 21 -34 28 -50 24 -11 -3 -21
-9 -21 -14 0 -5 -4 -9 -10 -9 -22 0 -8 17 31 38 23 12 50 20 62 17 30 -7 52 9
43 30 -5 14 -14 16 -43 12 -20 -4 -41 -13 -45 -22 -5 -8 -20 -15 -33 -15 -13
0 -38 -13 -56 -30 -41 -37 -90 -61 -139 -67 -29 -4 -39 -11 -48 -36 -9 -25
-14 -28 -26 -18 -22 18 -26 -24 -7 -74 31 -83 81 -143 81 -97 0 23 19 42 42
42 10 0 18 5 18 11 0 5 5 7 11 3 6 -3 9 -24 7 -45 -2 -26 1 -39 8 -39 8 0 13
-16 13 -42 0 -24 1 -50 1 -58 1 -8 -1 -33 -5 -55 -6 -38 -6 -39 10 -20 17 21
59 22 84 2 17 -15 8 -87 -13 -99 -24 -13 -19 -40 15 -88 17 -24 38 -57 46 -74
40 -87 176 -286 233 -341 129 -123 130 -125 124 -165 -7 -41 -2 -49 164 -260
45 -58 97 -125 116 -150 106 -138 216 -274 276 -340 38 -41 79 -89 92 -107 56
-78 313 -377 414 -482 61 -64 130 -138 153 -166 73 -86 142 -145 171 -145 34
0 58 19 62 50 2 19 8 24 23 21 38 -9 190 -4 243 8 29 6 111 11 181 11 l128 0
37 56 c32 47 37 62 31 90 -7 40 -18 43 -33 9 -16 -34 -38 -31 -45 5 -8 39 -44
42 -53 5 -9 -34 -20 -31 -28 8 -6 27 -8 29 -17 15 -5 -10 -16 -18 -24 -18 -8
0 -19 -9 -25 -20 -13 -25 -36 -25 -83 -2 -28 14 -34 21 -25 30 13 13 -13 26
-76 37 -71 14 -33 49 46 43 44 -3 64 16 29 27 -17 5 -20 12 -15 33 10 41 14
43 37 27 13 -9 44 -15 77 -15 54 0 56 -1 65 -32 14 -45 29 -45 56 -1 23 36 23
37 29 13 8 -32 44 -34 48 -3 2 12 10 24 18 27 16 6 24 -10 43 -82 12 -44 30
-54 70 -40 30 11 41 -3 41 -55 0 -21 5 -47 10 -58 10 -17 5 -20 -49 -35 -48
-14 -60 -21 -64 -40 l-4 -24 111 0 111 0 2 43 c0 23 2 61 2 85 1 23 -3 59 -9
80 -10 35 2 138 25 207 9 30 -33 87 -73 99 -25 7 -40 5 -67 -10 -31 -17 -38
-17 -67 -4 -38 16 -108 16 -139 0 -28 -16 -14 -27 46 -37 l50 -9 -95 -11 c-52
-6 -96 -8 -98 -3 -1 4 -9 16 -17 26 -13 18 -15 16 -31 -23 -17 -44 -31 -52
-51 -32 -8 8 -9 16 -1 29 20 31 3 50 -46 50 -30 0 -46 5 -50 15 -12 33 -25 12
-24 -38 2 -61 -5 -77 -33 -77 -22 0 -23 8 -9 45 8 22 5 30 -24 63 -27 29 -32
41 -25 55 12 21 37 22 59 2 14 -13 31 -13 121 -3 96 11 243 15 364 9 59 -2
286 14 333 24 l32 8 0 -331 0 -331 -137 6 c-75 3 -227 0 -338 -6 -110 -6 -273
-13 -362 -15 -90 -3 -167 -7 -173 -11 -5 -3 -10 -17 -10 -31 0 -26 42 -70 86
-89 13 -6 41 -35 63 -63 21 -29 42 -48 45 -43 5 7 87 10 226 11 222 0 284 4
331 21 16 6 41 6 69 0 41 -9 82 -3 183 25 16 5 17 -20 17 -420 0 -234 -3 -426
-7 -426 -5 0 -23 10 -42 23 -19 12 -53 34 -75 49 -23 15 -65 39 -95 54 -46 23
-58 25 -87 16 -33 -10 -34 -9 -34 17 0 18 -12 39 -36 62 -19 18 -54 59 -76 89
-23 30 -49 62 -57 70 -9 8 -31 39 -49 68 -41 68 -94 132 -108 132 -6 0 -29 26
-50 57 -57 83 -66 93 -90 93 -12 0 -25 6 -28 13 -3 6 -5 3 -3 -8 1 -11 -2 -26
-6 -32 -10 -16 0 -33 19 -33 8 0 14 -5 14 -11 0 -6 14 -24 30 -39 17 -15 30
-35 30 -44 0 -13 -4 -13 -30 2 -16 9 -30 23 -30 30 0 19 -31 27 -41 11 -6 -11
-14 -7 -37 19 -35 39 -56 40 -104 7 -20 -14 -43 -25 -50 -25 -33 0 -301 -195
-387 -281 -25 -25 -66 -60 -91 -79 -58 -44 -114 -95 -220 -200 -47 -47 -106
-98 -132 -113 -26 -15 -53 -33 -60 -40 -7 -7 -28 -23 -47 -36 -18 -13 -49 -40
-68 -60 -96 -102 -126 -152 -133 -221 -6 -66 -11 -68 -153 -69 -54 -1 -107 -6
-118 -12 -31 -16 -126 -39 -164 -39 -19 0 -36 -4 -40 -9 -3 -5 -34 -19 -69
-31 -35 -11 -72 -30 -81 -40 -20 -22 -24 -23 -43 -12 -10 7 -10 15 -2 37 8 22
7 36 -10 69 -11 23 -20 51 -20 63 0 24 16 79 34 113 7 14 16 37 20 53 3 15 11
27 16 27 6 0 14 10 19 23 11 27 100 148 147 199 19 20 34 42 34 48 0 5 7 10
15 10 8 0 15 5 15 10 0 6 -13 4 -30 -5 -36 -19 -40 -19 -40 -1 0 19 104 134
193 212 6 6 22 23 34 38 41 48 -2 29 -94 -41 -48 -36 -90 -69 -93 -72 -3 -3
-23 -19 -45 -36 -22 -16 -54 -43 -71 -60 -17 -16 -56 -48 -86 -69 -30 -22 -68
-58 -84 -80 -16 -22 -45 -58 -65 -80 -20 -23 -41 -50 -48 -61 -10 -17 -11 -11
-7 35 3 34 2 50 -3 41 -8 -12 -12 -12 -24 -3 -19 16 -28 50 -16 58 15 9 10 36
-10 58 -20 22 -51 107 -51 139 0 10 -6 31 -14 45 -8 15 -22 47 -31 72 -9 25
-21 53 -26 62 -5 10 -9 34 -9 53 0 20 -10 61 -21 93 -12 31 -27 80 -35 107 -8
28 -22 57 -32 65 -11 9 -22 29 -24 45 -6 34 -23 81 -50 141 -10 22 -18 44 -18
48 0 4 -14 25 -31 46 -23 28 -32 51 -34 84 -2 26 -8 53 -15 61 -6 7 -14 39
-17 69 -4 36 -12 61 -24 72 -11 10 -19 27 -19 40 0 13 -6 27 -13 31 -17 10
-37 67 -37 104 0 17 -10 39 -22 52 -13 12 -23 27 -23 32 0 6 -8 9 -18 9 -21
-2 -22 25 -2 52 16 21 20 64 6 64 -10 0 -101 86 -101 95 0 4 7 13 15 21 18 18
12 49 -21 116 -13 26 -24 53 -24 61 0 7 -11 20 -25 27 -14 7 -25 18 -25 23 0
5 -8 16 -17 23 -17 12 -17 14 -2 41 13 21 14 33 6 51 -5 12 -13 22 -17 22 -18
0 -70 60 -70 80 0 28 -58 162 -76 176 -8 6 -17 26 -20 45 -4 19 -17 52 -29 74
-13 22 -25 52 -29 67 -3 15 -15 29 -26 33 -10 3 -29 25 -40 48 -12 23 -34 57
-50 75 l-28 33 -6 -25 c-3 -14 -11 -26 -17 -26 -16 0 -27 42 -18 72 8 28 0 39
-33 51 -9 3 -22 23 -28 44 -5 21 -24 58 -40 82 -17 24 -30 48 -30 53 0 4 -8 8
-18 8 -29 0 -172 169 -172 204 0 9 -13 18 -35 22 -24 4 -35 12 -35 23 0 10 -3
21 -7 25 -5 4 -8 29 -8 54 0 41 -3 47 -25 52 -17 4 -26 14 -28 30 -2 14 -12
30 -21 37 -10 6 -32 44 -51 84 -25 55 -35 92 -40 158 -9 102 -7 135 16 260 14
73 15 100 6 125 -6 17 -16 70 -23 117 -11 83 -11 88 16 160 15 41 30 99 32
129 3 30 13 66 23 80 10 14 28 49 40 78 15 35 28 52 40 52 12 0 20 11 24 34 5
24 13 36 29 40 13 3 58 40 101 81 47 46 90 78 107 82 16 3 31 13 34 23 3 9 16
22 29 28 13 6 32 24 41 39 9 16 30 36 47 46 16 9 32 26 35 37 3 11 26 31 52
46 43 25 62 40 159 120 20 18 64 46 97 64 33 18 76 45 96 61 46 36 124 74 264
129 162 63 254 100 312 126 28 13 57 24 63 24 29 0 122 33 155 56 20 13 43 24
52 24 14 0 14 2 -1 19 -23 25 -14 54 22 68 24 10 25 11 5 12 -12 1 -25 -3 -28
-9 -3 -5 -15 -10 -27 -10 -25 0 -21 10 27 85 19 31 35 59 35 63 0 4 9 13 20
20 25 16 26 39 0 47 -10 3 -30 19 -44 36 l-25 29 -18 -25 c-51 -73 -52 -73
-107 -80 l-54 -7 5 -53 c4 -33 1 -55 -6 -59 -6 -4 -11 -15 -11 -25 0 -30 -36
-67 -80 -80 -38 -11 -42 -11 -61 11 -14 17 -18 31 -13 53 4 17 6 43 6 60 -1
16 5 39 13 52 8 12 15 40 15 61 0 22 6 45 14 52 11 8 12 18 6 36 -8 20 -3 34
32 84 24 36 48 60 59 60 11 0 19 9 21 23 2 14 16 29 39 40 22 10 42 30 49 47
10 23 19 30 40 30 26 0 46 22 41 44 -1 5 1 16 4 24 4 10 12 5 29 -21 13 -19
26 -42 28 -51 2 -11 8 -8 20 14 16 28 16 30 -3 54 -10 13 -19 30 -18 38 0 7
27 36 59 63 36 31 57 56 55 65 -3 8 4 21 16 28 17 11 29 10 72 -4 41 -13 68
-34 128 -94 l76 -77 31 28 c17 15 32 40 34 56 4 33 35 44 54 19 8 -12 9 -27 2
-54 -24 -93 -30 -144 -19 -155 8 -8 11 0 11 31 0 23 4 42 10 42 5 0 12 17 16
38 8 48 30 72 64 72 26 0 27 2 28 53 0 101 0 101 17 87 17 -14 17 -14 20 59 1
26 8 49 17 55 8 6 18 21 22 34 4 12 11 22 16 22 5 0 24 29 41 65 17 36 35 67
39 70 4 2 10 23 14 45 5 31 11 41 30 46 14 3 32 15 42 25 26 29 48 20 54 -21z
m-2287 13 c2 -10 8 -26 12 -35 6 -15 2 -18 -24 -18 -29 0 -31 3 -31 35 0 28 4
35 19 35 10 0 21 -8 24 -17z m108 -110 c8 -20 12 -23 24 -13 8 6 18 10 22 7 4
-3 26 -8 47 -11 29 -5 44 -2 57 10 23 21 79 12 104 -16 12 -14 14 -20 5 -20
-10 0 -10 -3 0 -15 6 -7 33 -17 58 -21 26 -3 53 -11 59 -16 7 -6 29 -7 50 -3
73 13 212 17 230 5 15 -9 11 -10 -19 -8 -41 3 -69 -15 -52 -32 7 -7 24 -6 53
5 56 19 74 19 147 -4 32 -10 93 -26 134 -36 41 -10 91 -26 110 -35 39 -20 100
-94 100 -121 0 -10 4 -20 9 -23 14 -9 -4 -70 -30 -108 -38 -54 -115 -125 -143
-132 -16 -4 -23 -11 -20 -20 10 -26 -28 -28 -55 -2 -14 13 -37 27 -51 31 -14
4 -37 22 -52 39 -14 18 -58 54 -97 80 -39 26 -73 51 -76 56 -4 6 -13 10 -21
10 -15 0 -114 61 -150 92 -35 31 -97 58 -132 58 -18 0 -46 7 -62 15 -16 8 -58
19 -93 24 -35 5 -87 21 -115 35 -28 14 -58 26 -67 26 -18 0 -20 31 -3 48 7 7
10 12 8 12 -93 2 -227 13 -233 19 -5 5 -7 19 -5 32 2 20 11 25 48 32 25 5 59
12 75 16 17 4 52 8 78 9 43 1 49 -2 58 -25z m414 -63 c-3 -5 -13 -10 -21 -10
-8 0 -14 5 -14 10 0 6 9 10 21 10 11 0 17 -4 14 -10z m1365 -275 c0 -8 -4 -17
-10 -20 -6 -4 -10 5 -10 20 0 15 4 24 10 20 6 -3 10 -12 10 -20z m-1380 5 c9
0 39 -16 69 -35 29 -19 61 -35 70 -35 20 0 76 -65 91 -106 6 -15 8 -42 6 -60
-4 -23 -1 -34 9 -38 8 -3 15 -12 15 -20 0 -12 -5 -14 -25 -6 -21 8 -45 30
-102 91 -38 42 -118 109 -143 119 -20 8 -29 18 -27 33 1 14 -4 20 -20 22 -13
1 -26 5 -30 9 -12 12 30 37 52 32 11 -3 27 -6 35 -6z m-850 -104 c0 -3 -4 -8
-10 -11 -5 -3 -10 -1 -10 4 0 6 5 11 10 11 6 0 10 -2 10 -4z m0 -91 c0 -26
-14 -33 -25 -15 -9 14 1 40 15 40 5 0 10 -11 10 -25z m854 -74 c3 -5 7 -38 10
-75 3 -62 2 -67 -22 -85 -23 -16 -24 -21 -13 -35 23 -27 -43 -21 -76 8 l-27
24 46 44 c37 34 49 54 54 86 6 40 17 52 28 33z m-6894 -72 c0 -12 -7 -19 -20
-19 -14 0 -20 7 -20 23 0 13 3 27 7 30 10 11 33 -13 33 -34z m260 -99 c0 -11
-8 -24 -17 -27 -10 -4 -21 -11 -25 -17 -4 -6 -8 0 -8 15 0 27 16 49 37 49 7 0
13 -9 13 -20z m-262 -1202 c2 -9 -4 -32 -12 -52 -18 -43 -55 -49 -80 -14 -20
27 -23 79 -4 60 20 -20 59 -15 65 8 6 23 26 22 31 -2z m-151 -20 c-3 -8 -6 -5
-6 6 -1 11 2 17 5 13 3 -3 4 -12 1 -19z m274 -41 c-13 -13 -26 -3 -16 12 3 6
11 8 17 5 6 -4 6 -10 -1 -17z m1989 -394 c1 -11 79 -68 92 -68 6 0 18 -20 26
-45 8 -25 19 -56 26 -70 13 -29 79 -68 115 -69 24 -1 24 -2 6 -15 -17 -13 -18
-19 -7 -78 7 -36 12 -79 12 -96 0 -35 12 -46 40 -37 16 5 18 12 13 37 -5 28
-4 31 13 24 10 -5 33 -12 50 -17 22 -6 37 -20 48 -44 10 -19 21 -35 26 -35 4
0 21 -13 37 -30 15 -16 32 -30 37 -30 19 0 46 -34 46 -58 0 -14 -8 -34 -17
-45 -18 -19 -17 -19 23 -13 40 7 41 7 41 -25 0 -34 33 -68 66 -69 19 0 107
-83 107 -101 0 -5 16 -17 35 -25 26 -10 35 -20 35 -38 0 -29 36 -76 58 -76 28
0 126 -79 136 -108 21 -65 30 -84 48 -107 11 -14 29 -25 40 -25 16 0 18 -3 9
-13 -6 -8 -8 -17 -4 -21 4 -4 1 -11 -6 -16 -11 -6 -7 -12 16 -23 34 -18 55
-69 57 -140 0 -25 8 -53 17 -63 23 -28 37 -73 38 -127 0 -26 5 -55 10 -64 5
-11 4 -28 -5 -50 -13 -29 -13 -34 1 -39 8 -4 15 -17 15 -30 0 -13 5 -24 10
-24 6 0 15 -10 21 -22 15 -34 35 -68 48 -81 17 -17 13 -41 -9 -70 -11 -14 -20
-38 -20 -54 0 -56 -9 -69 -57 -81 -45 -12 -45 -13 -40 -47 7 -44 -20 -80 -71
-96 -39 -12 -85 -60 -64 -67 7 -2 12 -10 12 -17 0 -11 -5 -11 -27 1 -46 23
-113 12 -141 -24 -8 -11 -15 -13 -20 -6 -10 15 -103 42 -125 36 -12 -3 -17
-11 -14 -23 3 -10 -2 -20 -10 -23 -27 -11 -72 -6 -80 8 -4 8 -29 20 -55 27
-41 11 -52 11 -83 -4 -20 -9 -42 -17 -49 -17 -17 0 -26 -22 -26 -65 0 -55 31
-65 97 -33 17 8 33 8 62 0 21 -7 52 -12 70 -12 17 0 31 -4 31 -9 0 -5 17 -12
38 -15 59 -11 72 -16 72 -31 0 -8 -6 -18 -13 -22 -8 -5 -19 -46 -27 -100 -7
-51 -16 -93 -20 -93 -14 0 -30 26 -36 59 -4 17 -11 34 -15 37 -5 3 -9 18 -9
34 0 16 -4 32 -10 35 -6 4 -11 -20 -12 -64 -1 -39 -2 -79 -2 -88 -1 -14 8 -19
35 -21 41 -3 42 -5 55 -132 8 -74 14 -86 62 -106 44 -18 41 -19 53 13 l10 26
33 -36 c22 -24 43 -37 59 -37 20 0 27 -6 32 -28 3 -16 1 -41 -5 -56 -5 -15
-10 -60 -10 -100 0 -67 -2 -74 -28 -93 -37 -28 -57 -100 -34 -126 15 -16 15
-20 -1 -46 -9 -16 -17 -34 -17 -40 0 -16 33 -14 56 4 10 8 29 15 42 15 18 0
22 -5 22 -31 0 -26 -5 -33 -38 -46 -33 -13 -38 -18 -34 -40 3 -13 12 -27 21
-31 12 -5 10 -7 -9 -12 -14 -3 -29 -16 -35 -28 -5 -12 -17 -24 -25 -27 -8 -3
-28 -17 -43 -31 -30 -27 -30 -31 -6 -127 11 -42 30 -45 39 -6 6 25 40 34 47
12 4 -12 -56 -83 -70 -83 -5 0 -16 9 -26 21 -17 21 -17 21 -44 -20 -15 -23
-32 -53 -37 -66 -5 -14 -16 -25 -23 -25 -8 0 -22 -9 -32 -20 -16 -17 -20 -18
-27 -6 -7 12 -13 12 -46 -4 -21 -10 -43 -30 -50 -44 -12 -26 -36 -34 -47 -16
-3 5 -2 25 3 43 10 37 4 100 -9 91 -5 -3 -9 -14 -9 -24 0 -10 -6 -23 -14 -27
-7 -4 -23 -28 -35 -52 -22 -46 -28 -67 -11 -41 12 20 35 -2 26 -25 -5 -14 -9
-15 -21 -5 -16 14 -35 5 -35 -16 0 -8 -7 -14 -15 -14 -8 0 -15 -9 -15 -20 0
-13 -7 -20 -20 -20 -20 0 -25 15 -14 44 3 8 11 13 18 10 9 -4 15 11 20 48 4
29 10 63 13 75 4 18 0 23 -22 29 -24 6 -25 8 -11 22 12 13 18 13 30 2 14 -11
16 -9 16 10 0 15 -5 20 -14 17 -18 -7 -24 11 -27 73 -4 108 1 179 16 194 8 8
15 19 15 24 0 5 9 17 20 27 25 23 25 41 1 54 -15 9 -20 27 -26 108 -5 68 -4
98 4 101 13 4 15 52 2 52 -6 0 -13 -5 -16 -10 -11 -18 -26 0 -55 64 -15 33
-42 74 -59 90 -23 23 -28 32 -20 43 6 7 18 13 25 13 9 0 14 12 14 38 0 20 3
54 6 75 6 32 4 37 -13 37 -31 0 -34 10 -10 41 18 26 20 33 9 62 -17 46 -16 46
23 63 19 8 35 19 35 24 0 17 -47 30 -108 31 -31 1 -49 3 -39 6 33 9 14 147
-26 187 -20 20 -14 36 14 36 10 0 19 6 19 13 0 24 25 47 55 51 55 7 116 44
115 70 -1 20 -45 62 -77 76 -36 13 -40 28 -22 79 7 19 18 31 29 31 44 0 68 90
30 110 -11 6 -20 17 -20 24 0 25 -49 59 -87 61 -33 2 -39 7 -50 36 -7 19 -12
42 -12 52 -1 10 -11 47 -22 84 -15 44 -28 67 -40 70 -15 4 -19 15 -19 48 0 24
-6 48 -14 54 -7 6 -16 33 -19 59 -15 119 -21 144 -33 149 -10 4 -14 23 -13 67
1 41 3 53 8 36 16 -56 48 -18 50 60 1 20 6 41 12 47 8 8 7 19 -3 39 -10 22
-24 31 -58 39 -48 11 -90 31 -102 49 -18 26 -8 65 19 78 57 27 70 113 28 187
-18 31 -25 58 -25 96 0 35 -5 57 -15 65 -24 20 -65 108 -65 139 0 15 -5 53
-11 84 -10 50 -10 60 5 75 10 12 16 37 16 73 0 30 4 70 9 90 5 22 4 43 -1 53
-6 12 -6 47 2 102 11 75 10 87 -4 103 -15 17 -15 20 5 44 20 26 39 35 39 20z
m-1800 -68 c0 -8 -13 -38 -28 -68 -21 -40 -25 -58 -18 -70 7 -11 7 -23 -1 -39
-6 -13 -14 -38 -17 -56 -3 -19 -19 -54 -36 -78 -16 -25 -30 -49 -30 -55 0 -5
-4 -9 -10 -9 -5 0 -10 -7 -10 -15 0 -9 -11 -21 -25 -27 -25 -11 -29 -28 -8
-35 6 -2 19 12 29 32 14 30 21 36 43 33 38 -4 37 -31 -2 -75 -19 -21 -47 -64
-61 -95 -15 -32 -31 -58 -35 -58 -4 0 -6 -13 -3 -30 3 -22 0 -30 -11 -30 -9 0
-19 5 -22 10 -3 6 -17 7 -31 4 -17 -4 -26 -1 -30 10 -3 9 -17 16 -30 16 -18 0
-24 -5 -24 -23 0 -16 -14 -35 -40 -56 -30 -24 -40 -39 -40 -61 0 -23 -5 -30
-20 -30 -24 0 -27 25 -4 38 11 6 13 16 9 35 -9 36 -18 34 -55 -13 -17 -22 -36
-38 -41 -34 -18 11 -8 51 20 78 30 29 47 86 26 86 -15 0 -84 -64 -107 -99 -10
-14 -18 -36 -18 -48 0 -36 -37 -54 -85 -42 -22 6 -51 13 -63 16 -31 7 -9 23
32 23 28 0 28 1 22 43 -13 80 -13 80 19 91 17 6 35 18 42 26 14 18 17 44 4 36
-5 -4 -17 -3 -26 0 -13 5 -15 14 -11 36 5 24 2 31 -14 35 -11 3 -20 10 -20 15
0 6 11 8 25 4 14 -3 37 -9 53 -12 15 -4 36 -18 48 -32 l21 -26 59 35 c56 33
59 37 62 77 2 26 9 45 18 49 8 3 14 14 14 24 0 23 -9 24 -25 3 -6 -9 -32 -18
-58 -21 -38 -5 -47 -3 -47 10 0 28 19 67 33 67 7 0 24 11 36 24 14 14 38 26
65 29 23 3 68 14 100 24 50 15 61 23 86 65 23 37 36 48 55 48 25 0 165 111
165 131 0 6 5 7 10 4 6 -3 10 -12 10 -20z m-570 -273 c0 -29 -34 -53 -94 -67
-56 -13 -102 -10 -113 8 -8 13 17 26 97 54 83 28 110 29 110 5z m10920 -1165
l0 -1084 -317 -8 c-175 -5 -360 -7 -411 -6 -110 3 -260 -16 -284 -36 -14 -13
-17 -12 -22 4 -8 27 -10 149 -2 162 10 15 11 210 2 238 -4 13 -9 49 -11 80 -2
32 -10 90 -19 128 -9 39 -21 106 -27 150 -6 44 -16 86 -22 94 -9 11 -9 15 1
18 6 3 12 12 12 21 0 11 -3 13 -11 5 -20 -20 -47 -3 -54 33 -9 50 2 76 27 68
19 -6 20 -3 15 32 -24 157 -30 182 -48 187 -12 3 -20 18 -24 43 -3 22 -13 64
-21 94 -10 37 -12 65 -6 85 7 25 5 32 -12 40 -17 9 -21 21 -22 60 -1 61 -20
122 -47 152 -12 14 -18 30 -14 44 3 12 -1 49 -10 82 -15 61 -8 107 17 107 6 0
15 12 21 27 9 23 6 29 -18 49 -23 18 -27 28 -25 65 5 69 9 76 51 83 22 3 41
12 43 18 3 9 30 13 84 14 189 3 723 17 879 24 94 4 194 7 223 8 l52 2 0 -1083z
m-10930 1033 c11 -7 12 -15 5 -36 -14 -38 -32 -41 -40 -5 -10 45 4 61 35 41z
m8792 -46 c18 4 40 -2 63 -16 l36 -21 -20 -21 c-10 -11 -29 -39 -40 -62 -12
-22 -33 -51 -46 -64 -14 -13 -25 -29 -25 -35 0 -27 -23 -34 -50 -15 -28 20
-28 20 -33 0 -8 -32 -24 -23 -32 18 -4 20 -10 30 -13 22 -8 -26 -46 -61 -79
-75 -17 -7 -34 -23 -38 -34 -4 -15 -15 -21 -35 -21 -16 0 -32 5 -35 10 -10 16
-19 12 -37 -20 -21 -37 -45 -38 -58 -2 -6 15 -14 34 -18 42 -4 8 -8 42 -7 75
0 59 1 60 26 58 22 -1 28 4 33 28 4 21 11 29 26 29 25 0 25 2 -4 55 -14 24
-22 46 -19 49 4 3 20 6 37 7 17 0 40 4 51 8 11 5 25 4 32 -1 7 -6 34 -7 60 -4
27 4 66 8 87 9 23 1 43 9 49 18 9 15 13 13 35 -13 21 -24 31 -29 54 -24z m572
-14 c9 -22 16 -59 16 -83 1 -23 7 -53 15 -67 17 -29 20 -70 5 -70 -15 0 -12
-53 5 -77 13 -19 13 -22 0 -27 -19 -7 -20 -52 -1 -59 7 -3 17 -18 20 -34 4
-15 13 -35 20 -43 8 -8 16 -51 19 -95 4 -44 16 -109 27 -145 11 -36 20 -88 20
-116 0 -65 20 -166 35 -179 7 -5 19 -64 28 -130 9 -66 19 -136 22 -155 3 -19
10 -71 15 -115 5 -44 14 -114 21 -155 11 -70 13 -118 10 -180 -3 -60 7 -137
21 -165 8 -16 18 -62 21 -101 5 -68 4 -73 -22 -98 -15 -14 -33 -26 -40 -26
-10 0 -11 -8 -6 -27 5 -16 9 -39 9 -53 1 -20 -3 -24 -21 -22 -12 2 -30 -1 -40
-6 -10 -5 -35 -12 -55 -16 -31 -6 -38 -4 -38 9 0 9 9 19 20 22 24 6 76 101 63
113 -4 5 -17 10 -28 12 -19 3 -20 11 -20 108 1 71 5 105 13 108 7 2 12 16 12
31 0 15 11 42 25 61 33 45 32 56 -10 56 -19 0 -41 7 -49 15 -7 7 -28 77 -45
154 -18 77 -39 160 -47 184 -8 25 -14 57 -14 72 0 15 -9 56 -20 91 -19 59 -58
322 -62 410 -1 21 -5 41 -10 44 -12 8 -10 52 3 60 6 3 9 18 6 33 -3 14 -12 66
-21 114 -9 49 -16 125 -16 170 0 45 -1 91 -2 102 -4 59 4 193 18 283 4 27 9
32 33 32 24 0 31 -6 45 -40z m-478 -294 c-1 -19 -14 -48 -29 -66 -15 -17 -27
-36 -27 -41 0 -12 -47 -12 -55 1 -3 6 -19 10 -34 10 -23 0 -30 -6 -37 -32 -6
-23 -19 -38 -41 -48 -18 -8 -33 -20 -33 -26 0 -23 -59 -90 -94 -108 -34 -18
-38 -18 -53 -4 -8 9 -24 42 -35 75 -19 55 -19 58 -2 68 9 5 31 22 48 36 17 14
44 29 60 33 17 4 45 21 63 37 19 16 38 29 43 29 6 0 33 11 61 25 54 26 69 25
69 -3 0 -14 2 -13 14 3 8 11 19 16 30 12 14 -6 16 -3 11 13 -5 16 -2 20 19 20
22 0 25 -4 22 -34z m-10643 -11 c-4 -49 -23 -54 -23 -6 0 30 4 41 13 38 6 -2
11 -17 10 -32z m9817 -19 c0 -14 -5 -28 -10 -31 -13 -8 -24 20 -16 40 9 24 26
17 26 -9z m-9860 -26 c13 -8 13 -14 -4 -45 -11 -19 -21 -33 -24 -30 -3 2 -11
-3 -17 -12 -11 -14 -12 -10 -11 28 3 66 19 83 56 59z m1830 -40 c8 -5 12 -12
9 -15 -8 -8 -39 5 -39 16 0 11 11 11 30 -1z m-30 -69 c0 -22 -40 -51 -70 -51
-15 0 -20 6 -20 29 0 31 11 38 63 40 20 1 27 -4 27 -18z m8960 9 c0 -6 9 -23
19 -38 12 -17 23 -60 31 -122 6 -52 18 -124 26 -160 8 -36 19 -105 24 -155 13
-129 36 -280 44 -294 16 -26 1 -319 -18 -338 -10 -10 -48 20 -73 60 -14 23
-29 44 -33 47 -3 3 -17 23 -30 45 -13 22 -32 49 -42 59 -10 11 -21 29 -24 40
-4 11 -24 46 -45 77 -22 31 -39 59 -39 63 0 3 -18 29 -40 58 -22 29 -49 81
-60 116 -10 35 -31 77 -45 94 -25 30 -26 30 -32 9 -3 -11 -9 -21 -14 -21 -12
0 -11 37 1 45 6 3 10 23 10 43 0 31 6 41 34 60 19 13 37 34 40 47 3 13 22 36
41 51 19 14 45 43 57 63 33 54 99 131 113 131 7 0 18 7 25 15 14 17 30 20 30
5z m-160 -10 c0 -57 -163 -212 -211 -202 -20 4 -14 42 6 42 7 0 15 7 19 15 3
9 21 25 41 36 32 19 49 40 74 97 8 16 19 22 41 22 16 0 30 -5 30 -10z m-521
-251 c7 -20 17 -28 38 -31 33 -4 39 -34 10 -52 -16 -9 -22 -7 -34 12 -9 12
-26 22 -39 22 -28 0 -31 5 -40 58 l-6 41 31 -12 c18 -7 34 -22 40 -38z
m-10339 -63 c0 -16 -18 -31 -27 -22 -8 8 5 36 17 36 5 0 10 -6 10 -14z m4508
-78 c10 -10 4 -16 -25 -30 -44 -22 -59 -23 -66 -4 -7 16 8 32 38 39 34 8 41 7
53 -5z m7172 -44 c0 -17 -4 -22 -16 -17 -18 7 -34 42 -26 61 7 20 42 -16 42
-44z m-1076 -38 c35 -42 71 -117 64 -136 -2 -6 -13 -4 -30 5 -26 13 -28 12
-28 -6 0 -14 7 -19 25 -19 50 0 162 -143 180 -230 4 -19 14 -44 21 -55 8 -11
14 -23 14 -27 0 -12 -111 47 -170 91 -115 84 -144 108 -194 160 -28 29 -66 67
-84 84 -20 19 -30 37 -27 47 3 10 1 29 -4 43 -11 29 2 46 22 29 8 -7 18 -6 31
4 11 8 35 14 53 14 20 0 33 5 33 13 0 21 20 35 41 30 11 -3 35 -24 53 -47z
m-10594 15 c0 -12 -39 -25 -48 -16 -7 7 17 25 36 25 6 0 12 -4 12 -9z m1817
-57 c-3 -3 -12 -4 -19 -1 -8 3 -5 6 6 6 11 1 17 -2 13 -5z m100 0 c-3 -3 -12
-4 -19 -1 -8 3 -5 6 6 6 11 1 17 -2 13 -5z m6593 -94 c0 -11 -4 -20 -10 -20
-5 0 -14 9 -20 20 -9 17 -8 20 10 20 13 0 20 -7 20 -20z m-8010 -4 c0 -16 -37
-28 -46 -15 -4 7 19 22 44 28 1 1 2 -5 2 -13z m10330 -125 c0 -10 5 -21 11
-23 6 -2 9 -13 7 -23 -5 -20 -5 -20 -13 0 -5 11 -19 29 -32 40 -13 11 -23 26
-23 32 0 6 -6 16 -14 23 -8 6 -12 18 -9 26 7 20 73 -47 73 -75z m-10345 -41
c7 -12 -12 -40 -26 -40 -10 0 -12 34 -2 43 9 10 21 9 28 -3z m10429 -102 c20
-28 20 -48 1 -48 -16 0 -35 30 -35 54 0 23 16 20 34 -6z m-2285 -22 c9 -10 8
-15 -4 -20 -10 -4 -15 1 -15 14 0 24 4 25 19 6z m-8066 -64 c-31 -47 -121
-213 -133 -246 -6 -17 -19 -45 -27 -63 -13 -28 -19 -31 -35 -22 -15 8 -18 17
-13 32 4 12 10 39 14 59 5 21 13 43 18 50 6 7 16 31 23 53 20 65 50 105 104
140 58 37 76 36 49 -3z m11252 -712 c3 -5 1 -18 -4 -28 -7 -14 -18 -18 -40
-14 -25 3 -31 9 -31 28 0 21 5 24 34 24 19 0 38 -4 41 -10z m155 -93 c0 -12
11 -34 25 -49 25 -27 25 -28 9 -70 -26 -69 -28 -110 -7 -149 15 -25 27 -35 50
-37 25 -3 30 -7 26 -23 -4 -14 -14 -19 -42 -19 -47 0 -71 -14 -53 -32 6 -6 12
-25 12 -40 0 -21 -5 -28 -19 -28 -10 0 -21 7 -25 15 -7 19 -36 19 -64 -1 -22
-15 -31 -54 -12 -54 6 0 10 -8 10 -18 0 -10 7 -27 15 -38 18 -24 19 -64 1 -64
-7 0 -21 11 -30 25 -9 14 -36 34 -59 45 -23 11 -50 34 -59 50 -12 21 -25 30
-43 30 -14 0 -25 -4 -25 -10 0 -5 -5 -10 -11 -10 -6 0 -1 14 11 30 12 17 27
30 34 30 7 0 21 8 30 19 9 10 30 21 47 25 16 3 29 12 29 20 0 7 6 19 14 25 20
17 49 77 65 131 7 25 17 59 23 75 6 17 13 50 15 75 2 25 6 51 8 58 7 21 25 13
25 -11z m-150 -26 c11 -21 13 -101 4 -148 -4 -20 -17 -35 -42 -48 -25 -14 -38
-30 -44 -52 -6 -22 -15 -33 -27 -33 -23 0 -34 14 -51 68 -7 24 -21 47 -31 52
-28 16 -31 41 -8 67 l22 23 -30 0 c-42 0 -52 27 -15 40 15 6 34 14 43 19 8 5
36 7 60 4 33 -4 48 -1 58 11 18 22 48 20 61 -3z m390 -196 c0 -8 -4 -15 -10
-15 -5 0 -10 7 -10 15 0 8 5 15 10 15 6 0 10 -7 10 -15z m-11384 -130 c-8 -8
-20 -15 -27 -15 -7 0 -4 6 7 15 25 19 40 19 20 0z m-36 -35 c0 -5 -5 -10 -11
-10 -5 0 -7 5 -4 10 3 6 8 10 11 10 2 0 4 -4 4 -10z m0 -105 c0 -8 -7 -15 -15
-15 -8 0 -15 7 -15 15 0 8 7 15 15 15 8 0 15 -7 15 -15z m11578 -17 c-2 -13
-7 -23 -13 -23 -5 0 -11 10 -13 23 -2 15 2 22 13 22 11 0 15 -7 13 -22z m122
-19 c0 -10 -34 -12 -43 -2 -4 3 -2 12 4 20 9 10 15 10 25 2 8 -6 14 -15 14
-20z m-11767 -34 c-7 -20 -55 -75 -64 -75 -4 0 -26 -19 -48 -42 -23 -23 -44
-39 -47 -36 -3 3 13 25 35 49 23 23 41 45 41 49 0 3 14 21 31 38 33 34 63 43
52 17z m11077 -16 c0 -5 -7 -9 -15 -9 -8 0 -15 7 -15 15 0 9 6 12 15 9 8 -4
15 -10 15 -15z m629 12 c11 -7 10 -11 -7 -20 -43 -23 -93 -6 -65 22 9 10 55 8
72 -2z m-6919 -111 c0 -33 -3 -40 -20 -40 -23 0 -27 18 -5 26 8 4 15 17 15 30
0 13 2 24 5 24 3 0 5 -18 5 -40z m-4963 -82 c-3 -7 -5 -2 -5 12 0 14 2 19 5
13 2 -7 2 -19 0 -25z m4969 -307 c-10 -16 -36 -13 -36 3 0 17 21 27 34 16 4
-5 5 -13 2 -19z m-446 -408 c0 -5 -5 -15 -10 -23 -8 -12 -10 -11 -10 8 0 12 5
22 10 22 6 0 10 -3 10 -7z m-100 -63 c0 -5 -7 -10 -15 -10 -8 0 -15 5 -15 10
0 6 7 10 15 10 8 0 15 -4 15 -10z m-4490 -3385 c0 -11 -17 -15 -72 -17 l-73
-3 0 -45 0 -45 63 -3 c46 -2 62 -7 62 -17 0 -12 -15 -15 -66 -15 l-65 0 3 -52
3 -53 73 -3 c55 -2 72 -6 72 -17 0 -12 -18 -15 -90 -15 l-90 0 0 150 0 150 90
0 c72 0 90 -3 90 -15z m1003 -95 l72 -110 3 110 c2 102 4 110 22 110 19 0 20
-7 20 -150 0 -194 -7 -197 -112 -37 l-73 112 -3 -112 c-2 -105 -4 -113 -22
-113 -19 0 -20 7 -20 150 0 144 1 150 20 150 15 0 40 -30 93 -110z m1024 75
c26 -30 30 -65 8 -65 -8 0 -21 13 -30 30 -42 82 -145 26 -145 -80 0 -106 103
-162 145 -80 18 34 45 40 45 10 0 -26 -40 -67 -74 -76 -40 -10 -90 4 -117 32
-19 21 -24 38 -27 97 -2 40 1 84 7 99 26 69 140 89 188 33z m719 24 c9 -15
-11 -33 -30 -26 -9 4 -13 13 -10 22 7 17 30 20 40 4z m-2416 -34 c0 -18 5 -25
20 -25 11 0 20 -7 20 -15 0 -8 -9 -15 -20 -15 -18 0 -20 -7 -20 -81 0 -72 2
-81 20 -86 29 -8 25 -33 -4 -33 -40 0 -56 34 -56 122 0 71 -2 78 -20 78 -11 0
-20 7 -20 15 0 8 9 15 20 15 15 0 20 7 20 25 0 18 5 25 20 25 15 0 20 -7 20
-25z m2290 0 c0 -18 5 -25 20 -25 11 0 20 -7 20 -15 0 -8 -9 -15 -20 -15 -18
0 -20 -7 -20 -81 0 -72 2 -81 20 -86 28 -8 25 -33 -4 -33 -45 0 -56 23 -56
116 0 77 -2 84 -20 84 -11 0 -20 7 -20 15 0 8 9 15 20 15 15 0 20 7 20 25 0
18 5 25 20 25 15 0 20 -7 20 -25z m-2540 -41 c0 -14 2 -14 22 0 31 22 74 20
98 -4 17 -17 20 -33 20 -115 0 -88 -1 -95 -20 -95 -18 0 -20 7 -20 88 0 55 -4
92 -12 100 -18 18 -45 15 -68 -8 -17 -17 -20 -33 -20 -100 0 -64 -3 -80 -15
-80 -12 0 -15 19 -15 115 0 96 3 115 15 115 8 0 15 -7 15 -16z m485 -9 c17
-16 25 -35 25 -60 l0 -35 -70 0 c-63 0 -70 -2 -70 -20 0 -25 34 -60 58 -60 10
0 28 7 41 16 36 25 49 2 14 -26 -37 -29 -98 -23 -130 15 -42 48 -23 164 30
185 40 16 77 11 102 -15z m115 16 c0 -5 13 -4 30 2 16 6 32 8 36 4 11 -11 -5
-37 -24 -37 -34 0 -42 -21 -42 -107 0 -76 -2 -83 -20 -83 -19 0 -20 7 -20 115
0 108 1 115 20 115 11 0 20 -4 20 -9z m655 -16 c17 -16 25 -35 25 -60 l0 -35
-70 0 c-63 0 -70 -2 -70 -20 0 -25 34 -60 58 -60 10 0 28 7 41 16 36 25 49 2
14 -26 -37 -29 -98 -23 -130 15 -42 48 -23 164 30 185 40 16 77 11 102 -15z
m110 -47 c16 -68 35 -110 35 -79 0 7 10 44 21 82 28 94 44 89 79 -21 l27 -85
18 84 c17 74 35 105 52 88 3 -4 -8 -55 -24 -114 -39 -141 -53 -145 -89 -26
l-27 88 -23 -75 c-13 -41 -24 -81 -24 -87 0 -7 -8 -13 -18 -13 -15 0 -24 20
-47 103 -15 56 -30 108 -33 115 -2 7 4 12 16 12 16 0 23 -12 37 -72z m796 53
c21 -17 25 -30 29 -111 4 -72 2 -94 -9 -98 -7 -3 -16 1 -21 8 -6 9 -13 9 -28
1 -53 -28 -112 0 -112 54 0 44 38 75 91 75 31 0 39 4 39 18 0 39 -55 57 -80
27 -14 -16 -50 -21 -50 -6 0 19 54 51 85 51 18 0 43 -9 56 -19z m121 9 c2 -7
14 -6 34 1 70 27 117 -16 117 -106 0 -89 -47 -133 -115 -107 l-28 10 0 -54 c0
-47 -2 -54 -20 -54 -19 0 -20 7 -20 160 0 131 3 160 14 160 8 0 16 -5 18 -10z
m378 -105 c0 -96 -3 -115 -15 -115 -12 0 -15 19 -15 115 0 96 3 115 15 115 12
0 15 -19 15 -115z m222 86 c30 -27 33 -35 33 -86 0 -51 -3 -59 -33 -86 -72
-64 -162 -15 -162 88 1 101 91 148 162 84z m118 13 c0 -14 2 -14 22 0 34 24
73 20 97 -10 18 -23 21 -41 21 -115 0 -82 -2 -89 -20 -89 -19 0 -20 7 -20 90
0 86 -1 91 -25 102 -19 9 -29 8 -50 -6 -23 -15 -25 -21 -25 -101 0 -78 -2 -85
-20 -85 -19 0 -20 7 -20 115 0 108 1 115 20 115 11 0 20 -7 20 -16z m-780
-783 c22 -6 24 -12 22 -47 -3 -31 2 -44 20 -61 25 -23 97 -53 129 -53 38 0 45
-156 10 -234 -16 -37 -25 -46 -45 -46 -19 0 -26 5 -26 20 0 23 -32 43 -62 38
-12 -2 -30 -15 -41 -31 -19 -24 -20 -32 -10 -80 6 -28 9 -54 7 -56 -1 -2 -32
-6 -67 -8 -80 -7 -160 15 -218 60 -52 39 -63 62 -24 47 49 -19 64 -13 87 35
19 38 25 44 43 38 40 -15 168 -8 205 11 42 22 91 66 85 76 -3 5 -31 -3 -62
-16 -72 -29 -211 -34 -237 -8 -9 8 -16 20 -16 24 0 5 -11 17 -25 26 -31 20
-69 8 -80 -26 -3 -11 -11 -17 -17 -14 -6 4 -24 7 -39 6 -26 -1 -29 3 -29 32 0
18 7 56 16 86 21 71 100 152 170 174 51 15 160 19 204 7z m700 0 c22 -6 24
-12 22 -47 -3 -31 2 -44 20 -61 25 -23 97 -53 129 -53 38 0 45 -156 10 -234
-16 -37 -25 -46 -45 -46 -19 0 -26 5 -26 20 0 23 -32 43 -62 38 -12 -2 -30
-15 -41 -31 -19 -24 -20 -32 -10 -80 6 -28 9 -54 7 -56 -1 -2 -32 -6 -67 -8
-80 -7 -160 15 -218 60 -52 39 -63 62 -24 47 49 -19 64 -13 87 35 19 38 25 44
43 38 40 -15 168 -8 205 11 42 22 91 66 85 76 -3 5 -31 -3 -62 -16 -72 -29
-211 -34 -237 -8 -9 8 -16 20 -16 24 0 5 -11 17 -25 26 -31 20 -69 8 -80 -26
-3 -11 -11 -17 -17 -14 -6 4 -24 7 -39 6 -26 -1 -29 3 -29 32 0 18 7 56 16 86
21 71 100 152 170 174 51 15 160 19 204 7z m718 -5 c9 -5 9 -12 1 -28 -25 -47
39 -109 128 -124 49 -7 53 -17 53 -123 0 -90 -26 -155 -63 -159 -14 -1 -26 6
-32 20 -15 33 -40 44 -72 32 -37 -13 -50 -51 -37 -114 l10 -49 -44 -7 c-104
-15 -215 19 -277 87 -24 25 -26 31 -10 25 11 -4 34 -10 51 -13 28 -5 32 -1 54
40 23 42 25 44 54 36 81 -23 184 -1 250 53 48 39 34 55 -25 26 -29 -14 -70
-23 -121 -26 -95 -6 -121 1 -136 33 -18 38 -55 52 -87 31 -14 -9 -25 -23 -25
-32 0 -9 -5 -12 -11 -8 -7 4 -25 7 -42 6 l-30 -1 7 60 c7 72 32 123 83 172 58
57 121 78 223 74 47 -2 91 -6 98 -11z m700 0 c9 -5 9 -12 1 -28 -25 -47 39
-109 128 -124 49 -7 53 -17 53 -123 0 -90 -26 -155 -63 -159 -14 -1 -26 6 -32
20 -15 33 -40 44 -72 32 -37 -13 -50 -51 -37 -114 l10 -49 -44 -7 c-104 -15
-215 19 -277 87 -24 25 -26 31 -10 25 11 -4 34 -10 51 -13 28 -5 32 -1 54 40
23 42 25 44 54 36 81 -23 184 -1 250 53 48 39 34 55 -25 26 -29 -14 -70 -23
-121 -26 -95 -6 -121 1 -136 33 -18 38 -55 52 -87 31 -14 -9 -25 -23 -25 -32
0 -9 -5 -12 -11 -8 -7 4 -25 7 -42 6 l-30 -1 7 60 c7 72 32 123 83 172 58 57
121 78 223 74 47 -2 91 -6 98 -11z m-2050 -59 c3 -39 -7 -47 -28 -22 -15 18
-5 68 13 62 7 -2 13 -20 15 -40z m700 0 c3 -39 -7 -47 -28 -22 -15 18 -5 68
13 62 7 -2 13 -20 15 -40z m699 0 c2 -39 -5 -45 -25 -25 -13 13 -16 51 -5 62
14 14 27 -2 30 -37z m700 0 c2 -39 -5 -45 -25 -25 -13 13 -16 51 -5 62 14 14
27 -2 30 -37z m-4436 -18 c24 -12 59 -67 59 -91 0 -13 -8 -18 -26 -18 -19 0
-28 7 -36 30 -12 37 -35 50 -82 50 -38 0 -76 -28 -76 -56 0 -34 22 -53 86 -74
36 -12 81 -36 100 -52 28 -25 34 -37 34 -72 0 -54 -19 -80 -75 -101 -67 -26
-129 -14 -177 35 -48 47 -51 80 -8 80 22 0 30 -5 30 -18 0 -40 70 -72 125 -58
13 3 32 17 40 30 25 37 6 70 -52 91 -123 45 -163 77 -163 133 0 32 44 86 80
99 38 14 108 10 141 -8z m816 -4 c28 -19 49 -51 58 -87 7 -26 5 -28 -24 -28
-25 0 -31 4 -31 20 0 12 -11 32 -25 45 -35 35 -85 34 -127 -4 -32 -28 -33 -33
-36 -114 -6 -126 26 -177 109 -177 35 0 79 39 79 70 0 16 6 20 30 20 34 0 36
-7 16 -54 -44 -106 -204 -112 -267 -10 -21 34 -24 51 -24 134 0 83 3 100 24
134 44 70 150 95 218 51z m503 -55 c0 -38 2 -40 30 -40 23 0 30 -4 30 -20 0
-16 -7 -20 -30 -20 l-30 0 0 -86 c0 -94 10 -124 41 -124 15 0 20 -5 17 -22 -4
-31 -46 -35 -81 -8 -26 21 -27 24 -27 131 l0 109 -25 0 c-18 0 -25 5 -25 20 0
15 7 20 25 20 23 0 25 4 25 40 0 36 3 40 25 40 23 0 25 -4 25 -40z m-1001 -57
c79 -58 80 -197 1 -255 -61 -45 -150 -27 -190 37 -27 44 -28 136 0 180 39 64
129 82 189 38z m1286 13 c38 -16 59 -51 70 -113 l7 -43 -101 0 c-95 0 -101 -1
-101 -20 0 -12 11 -32 25 -45 29 -30 74 -33 116 -8 22 13 32 14 41 5 16 -16
-13 -48 -59 -63 -102 -33 -193 52 -180 168 6 54 31 92 78 115 41 22 59 22 104
4z m-605 -109 c0 -75 4 -117 12 -125 17 -17 59 -15 86 4 20 14 22 23 22 125
l0 109 30 0 30 0 0 -145 0 -145 -30 0 c-16 0 -30 4 -30 9 0 6 -12 3 -27 -5
-34 -17 -50 -17 -92 -3 -49 17 -61 52 -61 179 l0 110 30 0 30 0 0 -113z m910
-51 c0 -13 3 -31 6 -40 10 -27 -25 -19 -38 9 -8 19 -8 28 2 40 18 22 30 18 30
-9z m700 0 c0 -13 3 -31 6 -40 10 -27 -25 -19 -38 9 -8 19 -8 28 2 40 18 22
30 18 30 -9z m698 -19 c2 -21 -1 -37 -7 -37 -16 0 -33 39 -26 61 10 31 30 17
33 -24z m700 0 c2 -21 -1 -37 -7 -37 -16 0 -33 39 -26 61 10 31 30 17 33 -24z
m-1668 -48 c0 -11 -40 -48 -52 -49 -17 0 -7 40 14 54 22 15 38 13 38 -5z m700
0 c0 -11 -40 -48 -52 -49 -17 0 -7 40 14 54 22 15 38 13 38 -5z m695 11 c6
-10 -33 -59 -47 -60 -14 0 -8 38 8 54 18 19 30 20 39 6z m700 0 c6 -10 -33
-59 -47 -60 -14 0 -8 38 8 54 18 19 30 20 39 6z m7770 -2215 c122 -32 219
-129 250 -252 14 -54 15 -145 13 -690 l-3 -628 -27 -57 c-35 -75 -95 -138
-165 -174 l-58 -29 -6315 0 -6315 0 -58 29 c-70 36 -130 99 -165 174 l-27 57
-3 628 c-3 702 -3 706 64 804 43 63 120 117 194 137 48 13 855 15 6305 15
5585 1 6257 -1 6310 -14z m-4440 -7930 c32 -31 32 -59 0 -90 l-24 -25 -1841 0
-1841 0 -24 25 c-14 13 -25 34 -25 45 0 12 11 32 25 45 l24 25 1841 0 1841 0
24 -25z"/>
<path d="M2615 30096 c-37 -16 -70 -52 -84 -88 l-11 -28 150 0 c141 0 150 1
150 19 0 27 -48 81 -87 97 -40 17 -79 17 -118 0z m5 -61 c0 -8 -7 -15 -15 -15
-8 0 -15 7 -15 15 0 8 7 15 15 15 8 0 15 -7 15 -15z m135 4 c10 -15 -1 -23
-20 -15 -9 3 -13 10 -10 16 8 13 22 13 30 -1z"/>
<path d="M2531 29900 c13 -36 72 -90 99 -90 18 0 20 7 20 60 l0 60 -64 0 -65
0 10 -30z"/>
<path d="M2700 29870 c0 -67 6 -71 57 -40 30 18 63 65 63 90 0 6 -25 10 -60
10 l-60 0 0 -60z"/>
<path d="M12772 29997 l-72 -72 0 -68 0 -67 75 0 75 0 0 140 c0 77 -1 140 -3
140 -1 0 -35 -33 -75 -73z"/>
<path d="M3043 28593 c-25 -37 -25 -139 0 -176 14 -21 25 -27 55 -27 63 0 76
17 80 102 4 99 -9 122 -70 126 -42 3 -49 0 -65 -25z"/>
<path d="M4520 28493 c-59 -11 -80 -69 -35 -99 47 -30 105 7 105 68 0 41 -5
43 -70 31z"/>
<path d="M4867 28602 c-13 -14 -17 -38 -17 -99 0 -67 3 -83 20 -98 31 -28 79
-24 107 9 32 37 33 140 2 180 -25 32 -86 37 -112 8z"/>
<path d="M5702 28622 c-81 -12 -80 -229 0 -233 83 -4 103 18 103 115 0 98 -27
129 -103 118z"/>
<path d="M5193 24943 c9 -2 25 -2 35 0 9 3 1 5 -18 5 -19 0 -27 -2 -17 -5z"/>
<path d="M2421 23074 c0 -11 3 -14 6 -6 3 7 2 16 -1 19 -3 4 -6 -2 -5 -13z"/>
<path d="M2480 23075 c7 -8 20 -15 30 -15 10 0 20 7 24 15 4 12 -3 15 -31 15
-30 0 -34 -2 -23 -15z"/>
<path d="M2668 23069 c-10 -5 -18 -19 -18 -29 0 -25 27 -26 59 -1 39 30 3 56
-41 30z"/>
<path d="M3096 22931 c-7 -11 3 -41 13 -41 12 0 31 23 31 37 0 15 -36 18 -44
4z"/>
<path d="M2829 22861 c-26 -14 -65 -38 -88 -54 -23 -15 -65 -39 -95 -53 -30
-14 -66 -39 -80 -55 -14 -16 -30 -29 -34 -29 -5 0 -22 -26 -37 -57 -16 -32
-55 -88 -87 -126 -32 -37 -58 -74 -58 -82 0 -8 -9 -20 -20 -27 -11 -7 -20 -19
-20 -27 0 -11 3 -11 15 -1 8 6 19 9 25 5 11 -7 -40 -55 -58 -55 -16 0 -72 -85
-72 -108 0 -11 -11 -35 -25 -55 -25 -39 -19 -55 15 -37 13 7 33 8 58 2 20 -5
84 -10 140 -10 116 -1 108 -6 182 93 19 26 47 60 62 76 15 16 30 39 33 52 8
25 91 153 105 162 6 4 10 18 10 32 0 23 -3 25 -27 19 -16 -4 -41 -10 -56 -13
-16 -3 -41 -17 -55 -30 -15 -14 -44 -32 -64 -40 -21 -8 -52 -31 -69 -51 -27
-30 -34 -34 -50 -24 -26 16 -48 15 -55 -3 -7 -17 -40 -20 -49 -5 -3 5 13 26
36 47 23 21 48 44 55 51 7 6 17 12 23 12 6 0 16 9 23 20 8 13 19 18 33 14 14
-4 28 4 45 24 33 38 50 68 50 88 0 16 -2 16 -19 0 -11 -10 -25 -16 -30 -15
-15 5 41 69 59 69 8 0 33 18 55 41 22 22 63 57 92 76 29 19 53 39 53 44 0 4 9
17 21 28 32 29 9 30 -42 2z m-349 -537 c0 -14 -4 -23 -9 -20 -5 3 -7 15 -4 26
7 28 13 25 13 -6z"/>
<path d="M3025 22850 c-3 -5 1 -10 9 -10 9 0 16 5 16 10 0 6 -4 10 -9 10 -6 0
-13 -4 -16 -10z"/>
<path d="M2890 22789 c0 -5 5 -7 10 -4 6 3 10 8 10 11 0 2 -4 4 -10 4 -5 0
-10 -5 -10 -11z"/>
<path d="M2870 22767 c0 -9 -7 -17 -15 -17 -8 0 -15 -9 -15 -20 0 -11 3 -20 8
-20 10 0 36 60 28 67 -3 4 -6 -1 -6 -10z"/>
<path d="M2916 22734 c-8 -21 -8 -24 5 -24 11 0 39 24 39 34 0 13 -38 5 -44
-10z"/>
<path d="M2810 22550 c0 -5 7 -7 15 -4 8 4 15 8 15 10 0 2 -7 4 -15 4 -8 0
-15 -4 -15 -10z"/>
<path d="M2921 22254 c0 -11 3 -14 6 -6 3 7 2 16 -1 19 -3 4 -6 -2 -5 -13z"/>
<path d="M2563 21433 c-22 -8 -15 -32 7 -26 20 5 26 18 13 26 -5 2 -14 2 -20
0z"/>
<path d="M2085 20900 c-24 -16 -26 -20 -12 -26 31 -11 97 14 97 37 0 16 -54 9
-85 -11z"/>
<path d="M2008 20853 c7 -3 16 -2 19 1 4 3 -2 6 -13 5 -11 0 -14 -3 -6 -6z"/>
<path d="M1825 20770 c3 -5 12 -7 20 -3 21 7 19 13 -6 13 -11 0 -18 -4 -14
-10z"/>
<path d="M2832 20710 c-15 -24 -16 -57 -1 -65 15 -10 20 -2 26 44 6 44 -5 53
-25 21z"/>
<path d="M1200 20414 c0 -12 34 -33 53 -34 25 0 21 27 -5 34 -30 8 -48 8 -48
0z"/>
<path d="M2505 20210 c3 -5 10 -10 16 -10 5 0 9 5 9 10 0 6 -7 10 -16 10 -8 0
-12 -4 -9 -10z"/>
<path d="M2425 20173 c-11 -3 -24 -9 -29 -14 -6 -5 -23 -9 -40 -9 -60 0 -13
-14 60 -18 75 -4 76 -4 72 20 -3 24 -24 31 -63 21z"/>
<path d="M867 19873 c-3 -16 -1 -60 5 -100 8 -58 16 -76 39 -99 25 -24 29 -25
29 -9 0 10 8 27 17 37 10 12 17 37 17 67 1 46 -2 52 -44 90 -25 22 -48 40 -51
41 -4 0 -9 -12 -12 -27z"/>
<path d="M8188 26823 c7 -3 16 -2 19 1 4 3 -2 6 -13 5 -11 0 -14 -3 -6 -6z"/>
<path d="M9445 26830 c-3 -5 -1 -10 4 -10 6 0 11 5 11 10 0 6 -2 10 -4 10 -3
0 -8 -4 -11 -10z"/>
<path d="M11436 26492 c-3 -6 -1 -14 5 -17 15 -10 25 3 12 16 -7 7 -13 7 -17
1z"/>
<path d="M10434 26481 c3 -5 15 -7 26 -4 28 7 25 13 -6 13 -14 0 -23 -4 -20
-9z"/>
<path d="M12195 24820 c-3 -5 1 -10 9 -10 9 0 16 5 16 10 0 6 -4 10 -9 10 -6
0 -13 -4 -16 -10z"/>
<path d="M12175 26610 c3 -5 8 -10 11 -10 2 0 4 5 4 10 0 6 -5 10 -11 10 -5 0
-7 -4 -4 -10z"/>
<path d="M12270 26409 c0 -5 9 -9 20 -9 11 0 20 2 20 4 0 2 -9 6 -20 9 -11 3
-20 1 -20 -4z"/>
<path d="M12610 25137 c0 -8 10 -27 22 -42 14 -19 25 -50 30 -93 9 -76 35
-136 62 -141 18 -3 19 2 13 66 -7 86 -68 216 -104 221 -15 2 -23 -2 -23 -11z"/>
<path d="M12744 24699 c4 -62 8 -115 11 -117 2 -2 8 -1 14 3 7 4 11 45 11 103
0 89 -2 98 -22 111 l-21 13 7 -113z"/>
<path d="M12746 24470 c3 -58 9 -125 14 -150 8 -46 6 -147 -6 -232 -5 -33 -3
-48 5 -48 6 0 12 -8 13 -17 3 -46 18 158 20 292 3 145 2 152 -24 205 l-27 55
5 -105z"/>
<path d="M12820 23190 c0 -5 4 -10 9 -10 6 0 13 5 16 10 3 6 -1 10 -9 10 -9 0
-16 -4 -16 -10z"/>
<path d="M12874 23104 c-1 -35 2 -64 7 -64 11 0 12 117 2 123 -5 3 -9 -24 -9
-59z"/>
<path d="M6106 25673 c-12 -12 -6 -33 9 -33 8 0 15 6 15 14 0 17 -14 28 -24
19z"/>
<path d="M7200 23910 c-121 -29 -190 -60 -229 -104 -43 -46 -46 -71 -11 -72
14 -1 33 -5 43 -9 10 -4 53 0 95 8 42 9 100 19 127 22 28 4 60 11 72 17 16 8
37 7 75 -2 29 -6 74 -14 100 -17 35 -4 53 -12 72 -33 14 -16 43 -34 66 -40 22
-6 40 -15 40 -19 0 -5 11 -8 24 -8 13 0 33 -10 45 -22 11 -11 25 -21 31 -21 5
0 18 -17 27 -37 13 -27 27 -39 51 -45 22 -6 32 -14 32 -28 0 -11 9 -24 20 -30
11 -6 31 -22 44 -35 14 -14 30 -25 36 -25 8 0 9 -10 5 -29 -5 -25 -2 -31 28
-50 19 -11 41 -21 48 -21 8 -1 23 -20 34 -43 14 -27 30 -43 45 -47 33 -8 37
-36 10 -72 -16 -21 -19 -33 -11 -41 7 -7 16 -6 29 6 31 29 48 20 76 -38 26
-56 39 -67 50 -40 3 9 12 12 23 8 32 -12 194 -150 218 -186 13 -19 37 -40 54
-47 17 -6 42 -27 56 -46 14 -19 35 -34 45 -34 11 0 26 -10 35 -23 11 -18 34
-28 95 -41 83 -19 116 -16 106 9 -3 8 3 20 13 27 27 20 32 33 22 64 -5 16 -14
48 -22 72 -9 31 -19 44 -36 48 -14 4 -32 22 -42 43 -11 20 -37 50 -58 68 -22
17 -45 44 -52 60 -7 15 -32 44 -56 63 -35 28 -180 161 -230 212 -5 5 -53 52
-105 103 -52 52 -99 99 -105 105 -27 29 -145 142 -180 172 -22 18 -58 50 -80
71 -68 64 -168 106 -276 118 -52 6 -114 14 -139 19 -76 16 -277 10 -360 -10z"/>
<path d="M10368 23753 c7 -3 16 -2 19 1 4 3 -2 6 -13 5 -11 0 -14 -3 -6 -6z"/>
<path d="M10371 23597 c-8 -24 -10 -58 -5 -94 12 -103 21 -103 29 -1 8 110 -4
157 -24 95z"/>
<path d="M10513 23565 c0 -27 2 -38 4 -22 2 15 2 37 0 50 -2 12 -4 0 -4 -28z"/>
<path d="M10271 23544 c0 -11 3 -14 6 -6 3 7 2 16 -1 19 -3 4 -6 -2 -5 -13z"/>
<path d="M7210 23295 c-7 -8 -28 -15 -47 -15 -43 0 -35 -17 12 -26 69 -13 27
-44 -59 -44 -17 0 -42 -7 -55 -16 -13 -10 -41 -18 -61 -20 -58 -4 -75 -18 -94
-78 -21 -66 -14 -99 38 -180 20 -31 36 -65 36 -75 0 -27 11 -52 19 -46 16 9
98 -81 105 -116 9 -48 18 -59 62 -74 27 -9 40 -20 42 -35 6 -34 42 -70 73 -70
15 0 29 -6 32 -14 14 -36 -34 -35 -82 2 -20 16 -43 27 -53 25 -25 -6 -33 -36
-12 -48 9 -5 28 -22 42 -37 14 -16 36 -28 49 -28 36 0 90 -26 102 -48 6 -12
11 -37 11 -56 0 -31 3 -36 23 -36 13 0 28 5 35 12 8 8 29 2 86 -26 41 -20 103
-43 138 -52 81 -20 119 -34 113 -44 -9 -14 48 -23 161 -24 90 -1 116 -4 130
-18 21 -18 54 -8 54 16 0 8 13 19 30 26 41 17 51 32 54 85 2 25 11 54 20 64 9
10 16 35 16 57 0 28 6 43 20 51 28 18 37 -4 11 -31 -28 -29 -27 -62 1 -69 28
-8 38 -1 38 28 0 12 7 26 16 29 10 4 14 14 11 25 -3 12 1 22 9 25 24 9 15 37
-15 49 -24 9 -30 18 -35 54 -3 23 -11 51 -18 62 -10 16 -9 25 1 44 12 22 11
28 -5 50 -11 14 -27 27 -38 29 -18 3 -38 32 -71 107 -30 67 -46 91 -61 91 -8
0 -14 10 -14 25 0 17 -6 25 -17 25 -10 0 -36 25 -58 55 -22 30 -45 55 -51 55
-6 0 -23 9 -37 20 -14 11 -32 20 -40 20 -8 0 -24 16 -35 35 -13 21 -32 37 -49
41 -15 4 -35 12 -43 19 -29 25 -125 62 -177 68 -29 3 -66 13 -82 22 -46 23
-263 31 -281 10z m553 -182 c-7 -2 -19 -2 -25 0 -7 3 -2 5 12 5 14 0 19 -2 13
-5z m-38 -23 c3 -5 -3 -10 -15 -10 -12 0 -18 5 -15 10 3 6 10 10 15 10 5 0 12
-4 15 -10z m-378 -104 c24 7 25 5 19 -22 -4 -16 -13 -60 -21 -98 -17 -80 -31
-101 -49 -72 -6 11 -23 33 -37 50 -33 39 -46 114 -21 123 10 4 28 15 41 25 22
17 26 17 33 3 6 -10 17 -13 35 -9z m183 -51 c0 -8 -4 -15 -10 -15 -5 0 -10 7
-10 15 0 8 5 15 10 15 6 0 10 -7 10 -15z m405 -280 c13 -38 16 -57 8 -67 -6
-7 -9 -24 -7 -38 6 -43 -7 -51 -92 -53 -53 -1 -92 4 -118 15 l-39 16 37 17
c34 17 136 120 136 139 0 13 33 34 46 29 6 -2 19 -28 29 -58z"/>
<path d="M8070 23179 c0 -11 5 -17 10 -14 6 3 10 13 10 21 0 8 -4 14 -10 14
-5 0 -10 -9 -10 -21z"/>
<path d="M8227 22259 c-3 -12 -2 -31 3 -42 7 -18 9 -14 9 21 1 46 -4 54 -12
21z"/>
<path d="M7430 21191 c0 -24 11 -32 28 -22 16 10 5 41 -14 41 -8 0 -14 -9 -14
-19z"/>
<path d="M7316 20971 c-3 -4 -1 -23 5 -42 6 -19 14 -62 20 -96 5 -35 16 -71
25 -82 61 -72 74 -82 101 -79 29 3 33 17 18 66 -6 19 -4 22 19 22 16 0 26 -6
26 -15 0 -36 23 -65 53 -65 43 0 73 -28 69 -66 -3 -28 -1 -31 20 -27 16 3 33
-4 51 -21 16 -14 36 -26 45 -27 12 0 11 -3 -6 -9 -12 -5 -27 -21 -34 -35 -10
-23 -9 -29 15 -52 23 -24 29 -25 52 -15 35 16 52 15 59 -4 10 -27 -11 -43 -48
-37 -33 5 -94 -22 -80 -36 3 -3 33 -8 67 -11 55 -4 62 -8 68 -30 4 -14 7 -22
8 -18 1 4 22 1 49 -7 26 -7 69 -17 96 -21 26 -3 67 -17 90 -29 22 -13 50 -25
61 -26 28 -4 106 11 130 24 11 6 45 14 75 17 51 5 55 7 58 33 2 19 -5 35 -25
56 -38 37 -96 45 -233 32 -89 -9 -107 -8 -116 4 -6 8 -20 15 -30 15 -39 0
-124 25 -124 36 0 7 -5 14 -12 16 -7 3 -22 22 -33 43 -11 21 -28 40 -38 41
-52 7 -18 19 41 14 31 -2 36 19 15 66 -41 88 -79 135 -175 221 -36 32 -148 60
-185 47 -33 -11 -42 -42 -18 -60 25 -19 1 -26 -31 -9 -16 8 -34 15 -40 15 -16
0 -51 70 -59 118 -5 32 -11 42 -25 42 -10 0 -21 -4 -24 -9z"/>
<path d="M6342 20722 c-61 -50 -54 -166 11 -179 29 -6 29 -7 24 -54 -5 -41 -3
-49 13 -54 10 -3 22 -15 25 -25 3 -10 14 -22 24 -25 11 -3 21 -13 24 -23 19
-62 50 -128 76 -164 17 -23 31 -49 31 -58 0 -9 8 -25 18 -36 34 -36 102 -131
102 -141 0 -6 10 -23 23 -39 12 -15 29 -46 37 -68 11 -29 21 -41 35 -41 16 0
22 -13 36 -70 12 -51 31 -93 73 -157 50 -77 62 -89 96 -98 29 -8 40 -16 40
-29 0 -28 95 -116 138 -129 22 -7 41 -21 47 -34 6 -14 22 -25 42 -29 18 -3 44
-14 57 -23 14 -9 34 -16 44 -16 10 0 35 -9 57 -20 30 -15 59 -20 125 -20 47 0
90 4 96 9 5 5 51 16 101 25 51 9 105 24 120 32 20 10 52 14 108 12 44 -1 87 2
95 7 8 6 44 11 80 12 154 6 156 6 156 27 -1 13 14 27 49 45 59 31 71 65 34
100 l-22 20 41 7 c42 7 52 20 30 42 -19 19 -55 14 -75 -11 -10 -13 -31 -27
-46 -30 -15 -4 -38 -10 -51 -13 -25 -6 -30 -2 -224 205 -181 194 -207 215
-304 237 -34 8 -72 23 -83 33 -11 11 -58 45 -104 76 -46 32 -97 70 -112 86
-16 16 -31 29 -34 29 -3 0 -30 18 -59 40 -30 21 -65 42 -80 46 -14 3 -30 12
-37 20 -6 8 -18 14 -25 14 -8 0 -42 11 -76 24 -35 13 -76 27 -92 31 -16 3 -30
14 -33 25 -3 13 -14 20 -29 20 -55 0 -162 33 -209 64 -27 19 -66 37 -86 40
-21 4 -53 18 -73 31 -20 14 -43 25 -50 25 -18 0 -56 43 -56 63 0 9 -9 26 -21
38 -11 11 -27 39 -35 62 -13 37 -37 68 -53 67 -3 0 -21 -13 -39 -28z"/>
<path d="M8886 19691 c-4 -5 -2 -12 3 -15 5 -4 12 -2 15 3 4 5 2 12 -3 15 -5
4 -12 2 -15 -3z"/>
<path d="M12657 20973 c-11 -10 -8 -51 3 -58 6 -4 10 8 10 29 0 37 -2 41 -13
29z"/>
<path d="M11681 21954 c0 -11 3 -14 6 -6 3 7 2 16 -1 19 -3 4 -6 -2 -5 -13z"/>
<path d="M10805 21341 c-3 -5 -1 -12 5 -16 5 -3 10 1 10 9 0 18 -6 21 -15 7z"/>
<path d="M11338 19263 c7 -3 16 -2 19 1 4 3 -2 6 -13 5 -11 0 -14 -3 -6 -6z"/>
<path d="M10700 18645 c0 -8 2 -15 4 -15 2 0 6 7 10 15 3 8 1 15 -4 15 -6 0
-10 -7 -10 -15z"/>
<path d="M10701 18604 c0 -11 3 -14 6 -6 3 7 2 16 -1 19 -3 4 -6 -2 -5 -13z"/>
<path d="M13060 16395 c0 -11 7 -15 23 -13 12 2 22 8 22 13 0 6 -10 11 -22 13
-16 2 -23 -2 -23 -13z"/>
<path d="M12718 16053 c7 -3 16 -2 19 1 4 3 -2 6 -13 5 -11 0 -14 -3 -6 -6z"/>
<path d="M12773 15874 c-7 -3 14 -29 50 -61 66 -59 80 -56 52 10 -20 49 -59
68 -102 51z"/>
<path d="M13378 15664 c-5 -4 -8 -18 -8 -30 0 -33 -17 -38 -27 -8 l-9 27 -19
-29 c-10 -16 -24 -33 -32 -37 -29 -17 0 -81 42 -91 13 -3 26 -15 30 -25 6 -20
33 -31 78 -31 59 0 86 -33 47 -58 -20 -12 -20 -12 -1 -31 46 -46 84 -52 113
-18 17 18 19 31 14 75 -6 48 -5 52 15 52 21 0 22 3 16 68 -4 37 -7 80 -7 96 0
16 -3 26 -7 22 -8 -8 -9 -13 -12 -42 -1 -21 -21 -7 -21 15 0 10 -6 23 -12 29
-16 12 -190 27 -200 16z m202 -304 c0 -11 -4 -20 -9 -20 -11 0 -22 26 -14 34
12 12 23 5 23 -14z"/>
<path d="M11645 15570 c3 -5 12 -7 20 -3 21 7 19 13 -6 13 -11 0 -18 -4 -14
-10z"/>
<path d="M11538 15503 c-10 -2 -18 -8 -18 -13 0 -4 -20 -18 -45 -30 -40 -19
-61 -50 -35 -50 6 0 10 5 10 10 0 6 7 10 15 10 7 0 18 6 22 13 4 8 23 22 41
32 17 11 32 23 32 27 0 4 -1 7 -2 7 -2 -1 -11 -3 -20 -6z"/>
<path d="M11375 15390 c-3 -5 1 -10 9 -10 9 0 16 5 16 10 0 6 -4 10 -9 10 -6
0 -13 -4 -16 -10z"/>
<path d="M10190 21410 c0 -5 7 -10 15 -10 8 0 15 5 15 10 0 6 -7 10 -15 10 -8
0 -15 -4 -15 -10z"/>
<path d="M5436 17781 c-8 -13 4 -42 15 -35 12 7 12 44 0 44 -6 0 -12 -4 -15
-9z"/>
<path d="M5730 17260 c0 -16 7 -20 37 -20 35 0 36 0 18 20 -10 11 -26 20 -37
20 -11 0 -18 -7 -18 -20z"/>
<path d="M5845 17231 c-18 -8 -18 -10 9 -20 38 -15 81 -10 81 9 0 17 -58 24
-90 11z"/>
<path d="M5738 17163 c7 -3 16 -2 19 1 4 3 -2 6 -13 5 -11 0 -14 -3 -6 -6z"/>
<path d="M5870 16981 c0 -6 16 -11 35 -11 24 0 35 -5 35 -14 0 -23 20 -30 36
-14 13 13 13 16 -1 28 -20 17 -105 26 -105 11z"/>
<path d="M6102 16011 c-18 -22 -32 -44 -32 -49 0 -14 -76 -92 -91 -93 -8 0 1
-5 19 -10 29 -9 32 -13 32 -48 0 -30 -4 -40 -20 -44 -25 -6 -27 -37 -2 -37 23
0 63 71 55 99 -4 16 5 30 39 61 44 38 45 40 45 99 0 34 -3 61 -7 61 -4 0 -21
-18 -38 -39z"/>
<path d="M5935 15830 c-20 -22 -16 -34 9 -24 9 3 16 15 16 25 0 24 -3 24 -25
-1z"/>
<path d="M5944 15700 c-4 -17 -11 -33 -15 -36 -5 -3 -9 -37 -9 -76 0 -54 -4
-74 -17 -83 -11 -8 -14 -18 -9 -31 7 -19 8 -19 22 0 8 11 14 36 14 57 0 20 7
42 15 49 8 7 15 17 15 23 0 6 8 19 17 29 13 14 14 21 5 30 -7 7 -12 22 -12 34
0 36 -20 39 -26 4z"/>
<path d="M5742 15678 c-5 -7 -10 -35 -11 -63 l0 -49 19 32 c11 18 20 41 20 52
0 13 7 20 19 20 11 0 23 5 26 10 9 15 -61 12 -73 -2z"/>
<path d="M3061 19153 c-12 -23 -18 -85 -8 -84 4 1 11 1 15 1 5 0 17 15 27 34
16 29 17 37 6 50 -17 21 -28 20 -40 -1z"/>
<path d="M13039 17264 c-9 -11 -23 -14 -44 -11 -39 6 -80 -31 -70 -63 8 -24
25 -17 25 11 0 27 17 24 24 -6 5 -20 13 -25 37 -25 16 0 41 -7 55 -16 19 -13
30 -15 47 -6 12 6 31 13 42 15 11 2 19 8 18 15 -3 13 109 6 139 -9 19 -10 69
-12 92 -3 22 9 19 24 -12 60 -36 41 -104 59 -167 43 -30 -8 -49 -8 -58 -1 -21
17 -113 14 -128 -4z m-19 -34 c0 -5 -4 -10 -10 -10 -5 0 -10 5 -10 10 0 6 5
10 10 10 6 0 10 -4 10 -10z"/>
<path d="M13656 17243 c5 -5 12 -12 16 -18 4 -6 8 -2 8 8 0 9 -7 17 -17 17 -9
0 -12 -3 -7 -7z"/>
<path d="M12809 17207 c-9 -21 -9 -30 1 -42 17 -20 27 -19 41 6 9 18 7 25 -9
42 l-21 20 -12 -26z"/>
<path d="M13483 17206 c-36 -23 -42 -41 -17 -50 29 -11 53 -6 73 16 22 22 20
33 -7 47 -12 6 -27 2 -49 -13z"/>
<path d="M13320 17058 c-29 -16 -47 -18 -107 -13 -45 3 -74 2 -78 -5 -4 -7 67
-10 222 -9 125 1 215 4 198 6 -34 4 -162 29 -185 36 -8 2 -31 -4 -50 -15z"/>
<path d="M11563 18953 c-7 -3 -13 -11 -13 -20 0 -12 2 -12 16 2 18 17 16 25
-3 18z"/>
<path d="M11312 18860 c0 -14 2 -19 5 -12 2 6 2 18 0 25 -3 6 -5 1 -5 -13z"/>
<path d="M11322 18798 c2 -12 10 -23 18 -23 22 0 19 39 -3 43 -15 3 -18 -1
-15 -20z"/>
<path d="M12242 18455 c0 -16 2 -22 5 -12 2 9 2 23 0 30 -3 6 -5 -1 -5 -18z"/>
<path d="M12243 18315 c0 -44 2 -61 4 -37 2 23 2 59 0 80 -2 20 -4 1 -4 -43z"/>
<path d="M12241 18204 c0 -11 3 -14 6 -6 3 7 2 16 -1 19 -3 4 -6 -2 -5 -13z"/>
<path d="M12417 17193 c-14 -13 -6 -33 13 -33 11 0 20 4 20 9 0 13 -26 32 -33
24z"/>
<path d="M12697 16431 c-17 -6 -17 -8 -3 -20 18 -15 50 -7 44 11 -5 15 -19 18
-41 9z"/>
<path d="M1737 11762 c-29 -32 -21 -42 38 -42 47 0 54 2 48 18 -16 45 -57 57
-86 24z"/>
<path d="M2507 11762 c-29 -32 -21 -42 38 -42 47 0 54 2 48 18 -16 45 -57 57
-86 24z"/>
<path d="M3410 11675 c-16 -19 -4 -52 21 -60 29 -9 69 20 69 50 0 22 -4 25
-39 25 -21 0 -44 -6 -51 -15z"/>
<path d="M3658 11769 c-14 -8 -18 -24 -18 -74 0 -55 3 -66 21 -75 67 -36 120
68 68 134 -22 27 -43 32 -71 15z"/>
<path d="M4133 11765 c-40 -28 -38 -115 3 -142 68 -44 127 62 73 131 -23 29
-45 33 -76 11z"/>
<path d="M3341 10874 c-12 -15 -21 -30 -21 -35 0 -18 22 -20 40 -4 17 15 20
15 43 1 20 -14 26 -14 36 -3 9 11 6 20 -10 41 -26 34 -62 34 -88 0z"/>
<path d="M3542 10884 c-40 -28 -25 -75 16 -48 22 14 25 14 42 -1 37 -33 55 10
20 45 -24 24 -48 25 -78 4z"/>
<path d="M4041 10874 c-12 -15 -21 -30 -21 -35 0 -18 22 -20 40 -4 17 15 20
15 43 1 20 -14 26 -14 36 -3 9 11 6 20 -10 41 -26 34 -62 34 -88 0z"/>
<path d="M4242 10884 c-40 -28 -25 -75 16 -48 22 14 25 14 42 -1 37 -33 55 10
20 45 -24 24 -48 25 -78 4z"/>
<path d="M4740 10880 c-36 -36 -17 -78 21 -44 18 16 20 16 38 0 22 -20 41 -14
41 14 0 21 -36 50 -62 50 -10 0 -27 -9 -38 -20z"/>
<path d="M4931 10874 c-12 -15 -21 -30 -21 -35 0 -15 25 -16 42 -2 14 13 19
13 41 -1 20 -14 26 -14 36 -3 9 11 6 20 -10 41 -26 34 -62 34 -88 0z"/>
<path d="M5440 10880 c-36 -36 -17 -78 21 -44 18 16 20 16 38 0 22 -20 41 -14
41 14 0 21 -36 50 -62 50 -10 0 -27 -9 -38 -20z"/>
<path d="M5631 10874 c-12 -15 -21 -30 -21 -35 0 -15 25 -16 42 -2 14 13 19
13 41 -1 20 -14 26 -14 36 -3 9 11 6 20 -10 41 -26 34 -62 34 -88 0z"/>
<path d="M1491 10771 c-41 -41 -35 -157 9 -181 32 -17 70 -11 95 15 21 20 25
34 25 80 0 46 -4 60 -25 80 -30 30 -77 33 -104 6z"/>
<path d="M2801 10764 c-36 -46 -29 -54 50 -54 l71 0 -6 28 c-14 56 -79 71
-115 26z"/>
</g>
</svg>
