<?xml version="1.0" standalone="no"?>
<!DOCTYPE svg PUBLIC "-//W3C//DTD SVG 20010904//EN"
 "http://www.w3.org/TR/2001/REC-SVG-20010904/DTD/svg10.dtd">
<svg version="1.0" xmlns="http://www.w3.org/2000/svg"
 width="1080.000000pt" height="2400.000000pt" viewBox="0 0 1080.000000 2400.000000"
 preserveAspectRatio="xMidYMid meet">

<g transform="translate(0.000000,2400.000000) scale(0.100000,-0.100000)"
fill="#000000" stroke="none">
<path d="M6230 23447 c-16 -8 -28 -26 -34 -48 -22 -87 39 -155 97 -108 23 18
27 28 27 74 0 46 -4 56 -26 74 -31 24 -31 25 -64 8z m50 -36 c14 -28 13 -74
-4 -96 -21 -29 -46 -3 -46 45 0 67 26 94 50 51z"/>
<path d="M6390 23447 c-16 -8 -28 -26 -34 -48 -22 -87 39 -155 97 -108 23 18
27 28 27 74 0 46 -4 56 -26 74 -31 24 -31 25 -64 8z m50 -36 c14 -28 13 -74
-4 -96 -21 -29 -46 -3 -46 45 0 67 26 94 50 51z"/>
<path d="M5731 23437 c-6 -6 -11 -36 -11 -66 l0 -54 -25 23 c-20 18 -28 21
-37 12 -9 -9 -4 -19 22 -42 l35 -30 -35 -30 c-26 -23 -31 -33 -22 -42 9 -9 17
-6 37 12 l25 23 0 -54 c0 -80 12 -86 81 -36 33 22 59 44 59 48 0 4 -20 22 -45
40 -25 18 -45 35 -45 39 0 4 20 21 45 39 25 18 45 36 45 40 0 4 -26 26 -59 48
-43 31 -61 39 -70 30z m62 -61 c22 -17 22 -21 -8 -40 l-25 -16 0 35 c0 38 6
42 33 21z m17 -174 c0 -6 -33 -31 -42 -32 -5 0 -8 16 -8 35 l0 35 25 -16 c14
-9 25 -19 25 -22z"/>
<path d="M6010 23440 c0 -5 18 -10 40 -10 22 0 40 -5 40 -10 0 -6 -13 -40 -29
-75 -26 -56 -27 -65 -13 -65 11 0 28 25 50 74 17 41 32 79 32 85 0 7 -23 11
-60 11 -33 0 -60 -4 -60 -10z"/>
<path d="M6675 23426 c-27 -13 -58 -32 -67 -43 -16 -17 -16 -22 -4 -39 14 -19
15 -19 38 3 76 72 230 72 305 1 23 -21 23 -21 37 -2 13 17 12 21 -2 38 -34 38
-112 66 -187 66 -53 0 -82 -6 -120 -24z"/>
<path d="M2937 23424 c-4 -4 -7 -47 -7 -96 0 -81 2 -88 20 -88 18 0 20 7 20
63 0 36 5 68 12 75 7 7 41 12 83 12 42 0 76 -5 83 -12 7 -7 12 -39 12 -75 l0
-63 35 0 36 0 -3 93 -3 92 -141 3 c-77 1 -143 -1 -147 -4z"/>
<path d="M7505 23418 c-3 -8 -4 -75 -3 -149 l3 -134 30 0 30 0 0 145 0 145
-28 3 c-16 2 -29 -2 -32 -10z"/>
<path d="M8325 23405 c-23 -22 -25 -31 -25 -125 0 -94 2 -103 25 -125 l24 -25
266 0 266 0 24 25 c23 22 25 31 25 125 0 94 -2 103 -25 125 l-24 25 -266 0
-266 0 -24 -25z m563 -17 c8 -8 12 -47 12 -108 0 -61 -4 -100 -12 -108 -9 -9
-83 -12 -273 -12 -190 0 -264 3 -273 12 -8 8 -12 47 -12 108 0 61 4 100 12
108 9 9 83 12 273 12 190 0 264 -3 273 -12z"/>
<path d="M8362 23368 c-7 -7 -12 -42 -12 -88 0 -46 5 -81 12 -88 9 -9 76 -12
238 -12 162 0 229 3 238 12 16 16 16 160 0 176 -9 9 -76 12 -238 12 -162 0
-229 -3 -238 -12z"/>
<path d="M9778 23409 c-27 -15 -25 -85 3 -99 31 -17 62 -8 79 23 13 24 13 30
0 55 -17 29 -53 39 -82 21z m52 -49 c0 -20 -5 -30 -15 -30 -18 0 -30 24 -21
45 10 28 36 17 36 -15z"/>
<path d="M1922 23385 c-36 -30 -39 -40 -16 -49 11 -4 22 1 31 14 29 41 94 10
76 -37 -4 -10 -33 -47 -65 -83 -32 -36 -58 -70 -58 -77 0 -10 23 -13 85 -13
69 0 85 3 85 15 0 12 -13 15 -56 15 l-56 0 52 59 c59 69 72 114 43 149 -10 12
-34 25 -54 28 -28 5 -41 1 -67 -21z"/>
<path d="M2242 23385 c-36 -30 -39 -40 -16 -49 11 -4 22 1 31 14 29 41 94 10
76 -37 -4 -10 -33 -47 -65 -83 -32 -36 -58 -70 -58 -77 0 -10 23 -13 85 -13
69 0 85 3 85 15 0 12 -13 15 -56 15 l-56 0 52 59 c59 69 72 114 43 149 -10 12
-34 25 -54 28 -28 5 -41 1 -67 -21z"/>
<path d="M9373 23390 c-32 -19 -38 -35 -34 -85 3 -32 50 -67 83 -63 15 3 28 3
28 1 0 -2 -16 -25 -36 -51 -31 -41 -33 -47 -18 -51 36 -7 114 111 114 173 0
48 -8 65 -41 81 -37 20 -58 19 -96 -5z m95 -63 c3 -32 0 -38 -23 -47 -39 -15
-65 3 -65 44 0 42 6 48 50 44 33 -3 35 -5 38 -41z"/>
<path d="M1733 23383 c-33 -17 -50 -62 -18 -49 8 3 22 9 30 12 13 5 15 -10 15
-100 0 -99 1 -106 20 -106 19 0 20 7 20 130 0 145 -1 146 -67 113z"/>
<path d="M2480 23363 c-69 -103 -78 -156 -35 -198 52 -53 155 -18 155 53 0 45
-35 82 -76 82 -40 0 -41 4 -11 44 39 52 40 56 15 56 -15 0 -31 -13 -48 -37z
m64 -109 c21 -20 20 -43 -1 -66 -20 -22 -46 -23 -67 -2 -31 30 -9 84 34 84 10
0 26 -7 34 -16z"/>
<path d="M9560 23385 c0 -11 12 -15 47 -15 l47 0 -43 -44 c-49 -50 -47 -67 4
-59 41 7 65 -9 65 -43 0 -48 -54 -70 -88 -36 -20 20 -42 18 -42 -3 0 -22 42
-45 83 -45 74 0 112 76 66 134 -11 14 -30 26 -42 26 -19 0 -17 4 16 38 54 55
50 62 -38 62 -60 0 -75 -3 -75 -15z"/>
<path d="M9861 23293 c-40 -63 -58 -100 -51 -107 5 -5 11 -8 13 -5 21 27 117
189 117 198 0 29 -23 3 -79 -86z"/>
<path d="M2114 23355 c-7 -18 3 -35 22 -35 20 0 30 30 13 41 -20 12 -29 11
-35 -6z"/>
<path d="M2990 23235 l0 -135 75 0 75 0 0 135 0 135 -75 0 -75 0 0 -135z m93
108 c-7 -2 -21 -2 -30 0 -10 3 -4 5 12 5 17 0 24 -2 18 -5z"/>
<path d="M6705 23343 c-16 -8 -38 -22 -48 -31 -16 -14 -16 -17 -1 -33 16 -17
17 -17 44 3 55 40 135 40 191 -1 26 -19 27 -19 43 -2 15 16 15 19 -1 33 -56
49 -167 64 -228 31z"/>
<path d="M7385 23337 c-3 -7 -4 -56 -3 -108 l3 -94 30 0 30 0 0 105 0 105 -28
3 c-16 2 -29 -2 -32 -11z"/>
<path d="M7955 23337 c-3 -7 -4 -56 -3 -108 l3 -94 30 0 30 0 0 105 0 105 -28
3 c-16 2 -29 -2 -32 -11z"/>
<path d="M8945 23328 c-9 -24 -1 -103 10 -103 14 0 19 95 6 108 -7 7 -12 5
-16 -5z"/>
<path d="M6134 23299 c-7 -12 15 -31 28 -23 4 3 8 12 8 20 0 17 -26 19 -36 3z"/>
<path d="M7264 23267 c-3 -8 -4 -41 -2 -73 3 -58 3 -59 33 -59 l30 0 0 70 c0
69 0 70 -28 73 -17 2 -29 -2 -33 -11z"/>
<path d="M7834 23267 c-3 -8 -4 -41 -2 -73 3 -58 3 -59 33 -59 l30 0 0 70 c0
69 0 70 -28 73 -17 2 -29 -2 -33 -11z"/>
<path d="M9909 23266 c-27 -13 -38 -68 -18 -92 14 -17 70 -19 87 -2 16 16 15
73 0 85 -24 18 -45 21 -69 9z m48 -60 c-8 -20 -36 -21 -43 -1 -4 8 0 22 7 31
11 13 14 13 27 0 8 -8 12 -22 9 -30z"/>
<path d="M6720 23252 c-19 -16 -21 -22 -11 -40 11 -21 14 -21 34 -7 12 8 35
15 52 15 17 0 40 -7 52 -15 20 -14 23 -14 34 6 10 19 8 25 -12 40 -33 25 -119
26 -149 1z"/>
<path d="M6316 23243 c-3 -10 -10 -40 -16 -68 -6 -27 -13 -58 -16 -67 -3 -11
0 -18 9 -18 9 0 19 25 30 75 10 42 17 80 17 85 0 17 -18 11 -24 -7z"/>
<path d="M6950 23235 l-23 -25 53 0 53 0 -23 25 c-13 14 -26 25 -30 25 -4 0
-17 -11 -30 -25z"/>
<path d="M7144 23237 c-3 -8 -4 -34 -2 -58 3 -41 5 -44 33 -44 30 0 30 1 30
55 0 53 -1 55 -28 58 -17 2 -29 -2 -33 -11z"/>
<path d="M7714 23237 c-3 -8 -4 -34 -2 -58 3 -41 5 -44 33 -44 30 0 30 1 30
55 0 53 -1 55 -28 58 -17 2 -29 -2 -33 -11z"/>
<path d="M6050 23175 c0 -51 3 -65 15 -65 10 0 15 10 15 27 l0 27 28 -27 c39
-37 60 -35 28 4 -31 37 -32 41 -6 64 11 10 20 22 20 27 0 17 -25 7 -47 -19
l-22 -28 -1 28 c0 17 -5 27 -15 27 -12 0 -15 -14 -15 -65z"/>
<path d="M6170 23175 l0 -65 45 0 c48 0 72 22 55 51 -5 7 -7 22 -4 32 9 28
-14 47 -57 47 l-39 0 0 -65z m70 30 c0 -8 -9 -15 -20 -15 -11 0 -20 7 -20 15
0 8 9 15 20 15 11 0 20 -7 20 -15z m-1 -44 c18 -11 5 -31 -20 -31 -12 0 -19 7
-19 20 0 21 16 26 39 11z"/>
<path d="M6362 23228 c-22 -22 -13 -47 23 -62 47 -20 46 -40 -1 -33 -25 4 -34
2 -31 -6 2 -7 19 -13 39 -15 64 -6 78 48 18 71 -42 16 -41 41 1 32 24 -5 30
-4 27 6 -6 18 -60 23 -76 7z"/>
<path d="M2114 23215 c-4 -9 -2 -21 4 -27 15 -15 44 -1 40 19 -4 23 -36 29
-44 8z"/>
<path d="M2902 23208 c7 -20 68 -23 68 -4 0 12 -10 16 -36 16 -24 0 -34 -4
-32 -12z"/>
<path d="M3160 23204 c0 -12 10 -14 47 -12 66 4 70 28 4 28 -39 0 -51 -4 -51
-16z"/>
<path d="M6766 23164 c-7 -19 10 -44 29 -44 19 0 36 25 29 44 -3 9 -16 16 -29
16 -13 0 -26 -7 -29 -16z"/>
<path d="M6953 23143 l27 -28 27 28 28 27 -55 0 -55 0 28 -27z"/>
<path d="M6020 16548 c-75 -21 -115 -70 -127 -153 -5 -43 -7 -45 -39 -45 -34
0 -34 -1 -34 -45 0 -45 0 -45 35 -45 l35 0 0 -195 0 -195 65 0 65 0 0 195 0
195 45 0 45 0 0 45 0 45 -45 0 c-43 0 -45 1 -45 30 0 17 9 39 21 51 20 20 29
21 104 16 l83 -6 5 42 c3 23 3 45 -1 49 -10 10 -107 28 -146 27 -17 0 -47 -5
-66 -11z"/>
<path d="M5646 16517 c-14 -15 -26 -33 -26 -42 0 -9 12 -27 26 -42 20 -20 31
-24 57 -19 36 7 57 30 57 61 0 31 -21 54 -57 61 -26 5 -37 1 -57 -19z"/>
<path d="M7692 16524 c-32 -22 -30 -78 3 -100 17 -11 34 -14 52 -9 41 10 53
24 53 61 0 36 -28 64 -65 64 -11 0 -31 -7 -43 -16z"/>
<path d="M2434 16501 c-104 -47 -156 -148 -156 -301 -1 -111 10 -158 51 -222
103 -162 351 -152 443 19 53 97 57 269 11 375 -24 54 -75 105 -128 129 -54 25
-166 25 -221 0z m190 -111 c47 -42 61 -87 60 -200 0 -153 -44 -223 -139 -223
-95 0 -138 70 -139 223 0 113 13 159 60 200 28 24 44 30 79 30 35 0 51 -6 79
-30z"/>
<path d="M2948 16513 l-98 -4 0 -49 0 -50 95 0 95 0 0 -270 0 -270 65 0 65 0
0 270 0 270 100 0 100 0 0 50 0 50 -67 0 c-38 0 -111 2 -163 4 -52 2 -139 1
-192 -1z"/>
<path d="M4229 16413 c21 -60 71 -206 111 -325 l73 -218 69 0 c37 0 68 2 68 3
0 4 206 605 217 634 5 11 -7 13 -68 11 l-73 -3 -71 -242 c-38 -133 -73 -239
-76 -235 -4 4 -38 114 -75 244 l-69 238 -72 0 -72 0 38 -107z"/>
<path d="M3440 16191 l0 -321 65 0 65 0 0 114 0 113 103 5 c124 5 184 29 223
88 62 94 31 231 -64 288 -46 26 -52 27 -219 30 l-173 4 0 -321z m325 195 c31
-31 40 -69 29 -115 -13 -52 -57 -72 -149 -69 l-70 3 -3 103 -3 102 86 0 c77 0
88 -2 110 -24z"/>
<path d="M7390 16410 l0 -60 -35 0 c-35 0 -35 0 -35 -45 0 -45 0 -45 35 -45
l35 0 0 -157 c0 -139 2 -162 20 -190 24 -40 79 -58 144 -49 l46 7 0 45 c0 43
-1 44 -33 44 -53 0 -57 10 -57 162 l0 138 40 0 40 0 0 45 0 45 -40 0 -40 0 0
60 0 60 -60 0 -60 0 0 -60z"/>
<path d="M4948 16351 c-88 -29 -146 -108 -155 -211 -11 -115 33 -206 120 -252
83 -44 222 -24 279 38 16 18 15 21 -13 51 l-28 33 -37 -25 c-26 -17 -50 -25
-81 -25 -38 0 -50 5 -79 34 -19 19 -34 43 -34 55 0 20 4 21 150 21 l150 0 0
48 c0 101 -41 181 -111 218 -37 19 -123 27 -161 15z m121 -115 c12 -13 23 -36
24 -52 l2 -29 -89 -3 -89 -3 7 33 c13 71 99 103 145 54z"/>
<path d="M5472 16345 c-18 -8 -35 -21 -38 -30 -9 -24 -24 -18 -24 10 0 24 -3
25 -60 25 l-60 0 0 -240 0 -240 65 0 65 0 0 164 0 165 26 20 c18 14 41 21 71
21 l44 0 -3 58 c-3 53 -5 57 -28 59 -14 2 -40 -4 -58 -12z"/>
<path d="M6537 16348 c-57 -15 -112 -72 -131 -137 -60 -203 58 -374 239 -347
75 12 155 85 155 142 0 22 -4 24 -55 24 -32 0 -55 -4 -55 -10 0 -23 -50 -60
-80 -60 -67 0 -95 44 -95 150 0 71 18 125 46 140 48 26 112 -2 125 -55 6 -23
11 -25 60 -25 51 0 54 1 54 25 0 115 -128 189 -263 153z"/>
<path d="M7004 16351 c-51 -13 -101 -49 -118 -85 -25 -52 -22 -56 44 -56 33 0
60 4 60 10 0 20 41 50 69 50 41 0 70 -28 73 -70 l3 -35 -80 -6 c-129 -10 -186
-51 -192 -141 -5 -67 20 -111 80 -138 56 -26 94 -25 151 4 47 24 48 24 53 5 5
-16 15 -19 62 -19 l56 0 -3 177 c-3 159 -6 183 -25 222 -15 30 -34 51 -59 64
-42 21 -128 30 -174 18z m132 -307 c-7 -57 -17 -69 -63 -85 -31 -10 -39 -9
-62 8 -36 27 -39 66 -7 98 21 21 35 25 82 25 l57 0 -7 -46z"/>
<path d="M8065 16356 c-5 -2 -22 -7 -38 -10 -42 -10 -104 -71 -124 -124 -21
-56 -23 -160 -4 -215 16 -47 63 -102 105 -124 20 -11 57 -17 102 -17 62 -1 77
3 119 29 73 45 100 104 100 215 0 109 -28 170 -97 213 -42 26 -133 44 -163 33z
m100 -120 c24 -24 45 -82 45 -124 0 -49 -23 -113 -48 -132 -27 -22 -72 -26
-104 -9 -63 34 -65 241 -1 278 32 19 82 13 108 -13z"/>
<path d="M8600 16345 c-19 -9 -42 -23 -51 -31 -15 -13 -17 -12 -23 11 -6 23
-11 25 -61 25 l-55 0 0 -235 0 -235 60 0 60 0 0 165 c0 163 0 166 25 190 31
32 86 34 115 5 18 -18 20 -33 20 -190 l0 -170 66 0 66 0 -4 183 c-5 197 -14
241 -61 272 -36 23 -115 28 -157 10z"/>
<path d="M5630 16110 l0 -240 60 0 60 0 0 240 0 240 -60 0 -60 0 0 -240z"/>
<path d="M6180 16110 l0 -240 60 0 60 0 0 240 0 240 -60 0 -60 0 0 -240z"/>
<path d="M7670 16110 l0 -240 65 0 65 0 0 240 0 240 -65 0 -65 0 0 -240z"/>
<path d="M2780 15165 c0 -140 2 -165 15 -165 12 0 15 16 15 85 0 74 3 87 22
105 24 22 40 25 69 10 17 -9 19 -22 19 -105 0 -88 1 -95 20 -95 19 0 20 7 20
95 0 88 -2 98 -25 120 -28 29 -54 31 -95 10 l-30 -16 0 61 c0 47 -3 60 -15 60
-13 0 -15 -25 -15 -165z"/>
<path d="M5210 15270 l0 -59 -28 16 c-75 43 -147 -38 -128 -143 13 -66 75
-101 128 -71 24 14 28 14 28 2 0 -8 9 -15 20 -15 19 0 20 7 20 165 0 158 -1
165 -20 165 -18 0 -20 -7 -20 -60z m-22 -76 c18 -13 22 -25 22 -74 0 -49 -4
-61 -22 -74 -51 -36 -98 -1 -98 74 0 75 47 110 98 74z"/>
<path d="M1480 15160 l0 -160 100 0 c82 0 100 3 100 15 0 12 -16 15 -80 15
l-80 0 0 60 0 60 70 0 c56 0 70 3 70 15 0 12 -14 15 -70 15 l-70 0 0 55 0 55
80 0 c64 0 80 3 80 15 0 12 -18 15 -100 15 l-100 0 0 -160z"/>
<path d="M3440 15303 c-51 -26 -72 -73 -68 -155 4 -81 26 -116 85 -137 35 -13
46 -13 78 0 55 21 78 57 83 132 7 104 -30 161 -109 173 -22 3 -47 -2 -69 -13z
m118 -49 c18 -21 22 -37 22 -94 0 -58 -4 -73 -24 -96 -18 -21 -32 -28 -61 -28
-59 0 -85 37 -85 122 0 46 5 75 16 90 33 48 92 50 132 6z"/>
<path d="M3660 15305 c0 -11 12 -15 50 -15 l50 0 0 -145 c0 -138 1 -145 20
-145 19 0 20 7 20 145 l0 145 50 0 c38 0 50 4 50 15 0 13 -20 15 -120 15 -100
0 -120 -2 -120 -15z"/>
<path d="M3950 15160 c0 -153 1 -160 20 -160 18 0 20 7 20 65 l0 65 64 0 c49
0 69 5 89 20 55 43 40 136 -24 159 -18 6 -63 11 -100 11 l-69 0 0 -160z m164
109 c29 -23 33 -54 10 -87 -13 -19 -24 -22 -75 -22 l-59 0 0 65 0 65 49 0 c34
0 56 -6 75 -21z"/>
<path d="M6228 15305 c-32 -18 -52 -74 -44 -120 12 -63 84 -95 134 -59 20 14
22 14 22 -1 0 -37 -30 -74 -70 -86 -22 -7 -40 -18 -40 -26 0 -30 85 -1 118 41
23 31 38 117 28 171 -14 74 -88 114 -148 80z m91 -41 c41 -52 18 -124 -40
-124 -54 0 -81 88 -39 130 27 27 55 25 79 -6z"/>
<path d="M6508 15297 c-42 -15 -58 -26 -58 -39 0 -17 2 -17 36 -3 20 8 38 15
40 15 2 0 4 -61 4 -135 0 -128 1 -135 20 -135 19 0 20 7 20 160 0 88 -1 160
-2 159 -2 0 -29 -10 -60 -22z"/>
<path d="M7100 15313 c-51 -19 -69 -93 -31 -127 18 -17 18 -18 -5 -41 -31 -31
-31 -76 0 -112 21 -24 32 -28 76 -28 44 0 55 4 76 28 13 15 24 37 24 48 0 25
-18 61 -37 72 -11 7 -10 13 7 34 20 26 25 58 14 88 -13 32 -81 54 -124 38z
m71 -33 c13 -7 19 -21 19 -45 0 -35 -20 -55 -54 -55 -20 0 -56 35 -56 55 0 20
36 55 56 55 8 0 24 -5 35 -10z m11 -147 c39 -35 9 -103 -46 -103 -48 0 -75 70
-40 104 20 21 63 20 86 -1z"/>
<path d="M7343 15310 c-44 -18 -67 -104 -41 -153 25 -48 82 -62 127 -30 24 16
24 16 17 -13 -10 -41 -43 -73 -83 -80 -20 -4 -33 -12 -33 -21 0 -12 8 -14 38
-8 48 8 78 28 95 63 34 66 29 185 -10 224 -23 22 -79 32 -110 18z m82 -45 c33
-32 34 -87 3 -109 -51 -36 -98 -7 -98 60 0 33 5 46 22 58 31 22 45 20 73 -9z"/>
<path d="M7602 15209 c-40 -61 -72 -115 -72 -120 0 -5 34 -9 75 -9 l75 0 0
-40 c0 -54 27 -56 32 -2 2 30 7 38 26 40 31 5 29 32 -3 32 l-25 0 0 105 c0
143 -13 142 -108 -6z m78 -24 l0 -75 -50 0 c-27 0 -50 2 -50 5 0 8 90 145 95
145 3 0 5 -34 5 -75z"/>
<path d="M7844 15306 c-30 -13 -60 -66 -47 -80 12 -12 33 -6 33 9 0 23 37 55
63 55 31 0 57 -29 57 -63 0 -25 -64 -111 -124 -166 -14 -14 -26 -33 -26 -43 0
-16 10 -18 100 -18 82 0 100 3 100 15 0 12 -15 15 -75 15 -41 0 -75 4 -75 8 0
4 19 26 41 47 49 47 99 121 99 146 0 34 -23 68 -53 79 -39 13 -55 12 -93 -4z"/>
<path d="M8104 15310 c-35 -14 -54 -50 -54 -103 0 -38 5 -53 25 -72 29 -29 79
-33 114 -9 23 16 23 16 16 -7 -12 -43 -41 -74 -78 -82 -52 -13 -52 -42 1 -32
81 15 112 61 112 169 0 77 -14 112 -51 132 -31 16 -54 17 -85 4z m66 -30 c27
-14 46 -81 31 -108 -23 -43 -89 -40 -109 4 -17 36 -15 58 9 88 22 28 39 32 69
16z"/>
<path d="M8391 15302 c-61 -30 -76 -62 -76 -159 0 -83 1 -85 33 -114 40 -36
80 -38 120 -4 37 31 48 81 28 129 -22 52 -77 72 -127 46 -15 -8 -19 -7 -19 4
0 25 49 74 80 81 32 7 42 35 13 35 -10 0 -33 -8 -52 -18z m63 -144 c22 -31 20
-84 -4 -108 -26 -26 -48 -25 -77 2 -28 26 -31 82 -6 110 23 25 68 23 87 -4z"/>
<path d="M8615 15311 c-52 -22 -66 -77 -32 -117 l24 -28 -23 -19 c-17 -13 -24
-29 -24 -53 0 -50 15 -72 59 -85 42 -13 99 0 121 26 21 25 16 82 -9 109 l-23
24 21 21 c60 60 -32 157 -114 122z m77 -38 c34 -31 11 -93 -35 -93 -27 0 -57
28 -57 53 0 48 56 73 92 40z m12 -145 c21 -30 20 -54 -4 -78 -41 -41 -103 -16
-103 40 0 58 75 84 107 38z"/>
<path d="M8870 15313 c-51 -19 -69 -93 -31 -127 18 -17 18 -18 -5 -41 -31 -31
-31 -76 0 -112 21 -24 32 -28 76 -28 44 0 55 4 76 28 13 15 24 37 24 48 0 25
-18 61 -37 72 -11 7 -10 13 7 34 20 26 25 58 14 88 -13 32 -81 54 -124 38z
m71 -33 c13 -7 19 -21 19 -45 0 -35 -20 -55 -54 -55 -20 0 -56 35 -56 55 0 20
36 55 56 55 8 0 24 -5 35 -10z m11 -147 c39 -35 9 -103 -46 -103 -48 0 -75 70
-40 104 20 21 63 20 86 -1z"/>
<path d="M9050 15305 c0 -12 16 -15 85 -15 47 0 85 -4 85 -9 0 -5 -27 -68 -60
-139 -33 -72 -60 -133 -60 -136 0 -4 8 -6 18 -6 12 0 35 40 85 153 37 83 67
155 67 160 0 4 -49 7 -110 7 -91 0 -110 -3 -110 -15z"/>
<path d="M9360 15308 c-32 -17 -56 -62 -36 -66 8 -2 26 8 40 22 14 15 34 26
46 26 23 0 60 -33 60 -55 0 -23 -37 -55 -65 -55 -16 0 -25 -6 -25 -15 0 -10
10 -15 28 -15 60 0 85 -75 36 -106 -32 -21 -74 -10 -89 24 -11 24 -45 30 -45
8 0 -8 11 -28 24 -43 21 -24 32 -28 76 -28 44 0 55 4 76 28 31 36 31 81 0 112
-23 23 -23 24 -5 41 26 23 25 85 0 108 -25 23 -89 30 -121 14z"/>
<path d="M1990 15265 c0 -18 -5 -25 -20 -25 -11 0 -20 -7 -20 -15 0 -8 9 -15
20 -15 18 0 20 -7 20 -85 0 -72 3 -88 20 -105 23 -23 60 -27 60 -6 0 8 -9 18
-20 21 -18 6 -20 15 -20 91 0 77 2 84 20 84 11 0 20 7 20 15 0 8 -9 15 -20 15
-15 0 -20 7 -20 25 0 18 -5 25 -20 25 -15 0 -20 -7 -20 -25z"/>
<path d="M2640 15265 c0 -18 -5 -25 -20 -25 -11 0 -20 -7 -20 -15 0 -8 9 -15
20 -15 18 0 20 -7 20 -85 0 -72 3 -88 20 -105 23 -23 60 -27 60 -6 0 8 -9 18
-20 21 -18 6 -20 15 -20 91 0 77 2 84 20 84 11 0 20 7 20 15 0 8 -9 15 -20 15
-15 0 -20 7 -20 25 0 18 -5 25 -20 25 -15 0 -20 -7 -20 -25z"/>
<path d="M5440 15265 c0 -18 -5 -25 -20 -25 -11 0 -20 -7 -20 -15 0 -8 9 -15
20 -15 18 0 20 -7 20 -88 0 -96 12 -122 58 -122 28 0 29 26 2 33 -18 5 -20 14
-20 91 0 79 2 86 20 86 11 0 20 7 20 15 0 8 -9 15 -20 15 -15 0 -20 7 -20 25
0 18 -5 25 -20 25 -15 0 -20 -7 -20 -25z"/>
<path d="M6010 15215 l0 -45 -45 0 c-38 0 -45 -3 -45 -20 0 -17 7 -20 45 -20
l45 0 0 -50 c0 -43 3 -50 20 -50 17 0 20 7 20 50 l0 50 45 0 c38 0 45 3 45 20
0 17 -7 20 -45 20 l-45 0 0 45 c0 38 -3 45 -20 45 -17 0 -20 -7 -20 -45z"/>
<path d="M1730 15120 c0 -99 3 -120 15 -120 11 0 15 19 17 86 3 81 5 88 30
107 23 17 31 19 53 9 24 -11 25 -15 25 -107 0 -88 1 -95 20 -95 19 0 20 7 20
99 0 96 -1 100 -26 120 -31 25 -63 27 -90 6 -25 -19 -34 -19 -34 0 0 8 -7 15
-15 15 -12 0 -15 -20 -15 -120z"/>
<path d="M2172 15227 c-12 -7 -29 -23 -38 -35 -20 -29 -20 -116 -1 -146 33
-49 123 -59 161 -17 23 25 3 37 -26 17 -43 -30 -98 -10 -113 42 -6 22 -5 22
74 22 l81 0 0 34 c0 68 -80 116 -138 83z m82 -33 c9 -8 16 -24 16 -35 0 -16
-7 -19 -55 -19 -48 0 -55 3 -55 19 0 22 35 51 62 51 9 0 24 -7 32 -16z"/>
<path d="M2360 15120 c0 -113 1 -120 20 -120 18 0 20 7 20 88 0 94 8 112 47
112 16 0 23 6 23 20 0 24 -18 26 -48 4 -20 -14 -22 -14 -22 0 0 9 -9 16 -20
16 -19 0 -20 -7 -20 -120z"/>
<path d="M3064 15221 c-83 -51 -60 -200 33 -217 35 -7 103 16 103 34 0 18 -13
21 -34 7 -30 -22 -64 -18 -91 10 -45 44 -35 55 55 55 79 0 80 0 80 25 0 38
-27 85 -56 95 -37 14 -55 12 -90 -9z m88 -28 c10 -9 18 -24 18 -35 0 -15 -8
-18 -60 -18 -33 0 -60 4 -60 9 0 4 9 20 21 35 23 30 54 33 81 9z"/>
<path d="M4381 15228 c-33 -18 -45 -40 -37 -71 5 -20 18 -29 63 -44 67 -23 88
-47 59 -69 -28 -20 -62 -18 -86 6 -11 11 -27 20 -35 20 -41 0 12 -57 61 -66
44 -8 99 15 106 44 10 38 -14 66 -75 85 -40 13 -57 23 -57 36 0 42 54 55 85
21 21 -23 45 -26 45 -7 0 39 -85 69 -129 45z"/>
<path d="M4614 15221 c-83 -51 -60 -200 33 -217 35 -7 103 16 103 34 0 18 -13
21 -34 7 -30 -22 -64 -18 -91 10 -45 44 -35 55 55 55 79 0 80 0 80 25 0 38
-27 85 -56 95 -37 14 -55 12 -90 -9z m88 -28 c10 -9 18 -24 18 -35 0 -15 -8
-18 -60 -18 -33 0 -60 4 -60 9 0 4 9 20 21 35 23 30 54 33 81 9z"/>
<path d="M4810 15120 c0 -113 1 -120 20 -120 19 0 20 7 20 89 0 82 2 91 22
105 59 41 88 4 88 -111 0 -67 3 -83 15 -83 12 0 15 17 15 96 0 52 -4 104 -10
114 -14 26 -64 35 -100 17 -26 -13 -30 -13 -30 -1 0 8 -9 14 -20 14 -19 0 -20
-7 -20 -120z"/>
<path d="M5624 15230 c-68 -27 -87 -134 -35 -192 25 -28 36 -33 75 -33 63 0
97 34 103 102 8 93 -64 155 -143 123z m85 -46 c13 -16 21 -41 21 -64 0 -97
-101 -124 -130 -35 -30 90 56 167 109 99z"/>
<path d="M6790 15135 c0 -11 12 -15 50 -15 38 0 50 4 50 15 0 11 -12 15 -50
15 -38 0 -50 -4 -50 -15z"/>
<path d="M805 10782 c-99 -34 -174 -117 -195 -215 -8 -36 -10 -220 -8 -592 l3
-540 29 -58 c34 -71 105 -130 180 -152 45 -13 572 -15 4606 -13 l4555 3 57 28
c64 32 111 80 142 146 21 45 21 58 21 616 0 562 0 571 -21 616 -28 60 -93 125
-153 153 l-46 21 -4560 2 c-4304 2 -4563 1 -4610 -15z m3645 -581 c0 -13 -9
-20 -30 -25 -20 -4 -34 -14 -40 -31 -17 -46 -13 -55 26 -55 28 0 35 -3 32 -17
-2 -12 -14 -19 -36 -21 l-32 -3 0 -120 0 -119 -25 0 -25 0 0 120 c0 113 -1
120 -20 120 -13 0 -20 7 -20 20 0 13 7 20 19 20 14 0 20 10 24 42 7 54 43 88
93 88 27 0 34 -4 34 -19z m-230 -16 c18 -21 5 -47 -22 -43 -26 3 -37 36 -16
49 18 12 24 11 38 -6z m821 0 c59 -31 60 -96 1 -144 l-35 -30 34 -39 c44 -51
53 -54 59 -17 4 21 11 31 28 33 19 3 22 -1 22 -30 -1 -18 -7 -44 -14 -58 -13
-22 -12 -27 12 -55 l25 -30 -27 -3 c-15 -2 -33 2 -41 8 -10 9 -26 7 -64 -7
-46 -16 -54 -16 -92 -3 -85 30 -109 113 -49 175 31 32 31 33 16 63 -50 96 31
185 125 137z m534 -9 c27 -18 49 -49 60 -83 6 -20 3 -23 -24 -23 -21 0 -31 5
-31 15 0 29 -47 65 -83 65 -52 0 -84 -31 -97 -95 -24 -115 19 -205 97 -205 36
0 83 36 83 65 0 10 10 15 31 15 27 0 30 -3 24 -22 -21 -68 -67 -102 -141 -102
-64 -1 -99 21 -131 84 -42 82 -25 221 35 273 43 39 128 45 177 13z m953 15
c21 -13 10 -46 -16 -49 -27 -4 -40 22 -22 43 14 17 20 18 38 6z m-3089 -128
c24 -71 48 -139 54 -153 8 -22 16 -6 62 125 51 148 53 150 84 153 l31 3 -19
-48 c-10 -26 -42 -112 -71 -191 -51 -136 -55 -143 -79 -140 -23 3 -31 19 -93
183 -37 99 -68 183 -68 188 0 4 12 7 28 7 26 0 29 -6 71 -127z m2931 67 c0
-38 2 -40 30 -40 23 0 30 -4 30 -20 0 -16 -7 -20 -30 -20 l-30 0 0 -84 c0
-101 5 -116 36 -116 17 0 24 -6 24 -20 0 -30 -45 -37 -78 -13 -26 19 -27 24
-30 127 -3 105 -3 106 -27 106 -18 0 -25 5 -25 20 0 15 7 20 25 20 23 0 25 4
25 40 0 36 3 40 25 40 23 0 25 -4 25 -40z m-2506 -44 c37 -15 66 -66 66 -115
l0 -31 -95 0 c-86 0 -95 -2 -95 -19 0 -10 9 -30 21 -45 24 -31 75 -35 114 -10
25 17 45 12 45 -10 0 -41 -106 -67 -159 -39 -53 28 -73 61 -73 126 -1 68 23
115 72 139 42 22 60 22 104 4z m256 -13 c0 -23 -5 -28 -25 -29 -49 -3 -55 -18
-55 -130 l0 -104 -30 0 -30 0 0 140 0 140 24 0 c13 0 26 -5 28 -12 3 -8 11 -7
28 5 37 26 60 22 60 -10z m1744 13 c92 -38 115 -169 42 -242 -88 -88 -218 -25
-218 106 0 61 26 109 72 132 42 22 60 22 104 4z m312 4 c48 -19 53 -36 54
-162 l0 -118 -25 0 -25 0 0 108 c0 118 -6 132 -54 132 -56 0 -66 -21 -66 -137
l0 -104 -27 3 -28 3 0 135 0 135 28 3 c15 2 27 -1 27 -7 0 -6 13 -4 33 4 39
17 48 18 83 5z m638 -20 c18 -18 21 -35 24 -140 l4 -120 -26 0 -26 0 0 93 c0
54 -6 102 -13 117 -17 34 -68 39 -96 11 -18 -18 -21 -33 -21 -121 l0 -100 -25
0 -25 0 0 140 0 140 25 0 c17 0 25 -6 25 -17 0 -14 2 -15 18 -1 9 9 24 18 32
21 26 11 83 -2 104 -23z m560 16 c37 -15 66 -66 66 -115 l0 -31 -95 0 c-86 0
-95 -2 -95 -19 0 -10 9 -30 21 -45 24 -31 75 -35 115 -10 18 12 28 14 36 6 29
-29 -50 -78 -109 -69 -77 13 -114 59 -114 142 0 68 23 113 71 137 42 22 60 22
104 4z m-3154 -136 l0 -140 -25 0 -25 0 0 140 0 140 25 0 25 0 0 -140z m324
43 c17 -51 33 -93 36 -93 4 0 19 43 35 95 27 92 29 95 57 95 25 0 29 -3 23
-17 -3 -10 -26 -76 -51 -148 -62 -176 -79 -210 -114 -225 -36 -15 -60 -7 -60
20 0 13 7 20 20 20 27 0 60 35 60 63 0 13 -20 79 -45 146 -25 67 -45 127 -45
132 0 6 12 9 27 7 24 -3 30 -12 57 -95z m1996 -43 l0 -140 -30 0 -30 0 0 140
0 140 30 0 30 0 0 -140z m420 36 c0 -114 9 -136 56 -136 59 0 64 11 64 130 l0
110 30 0 30 0 0 -140 0 -140 -25 0 c-14 0 -25 4 -25 9 0 6 -16 3 -37 -5 -47
-20 -96 -11 -123 23 -17 22 -20 40 -20 139 l0 114 25 0 25 0 0 -104z"/>
<path d="M4962 10138 c-16 -16 -15 -50 2 -73 13 -18 15 -18 39 -2 31 20 43 53
27 72 -15 18 -52 19 -68 3z"/>
<path d="M4942 9962 c-27 -27 -29 -73 -4 -95 22 -20 81 -22 105 -4 15 11 12
17 -31 66 l-48 55 -22 -22z"/>
<path d="M3761 10024 c-12 -15 -21 -31 -21 -35 0 -5 32 -9 71 -9 68 0 70 1 63
23 -11 36 -25 47 -59 47 -24 0 -39 -7 -54 -26z"/>
<path d="M5761 10024 c-15 -19 -21 -41 -21 -74 0 -63 28 -100 75 -100 60 0 94
63 73 137 -12 45 -33 63 -73 63 -24 0 -39 -7 -54 -26z"/>
<path d="M7271 10024 c-12 -15 -21 -31 -21 -35 0 -5 32 -9 71 -9 68 0 70 1 63
23 -11 36 -25 47 -59 47 -24 0 -39 -7 -54 -26z"/>
<path d="M1560 8614 c0 -50 -2 -55 -17 -49 -48 21 -72 17 -103 -13 -27 -27
-30 -37 -30 -92 0 -55 3 -65 29 -91 33 -32 65 -37 99 -13 20 14 22 14 22 0 0
-11 10 -16 30 -16 l30 0 0 165 0 165 -30 0 c-30 0 -30 0 -30 -56z m-10 -103
c5 -11 10 -34 10 -51 0 -43 -17 -70 -43 -70 -34 0 -47 19 -47 70 0 25 5 51 12
58 18 18 56 14 68 -7z"/>
<path d="M1674 8655 c-9 -23 3 -45 24 -45 29 0 48 26 32 45 -7 8 -21 15 -32
15 -10 0 -21 -7 -24 -15z"/>
<path d="M2340 8505 l0 -165 30 0 30 0 0 84 c0 91 10 110 52 104 22 -3 23 -8
26 -95 l3 -93 29 0 30 0 0 99 c0 96 -1 100 -26 120 -32 25 -61 27 -92 5 l-22
-15 0 60 0 61 -30 0 -30 0 0 -165z"/>
<path d="M4410 8505 l0 -165 30 0 c20 0 30 5 30 16 0 14 2 14 22 0 34 -24 66
-19 99 13 26 26 29 36 29 91 0 55 -3 65 -30 92 -31 30 -55 34 -102 13 -16 -6
-18 -1 -18 49 0 56 0 56 -30 56 l-30 0 0 -165z m138 13 c16 -16 16 -100 0
-116 -21 -21 -58 -14 -68 14 -21 54 -4 114 33 114 13 0 28 -5 35 -12z"/>
<path d="M1170 8500 l0 -160 105 0 105 0 0 25 c0 24 -2 25 -75 25 l-75 0 0 45
0 45 65 0 c63 0 65 1 65 25 0 24 -2 25 -65 25 l-65 0 0 40 0 40 75 0 c73 0 75
1 75 25 l0 25 -105 0 -105 0 0 -160z"/>
<path d="M2050 8500 l0 -160 35 0 35 0 0 54 0 54 60 4 c96 7 138 64 106 142
-20 48 -63 66 -161 66 l-75 0 0 -160z m164 94 c23 -22 20 -71 -3 -84 -11 -5
-36 -10 -55 -10 l-36 0 0 55 0 55 39 0 c23 0 46 -7 55 -16z"/>
<path d="M3460 8501 l0 -161 30 0 29 0 3 105 3 105 63 -105 c61 -101 64 -105
98 -105 l34 0 0 160 0 160 -35 0 -35 0 0 -107 0 -108 -63 105 c-57 95 -66 105
-95 108 l-32 3 0 -160z"/>
<path d="M5224 8651 c-24 -11 -54 -48 -54 -68 0 -21 54 -15 68 7 25 41 80 11
62 -35 -4 -11 -20 -31 -34 -44 -14 -14 -26 -35 -26 -48 0 -34 40 -31 63 5 9
15 29 43 43 62 28 38 26 71 -5 103 -21 21 -86 31 -117 18z"/>
<path d="M1800 8610 c0 -20 -5 -30 -15 -30 -8 0 -15 -9 -15 -20 0 -11 7 -20
15 -20 12 0 15 -16 15 -80 0 -67 3 -83 21 -101 28 -28 83 -23 87 8 2 16 -3 22
-20 25 -21 3 -23 9 -26 71 -3 62 -1 69 18 74 27 7 27 43 0 43 -16 0 -20 7 -20
30 0 27 -3 30 -30 30 -27 0 -30 -3 -30 -30z"/>
<path d="M1670 8460 l0 -120 30 0 30 0 0 120 0 120 -30 0 -30 0 0 -120z"/>
<path d="M2633 8560 c-43 -26 -61 -84 -44 -140 31 -105 183 -105 211 0 31 114
-70 199 -167 140z m95 -42 c16 -16 16 -100 0 -116 -17 -17 -53 -15 -69 4 -7 9
-14 33 -14 54 0 21 7 45 14 54 16 19 52 21 69 4z"/>
<path d="M2850 8460 l0 -120 30 0 29 0 3 93 c3 87 4 92 26 95 42 6 52 -13 52
-104 l0 -84 30 0 30 0 0 95 c0 88 -2 98 -25 120 -26 27 -54 31 -87 14 -14 -8
-23 -8 -31 0 -6 6 -21 11 -34 11 -23 0 -23 -1 -23 -120z"/>
<path d="M3143 8560 c-64 -39 -67 -157 -6 -198 37 -24 115 -23 142 2 19 17 20
21 7 34 -12 12 -18 13 -30 3 -23 -19 -76 -9 -94 17 l-14 22 81 0 82 0 -7 38
c-16 92 -86 128 -161 82z m95 -57 c3 -21 -1 -23 -37 -23 -27 0 -41 4 -41 13 0
41 72 50 78 10z"/>
<path d="M3770 8485 c0 -88 2 -98 25 -120 26 -27 49 -31 89 -15 17 6 26 6 26
0 0 -6 14 -10 30 -10 l30 0 0 120 0 120 -30 0 -30 0 0 -90 c0 -87 -1 -90 -25
-96 -49 -12 -55 -2 -55 96 l0 90 -30 0 -30 0 0 -95z"/>
<path d="M4020 8460 l0 -120 30 0 30 0 0 78 c0 88 13 116 51 110 23 -3 24 -6
27 -95 l3 -93 29 0 30 0 0 78 c0 88 13 116 51 110 23 -3 24 -6 27 -95 l3 -93
29 0 30 0 0 99 c0 96 -1 100 -26 120 -32 25 -61 27 -92 5 -20 -14 -24 -14 -44
0 -28 20 -55 20 -90 2 -24 -13 -28 -13 -28 0 0 9 -11 14 -30 14 l-30 0 0 -120z"/>
<path d="M4724 8570 c-66 -26 -87 -131 -38 -189 38 -46 109 -54 159 -18 16 13
17 17 6 31 -10 11 -18 13 -31 6 -29 -15 -65 -12 -83 8 -10 10 -17 22 -17 25 0
4 34 7 75 7 l75 0 0 30 c0 81 -71 130 -146 100z m74 -52 c25 -25 13 -38 -33
-38 -49 0 -50 1 -35 31 12 21 50 25 68 7z"/>
<path d="M4910 8460 l0 -120 30 0 30 0 0 78 c0 83 9 102 47 102 19 0 23 5 23
30 0 35 -22 40 -52 13 -17 -15 -18 -15 -18 0 0 12 -9 17 -30 17 l-30 0 0 -120z"/>
<path d="M5234 8385 c-10 -25 22 -53 44 -39 9 6 17 20 17 30 0 25 -52 33 -61
9z"/>
<path d="M0 240 l0 -240 5400 0 5400 0 0 240 0 240 -5400 0 -5400 0 0 -240z
m7169 50 c29 -15 33 -38 11 -60 -20 -20 -40 -20 -1776 -20 -1207 0 -1761 3
-1775 11 -11 5 -17 14 -14 20 4 5 1 9 -5 9 -8 0 -8 6 0 21 7 12 18 18 26 15 9
-3 12 -1 9 4 -8 14 3499 14 3524 0z"/>
</g>
</svg>
