<?xml version="1.0" encoding="UTF-8"?>
<svg version="1.1" xmlns="http://www.w3.org/2000/svg" width="1080" height="1080">
<path d="M0 0 C0.6983515 -0.00282738 1.396703 -0.00565475 2.11621666 -0.00856781 C5.82951588 -0.02345173 9.54277751 -0.03274291 13.25610352 -0.03710938 C16.24679093 -0.04144405 19.23718169 -0.05515406 22.2277832 -0.078125 C119.74455377 -0.81133221 218.008932 27.08198398 360.0703125 120.69140625 C362.84977646 123.09032615 365.68137178 125.40326399 368.54296875 127.703125 C373.64138997 131.84605879 378.45509019 136.24074313 383.25390625 140.72265625 C385.93795624 143.23183006 385.93795624 143.23183006 388.83203125 145.40234375 C389.54101562 145.99660156 390.25 146.59085938 390.98046875 147.203125 C390.98046875 147.863125 390.98046875 148.523125 390.98046875 149.203125 C391.54725342 149.44466309 392.11403809 149.68620117 392.69799805 149.93505859 C395.43375492 151.45495604 397.29263215 153.2730771 399.5 155.4921875 C400.35787109 156.35199219 401.21574219 157.21179688 402.09960938 158.09765625 C402.98841797 158.99871094 403.87722656 159.89976562 404.79296875 160.828125 C405.67017578 161.70597656 406.54738281 162.58382812 407.45117188 163.48828125 C412.49708465 168.56816052 417.33301756 173.75825782 421.98046875 179.203125 C423.04954649 180.42946293 424.11984778 181.65473535 425.19140625 182.87890625 C443.47414956 203.86335049 459.86865719 225.81822365 474.98046875 249.203125 C475.84285156 250.53512939 475.84285156 250.53512939 476.72265625 251.89404297 C498.8550925 286.29413534 517.07837883 323.62340986 530.04394531 362.42138672 C530.92721023 365.04493222 531.83580458 367.65800793 532.75390625 370.26953125 C546.40661102 409.47394602 553.64927069 450.02434959 557.98046875 491.203125 C558.07078369 491.99381882 558.16109863 492.78451263 558.25415039 493.59916687 C559.1358741 502.00815285 559.16288197 510.40338389 559.18359375 518.84765625 C559.18642113 519.63859869 559.1892485 520.42954113 559.19216156 521.24445152 C559.2070843 525.44820856 559.2163517 529.65193204 559.22070312 533.85571289 C559.22504622 537.26174884 559.2387841 540.66752553 559.26171875 544.07348633 C559.40411436 565.67047853 558.74855751 586.75816375 555.98046875 608.203125 C555.87333557 609.05303009 555.76620239 609.90293518 555.65582275 610.77859497 C555.07557123 615.30972456 554.40377694 619.81919707 553.66796875 624.328125 C553.56442078 624.97436829 553.4608728 625.62061157 553.35418701 626.28643799 C544.21231398 683.16977516 525.77182532 736.82355738 499.98046875 788.203125 C499.55668945 789.04794434 499.13291016 789.89276367 498.69628906 790.76318359 C489.68290941 808.57863179 479.37971686 825.81456634 467.98046875 842.203125 C467.50222656 842.89245117 467.02398438 843.58177734 466.53125 844.29199219 C458.15310182 856.3369263 449.58525322 868.18579877 440.22265625 879.4921875 C438.73629193 881.28929001 437.26212168 883.09655308 435.80078125 884.9140625 C430.56221316 891.42032679 425.03986146 897.60713552 419.35253906 903.71777344 C418.05685148 905.12043594 416.7797508 906.54020209 415.50390625 907.9609375 C409.6196515 914.5010225 403.50396289 920.78487731 397.29296875 927.015625 C396.49697266 927.81621338 395.70097656 928.61680176 394.88085938 929.44165039 C390.63101829 933.68045178 386.30208153 937.75816878 381.75170898 941.67260742 C379.39728494 943.70705048 377.13103848 945.8312111 374.85546875 947.953125 C369.00943636 953.28833903 362.83338212 958.12862827 356.57177734 962.96289062 C354.42906921 964.63287487 352.33182285 966.35653369 350.23046875 968.078125 C334.07577509 981.0231012 316.71138406 992.54830892 298.98046875 1003.203125 C298.37074219 1003.57373047 297.76101563 1003.94433594 297.1328125 1004.32617188 C285.52311571 1011.37407871 273.59279834 1017.723041 261.50390625 1023.90771484 C259.45756853 1024.95820517 257.41975776 1026.02179982 255.38671875 1027.09765625 C190.728952 1060.65111854 113.24319688 1080.11351241 40.484375 1080.44140625 C39.70308668 1080.44548178 38.92179836 1080.4495573 38.11683464 1080.45375633 C33.95688026 1080.47451362 29.79695756 1080.48884263 25.63696289 1080.49829102 C22.28553338 1080.50701932 18.9345365 1080.52758817 15.58325195 1080.55981445 C-65.22236121 1081.31882237 -144.17753896 1061.88675753 -217.01953125 1027.203125 C-218.30802979 1026.59283447 -218.30802979 1026.59283447 -219.62255859 1025.97021484 C-255.93550708 1008.66045228 -291.68322401 986.12650099 -322.109375 959.71484375 C-324.88883896 957.31592385 -327.72043428 955.00298601 -330.58203125 952.703125 C-335.61509472 948.60644543 -340.38915274 944.2784743 -345.140625 939.86328125 C-347.61013235 937.58141625 -350.11630624 935.35661639 -352.64453125 933.140625 C-357.66088592 928.63814081 -362.433362 923.89836593 -367.20703125 919.140625 C-367.96773926 918.38450928 -368.72844727 917.62839355 -369.51220703 916.84936523 C-373.66783012 912.68240781 -377.65818646 908.4289409 -381.49829102 903.96948242 C-383.42100925 901.73695692 -385.40663152 899.56512834 -387.39453125 897.390625 C-399.10565454 884.39365202 -409.84368207 870.4255107 -420.01953125 856.203125 C-420.75300781 855.20667969 -421.48648438 854.21023438 -422.2421875 853.18359375 C-435.25547727 835.42621178 -446.49415624 816.51769685 -457.01953125 797.203125 C-457.52726074 796.27419434 -458.03499023 795.34526367 -458.55810547 794.38818359 C-466.90006132 779.0307313 -474.20494358 763.29242376 -481.01953125 747.203125 C-481.48214355 746.1203125 -481.94475586 745.0375 -482.42138672 743.921875 C-494.5756486 715.20381781 -503.64716758 684.72091977 -510.01953125 654.203125 C-510.26896484 653.02008789 -510.51839844 651.83705078 -510.77539062 650.61816406 C-515.12794554 629.63455053 -518.09034994 608.54714428 -520.01953125 587.203125 C-520.10615021 586.26220505 -520.19276917 585.3212851 -520.28201294 584.35185242 C-520.99743716 575.95481413 -521.19552968 567.60861141 -521.22265625 559.18359375 C-521.22548363 558.48524225 -521.228311 557.78689075 -521.23122406 557.06737709 C-521.24610798 553.35407787 -521.25539916 549.64081624 -521.25976562 545.92749023 C-521.2641003 542.93680282 -521.27781031 539.94641206 -521.30078125 536.95581055 C-521.5001498 510.42704752 -520.06219788 484.23144173 -515.70703125 458.015625 C-515.4961084 456.71286621 -515.28518555 455.41010742 -515.06787109 454.06787109 C-507.57222741 408.44077582 -494.57764636 364.52280463 -476.01953125 322.203125 C-475.57867187 321.19056641 -475.1378125 320.17800781 -474.68359375 319.13476562 C-457.80598195 280.54640775 -435.62187491 244.59117637 -410.01953125 211.203125 C-409.56078613 210.60258301 -409.10204102 210.00204102 -408.62939453 209.38330078 C-398.90005654 196.68295861 -388.40718945 184.67566411 -377.53515625 172.9453125 C-374.47523644 169.60980986 -371.51519005 166.19387669 -368.578125 162.75 C-367.01953125 161.203125 -367.01953125 161.203125 -365.01953125 161.203125 C-364.75398437 160.61144531 -364.4884375 160.01976562 -364.21484375 159.41015625 C-361.1277982 153.7102192 -355.29704995 149.52186202 -350.44140625 145.34375 C-347.92373022 143.11844925 -345.47278733 140.83329185 -343.02368164 138.53320312 C-336.56465707 132.47086908 -329.97356559 126.69874381 -323.01953125 121.203125 C-321.9776517 120.36875535 -320.93599442 119.53410808 -319.89453125 118.69921875 C-305.44563956 107.17453282 -290.57146012 96.19516674 -275.01953125 86.203125 C-274.40609863 85.80706055 -273.79266602 85.41099609 -273.16064453 85.00292969 C-201.30138348 38.78245803 -120.30273872 11.24421263 -28.01953125 1.203125 C-26.6159008 1.07319656 -26.6159008 1.07319656 -25.18391418 0.94064331 C-16.7817984 0.22473867 -8.43007338 0.02714285 0 0 Z " fill="#950266" transform="translate(521.01953125,-0.203125)"/>
<path d="M0 0 C189.12895195 -13.28330432 189.12895195 -13.28330432 232.59771228 -10.96395707 C235.13373247 -10.82957189 237.66970018 -10.69561085 240.20610157 -10.5685899 C317.99242953 -6.66592581 368.10263441 16.91875266 421.33257675 73.92605209 C423.91946296 76.66837915 426.5447053 79.36680461 429.18887329 82.05386353 C470.80154789 124.38818964 493.03016153 164.55779893 492.64029121 224.18128395 C492.41629894 244.54751805 490.84368887 264.7052555 489 285 C508.8 265.2 528.6 245.4 549 225 C552.54193248 226.77096624 554.2410153 227.9959554 556.94238281 230.71533203 C557.70286926 231.47596954 558.46335571 232.23660706 559.24688721 233.02029419 C560.05744568 233.84117523 560.86800415 234.66205627 561.703125 235.5078125 C562.95980988 236.76874222 562.95980988 236.76874222 564.24188232 238.05514526 C566.91598431 240.74044001 569.58304724 243.43260655 572.25 246.125 C574.06204062 247.94707155 575.87453518 249.76869177 577.6875 251.58984375 C582.13028036 256.05467252 586.56730165 260.52516283 591 265 C589.58173872 268.43065536 588.02721868 269.98050619 584.96983337 272.04597473 C544.11076516 300.12346382 521.78166116 328.8332337 489 369 C488.67 429.39 488.34 489.78 488 552 C326.96 552 165.92 552 0 552 C0 369.84 0 187.68 0 0 Z " fill="#FEFEFE" transform="translate(296,264)"/>
<path d="M0 0 C2.5123543 2.26793068 4.44893621 4.65967273 6.51171875 7.3359375 C8.29634466 9.64412408 8.29634466 9.64412408 10.44921875 11.2109375 C14.11809023 11.43671421 17.02544646 10.42852699 20.44921875 9.2109375 C25.16406065 7.96800905 29.85447646 7.99126453 34.69921875 7.9609375 C35.50746094 7.9403125 36.31570313 7.9196875 37.1484375 7.8984375 C47.6274638 7.83137173 56.33958811 11.58793835 64.07421875 18.5859375 C65.24984375 19.8853125 65.24984375 19.8853125 66.44921875 21.2109375 C67.17238281 21.94570313 67.17238281 21.94570313 67.91015625 22.6953125 C74.6538886 29.88406272 78.60890219 39.08290961 78.51171875 48.8984375 C78.50269531 50.07792969 78.49367188 51.25742187 78.484375 52.47265625 C78.46697266 53.82810547 78.46697266 53.82810547 78.44921875 55.2109375 C79.39796875 55.2728125 80.34671875 55.3346875 81.32421875 55.3984375 C89.79351902 56.68166481 96.41840639 61.14416844 101.75390625 67.7109375 C107.71641676 76.50357973 108.54088953 85.79550706 107.44921875 96.2109375 C105.2986328 105.86441037 100.42161662 113.60396918 92.2578125 119.203125 C87.47897962 121.86605995 83.36065325 122.50396629 77.94334412 122.48509216 C77.19616515 122.49032884 76.44898618 122.49556552 75.67916542 122.50096089 C73.17985467 122.51594129 70.68074902 122.51666561 68.18139648 122.51733398 C66.38734086 122.52495705 64.59328849 122.5333848 62.79924011 122.54255676 C57.92697871 122.56450031 53.05478008 122.57330104 48.18247485 122.57838321 C45.13517754 122.58202842 42.08789661 122.5882695 39.04060555 122.5953846 C28.39970301 122.61988329 17.75884921 122.63293089 7.11791992 122.63647461 C-2.78353788 122.6401052 -12.68468482 122.66996537 -22.58604771 122.71187919 C-31.09837828 122.74664299 -39.6106062 122.76202414 -48.12300724 122.76272064 C-53.20173385 122.7635117 -58.28014411 122.77217043 -63.35879707 122.80071831 C-68.14174038 122.82700175 -72.92410746 122.82904706 -77.70709038 122.81306267 C-79.45491676 122.81125604 -81.20277705 122.81786726 -82.95053101 122.83388138 C-97.13617986 122.95585093 -107.87155116 120.8073793 -118.4296875 110.51953125 C-124.77393806 103.61446296 -127.12631129 96.19573793 -129.55078125 87.2109375 C-129.74414062 86.52515625 -129.9375 85.839375 -130.13671875 85.1328125 C-132.33564702 74.9264662 -129.27268128 66.42699392 -124.046875 57.69921875 C-116.78656352 47.39482486 -105.3526097 42.16468033 -93.23828125 39.75 C-91.68270049 39.51791739 -90.11712019 39.35333195 -88.55078125 39.2109375 C-88.42703125 38.458125 -88.30328125 37.7053125 -88.17578125 36.9296875 C-85.13566172 21.27307192 -77.82818282 6.37397496 -64.45703125 -2.9453125 C-44.29034245 -15.12519386 -18.77957268 -14.31085684 0 0 Z " fill="#87CEEB" transform="translate(583.55078125,493.7890625)"/>
<path d="M0 0 C3.23617306 1.54047423 5.40632246 3.16236461 7.94238281 5.71533203 C8.70286926 6.47596954 9.46335571 7.23660706 10.24688721 8.02029419 C11.46272491 9.25161575 11.46272491 9.25161575 12.703125 10.5078125 C13.54091492 11.34843231 14.37870483 12.18905212 15.24188232 13.05514526 C17.91598431 15.74044001 20.58304724 18.43260655 23.25 21.125 C25.06204062 22.94707155 26.87453518 24.76869177 28.6875 26.58984375 C33.13028036 31.05467252 37.56730165 35.52516283 42 40 C40.63715975 43.04194357 39.09667952 45.16046214 36.75714588 47.52526283 C35.74833055 48.55207694 35.74833055 48.55207694 34.71913511 49.59963477 C33.97802368 50.34378807 33.23691225 51.08794137 32.4733429 51.85464478 C31.6874858 52.65138308 30.9016287 53.44812138 30.09195775 54.26900327 C27.44807449 56.94671239 24.7969862 59.61716803 22.14575195 62.28759766 C20.73402411 63.71476131 19.3223025 65.14193124 17.91107986 66.56959446 C11.19729215 73.3614938 4.46893551 80.13888368 -2.26171875 86.9140625 C-3.33644724 87.99609768 -4.41117088 89.07813767 -5.48588967 90.16018248 C-15.53005474 100.27207669 -25.57911479 110.37909309 -35.63826275 120.47608376 C-37.96813981 122.81487858 -40.29795192 125.15373808 -42.62768555 127.49267578 C-43.49618008 128.36458886 -43.49618008 128.36458886 -44.38221995 129.25411634 C-53.73160688 138.64175516 -63.05482173 148.05494861 -72.36761668 157.47887404 C-81.9495378 167.17417922 -91.55630398 176.84432335 -101.18684608 186.49133718 C-106.58503397 191.90004071 -111.97201068 197.31892919 -117.33093834 202.7665596 C-121.90206323 207.41326868 -126.49544291 212.03652118 -131.11777379 216.63231809 C-133.4689067 218.97130245 -135.80427585 221.32148252 -138.11960983 223.69619751 C-149.84865439 235.70958119 -160.71654608 243.36950689 -176.55961668 249.09602809 C-179.98949004 250.36652898 -183.28491607 251.85894773 -186.609375 253.3828125 C-187.64964844 253.846875 -188.68992187 254.3109375 -189.76171875 254.7890625 C-191.83357517 255.71530419 -193.90377844 256.64524919 -195.97265625 257.578125 C-196.98714844 258.02929688 -198.00164063 258.48046875 -199.046875 258.9453125 C-199.93213867 259.34250488 -200.81740234 259.73969727 -201.72949219 260.14892578 C-204 261 -204 261 -207 261 C-207 261.66 -207 262.32 -207 263 C-207.59425781 263.23074219 -208.18851563 263.46148438 -208.80078125 263.69921875 C-214.54755868 265.96039245 -220.16416357 268.41264532 -225.75 271.046875 C-228 272 -228 272 -230 272 C-228.0832629 265.89014793 -225.82282455 260.06877629 -223.15625 254.25 C-222.78705444 253.43418457 -222.41785889 252.61836914 -222.03747559 251.77783203 C-220.8624863 249.18330565 -219.68158848 246.59152671 -218.5 244 C-217.37679313 241.52836988 -216.25478342 239.05622132 -215.13586873 236.582645 C-214.35244908 234.85753929 -213.56391202 233.13474186 -212.76863652 231.41506952 C-210.61714626 226.72918316 -208.60441994 222.03800311 -206.79751873 217.20800877 C-200.3387864 200.43840289 -191.35388274 189.40070047 -178.57543945 176.98608398 C-176.61613812 175.03860924 -174.66755987 173.08052641 -172.71842957 171.12287903 C-168.55753655 166.95472792 -164.37227813 162.81250533 -160.16817665 158.68795586 C-154.09031712 152.72502884 -148.05258093 146.72271599 -142.02320518 140.71081627 C-132.23454491 130.95261904 -122.41519137 121.22594398 -112.57543945 111.51928711 C-103.03050543 102.10332511 -93.50073704 92.67242451 -83.99047852 83.22143555 C-83.40194335 82.63657851 -82.81340818 82.05172147 -82.20703862 81.44914149 C-79.25392781 78.51430433 -76.30110745 75.57917514 -73.34843123 72.64390075 C-48.94378849 48.38383694 -24.4888821 24.17502082 0 0 Z " fill="#FECA28" transform="translate(845,489)"/>
<path d="M0 0 C0.6909375 0.56847656 1.381875 1.13695312 2.09375 1.72265625 C2.7021875 2.21894531 3.310625 2.71523438 3.9375 3.2265625 C14.59591033 12.89180277 23.21613987 28.61022262 24.05078125 42.95703125 C24.06496094 43.5396875 24.07914063 44.12234375 24.09375 44.72265625 C23.33191406 44.76003906 22.57007813 44.79742187 21.78515625 44.8359375 C15.10696999 45.26114037 9.31056834 46.22650949 3.09375 48.72265625 C2.41570312 47.99820313 1.73765625 47.27375 1.0390625 46.52734375 C-9.96272036 35.0034694 -22.08200779 27.48045238 -38.34375 26.51953125 C-56.73158353 26.27758607 -73.81474906 30.39259292 -87.90625 42.72265625 C-96.00196147 50.91813881 -102.02282628 61.60308122 -104.28125 72.91015625 C-105.37952629 77.36824819 -105.37952629 77.36824819 -107.58984375 78.85546875 C-109.71875 79.53515625 -109.71875 79.53515625 -112.11328125 80.0703125 C-126.40769112 83.40900683 -136.25183406 90.50328438 -143.98950195 102.57226562 C-150.29710921 112.88568602 -151.86272003 126.46097473 -149.08203125 138.203125 C-148.09112543 141.40422968 -147.00918106 144.55877371 -145.90625 147.72265625 C-145.23254124 150.05396605 -144.56503603 152.38708569 -143.90625 154.72265625 C-148.72593303 154.82230775 -153.54500277 154.89448936 -158.36547852 154.94238281 C-160.00165264 154.96236957 -161.63775651 154.98956868 -163.27368164 155.02441406 C-180.55546279 155.38302289 -180.55546279 155.38302289 -187.90625 150.72265625 C-188.76476562 150.2534375 -189.62328125 149.78421875 -190.5078125 149.30078125 C-201.71336091 141.94578808 -207.42044157 132.74277231 -210.36328125 119.80078125 C-212.42551317 108.109855 -209.76982445 98.25107635 -203.1796875 88.42578125 C-201.28726649 85.89481328 -199.27599852 83.81685261 -196.90625 81.72265625 C-196.09607422 80.98208984 -196.09607422 80.98208984 -195.26953125 80.2265625 C-189.54256487 75.41206875 -181.51392497 71.72265625 -173.90625 71.72265625 C-173.92945313 71.11679687 -173.95265625 70.5109375 -173.9765625 69.88671875 C-174.30463945 54.65457477 -169.78947194 40.41441377 -159.46875 29.03515625 C-158.623125 28.27203125 -157.7775 27.50890625 -156.90625 26.72265625 C-156.40609375 26.24183594 -155.9059375 25.76101563 -155.390625 25.265625 C-146.31356629 16.88843296 -135.48994408 13.32247031 -123.28125 13.28515625 C-121.96761475 13.27935547 -121.96761475 13.27935547 -120.62744141 13.2734375 C-112.79291993 13.4115668 -106.99990359 15.4012131 -99.90625 18.72265625 C-99.24625 18.72265625 -98.58625 18.72265625 -97.90625 18.72265625 C-96.63703387 17.10187322 -95.44122379 15.42333495 -94.28125 13.72265625 C-84.32024673 -0.22632499 -70.29308623 -10.27174813 -53.28515625 -14 C-33.97527872 -16.25123367 -15.56906613 -11.80654181 0 0 Z " fill="#87CEEB" transform="translate(593.90625,447.27734375)"/>
<path d="M0 0 C4.79368933 4.00033673 9.32083162 8.1769834 13.72618103 12.59919739 C14.36511262 13.23656899 15.00404421 13.87394059 15.66233736 14.53062648 C17.784996 16.64932266 19.90409351 18.77154364 22.02319336 20.89379883 C23.55109318 22.42034258 25.07920543 23.94667374 26.60751343 25.47280884 C30.74360358 29.60435146 34.87653815 33.73903714 39.00876689 37.87444139 C43.33276131 42.20097049 47.65919827 46.52505599 51.98524475 50.84953308 C59.24236978 58.10484083 66.49738785 65.36225045 73.7512207 72.62084961 C82.14904002 81.024123 90.5504724 89.42377121 98.95376676 97.82156926 C106.16587744 105.02915089 113.37604878 112.2386682 120.5845843 119.44982547 C124.89154955 123.75835307 129.19919558 128.06619419 133.50858879 132.37229347 C137.55325917 136.41408775 141.59549953 140.45829631 145.63582993 144.50442886 C147.12335143 145.99327886 148.61173608 147.48126702 150.10101891 148.96835518 C152.12389043 150.98851896 154.1436961 153.01169721 156.16270447 155.03572083 C156.76102662 155.63181225 157.35934876 156.22790368 157.97580189 156.84205848 C162 160.8858494 162 160.8858494 162 162 C148.86243627 162.26452898 135.724807 162.52551604 122.58708954 162.78230286 C116.48299278 162.9017166 110.37892242 163.02223195 104.27490234 163.14550781 C90.52071333 163.42263929 76.76644797 163.67969464 63.01123047 163.90039062 C59.22229396 163.96149158 55.43365069 164.02970636 51.64501953 164.10742188 C47.81970458 164.18541518 43.99466238 164.24487694 40.16877747 164.28610229 C38.24359931 164.31135427 36.31871295 164.3564993 34.3939209 164.40258789 C24.13746803 164.4719203 17.18991923 161.78897678 9.71875 154.77734375 C1.10582964 145.87080111 0.5540199 135.09419582 0.56762695 123.28857422 C0.55859144 121.93735366 0.54825989 120.58614126 0.53674316 119.23493958 C0.50935662 115.59719583 0.49991388 111.95960836 0.49388909 108.32177496 C0.4844572 104.50873564 0.45825023 100.69581088 0.43388367 96.88284302 C0.39034665 89.67604962 0.36172135 82.46927862 0.33856028 75.26239407 C0.31143966 67.05185294 0.26753262 58.8414278 0.22227156 50.63096976 C0.12960878 33.75403972 0.05784433 16.87708458 0 0 Z " fill="#960A67" transform="translate(608,277)"/>
<path d="M0 0 C2.6715857 1.1078164 4.21977375 2.76512496 6.23885375 4.82747096 C7.43768188 6.04080104 7.43768188 6.04080104 8.66072875 7.27864283 C9.48572875 8.12877955 10.31072875 8.97891627 11.16072875 9.85481471 C12.0011975 10.70881861 12.84166625 11.56282252 13.70760375 12.44270533 C15.78220473 14.55266882 17.84948707 16.66931179 19.91072875 18.79231471 C18.54211453 21.85750906 16.98935053 23.96283109 14.61924583 26.32989329 C13.93600159 27.01711962 13.25275736 27.70434595 12.54880875 28.41239733 C11.79589952 29.15948088 11.04299028 29.90656443 10.26726562 30.67628688 C9.46926406 31.47599729 8.6712625 32.2757077 7.84907907 33.09965175 C5.16521672 35.78681685 2.47425264 38.46675618 -0.21671265 41.1468069 C-2.13915177 43.06756927 -4.06008093 44.98983915 -5.98107117 46.91205043 C-10.1220957 51.05412391 -14.26676787 55.19251825 -18.41393632 59.32843989 C-24.41004696 65.30830011 -30.40063083 71.29367187 -36.3898779 77.28040549 C-46.1070571 86.99320687 -55.82869473 96.70153304 -65.55313843 106.4070608 C-74.99981628 115.8353821 -84.44439238 125.26580059 -93.88614625 134.69905299 C-94.46808494 135.28046623 -95.05002363 135.86187948 -95.64959683 136.4609113 C-98.56898383 139.37768825 -101.48832954 142.29450653 -104.4076547 145.21134537 C-128.62845933 169.41141479 -152.85650034 193.60422789 -177.08927125 217.79231471 C-182.29625631 215.31198198 -185.83728545 211.45164356 -189.90177125 207.41731471 C-191.10349976 206.26489283 -191.10349976 206.26489283 -192.32950562 205.08918971 C-193.08167359 204.34411158 -193.83384156 203.59903346 -194.6088025 202.83137721 C-195.64677979 201.8135818 -195.64677979 201.8135818 -196.70572633 200.77522486 C-198.08927125 198.79231471 -198.08927125 198.79231471 -197.87307167 196.88965607 C-196.94183485 194.39779534 -195.80846758 193.13339967 -193.9320094 191.25194281 C-193.25322301 190.56409978 -192.57443662 189.87625675 -191.87508094 189.16756999 C-191.12198735 188.41980432 -190.36889375 187.67203865 -189.59297913 186.90161341 C-188.79865426 186.10119744 -188.00432939 185.30078146 -187.18593407 184.47611046 C-184.51070884 181.78417776 -181.82481523 179.10314866 -179.13883179 176.42195338 C-177.2225834 174.50000846 -175.30855917 172.57585374 -173.39438599 170.6518423 C-168.72674939 165.96313383 -164.05086886 161.28273124 -159.37179496 156.60543915 C-155.57043767 152.80538828 -151.77164169 149.00279547 -147.97465676 145.19837588 C-146.88191788 144.10353787 -145.78917823 143.00870063 -144.69643784 141.91386414 C-144.15260158 141.36898436 -143.60876533 140.82410458 -143.0484492 140.26271329 C-132.75933745 129.95469302 -122.46025995 119.65667412 -112.15828178 109.3615152 C-102.72520767 99.93402041 -93.30541344 90.49338142 -83.89169236 81.04656532 C-74.23271604 71.35389478 -64.56453349 61.67049555 -54.88638115 51.99697113 C-49.45006635 46.56290491 -44.01759062 41.12512513 -38.59483117 35.67752856 C-33.97960325 31.0413429 -29.35584478 26.41388215 -24.72065427 21.79765125 C-22.35428796 19.44047615 -19.99368642 17.07819768 -17.64084023 14.70748156 C-15.09405845 12.14268902 -12.5325447 9.59361029 -9.96651429 7.04809779 C-9.22011286 6.28917851 -8.47371143 5.53025923 -7.70469177 4.74834239 C-7.01808214 4.0735381 -6.3314725 3.39873381 -5.62405652 2.7034809 C-5.03375376 2.11290575 -4.443451 1.52233061 -3.83526027 0.91385925 C-2.08927125 -0.20768529 -2.08927125 -0.20768529 0 0 Z " fill="#F6AC2A" transform="translate(867.0892712473869,510.2076852917671)"/>
<path d="M0 0 C13.54023263 4.35965732 24.27392533 14.57902586 31 27 C33.14350516 31.77417058 34.0807575 35.81587866 33 41 C31.17814923 44.16670789 28.61964685 46.47905256 26 49 C24.80351338 50.20196724 23.609733 51.40663157 22.41796875 52.61328125 C18.96755877 56.09839741 15.48950765 59.5540507 12 63 C5.93492855 57.98433465 0.41096515 52.52661695 -5.125 46.9375 C-6.00542969 46.05255859 -6.88585937 45.16761719 -7.79296875 44.25585938 C-9.47830187 42.56162932 -11.16267919 40.86644777 -12.84594727 39.17016602 C-15.22444106 36.77388002 -17.6104886 34.3852971 -20 32 C-23.33333333 28.66666667 -26.66666667 25.33333333 -30 22 C-25.68355637 16.90115953 -21.29145178 11.90401379 -16.6875 7.0625 C-16.07455078 6.37865234 -15.46160156 5.69480469 -14.83007812 4.99023438 C-10.14767482 0.12306333 -6.70615095 -1.29852646 0 0 Z " fill="#ED5250" transform="translate(899,444)"/>
<path d="M0 0 C5.39190397 4.4978935 10.39391684 9.26126542 15.33984375 14.2421875 C16.10680069 15.01055939 16.87375763 15.77893127 17.66395569 16.57058716 C20.0908474 19.00303509 22.51422127 21.43895322 24.9375 23.875 C26.59156486 25.53408552 28.24585945 27.19294202 29.90039062 28.8515625 C33.93625433 32.89839709 37.96924277 36.94807953 42 41 C39.64984212 42.56677192 37.61269568 43.70459336 35.06689453 44.84765625 C33.89019699 45.37830688 33.89019699 45.37830688 32.68972778 45.91967773 C31.84594574 46.29680908 31.0021637 46.67394043 30.1328125 47.0625 C29.26107391 47.45445557 28.38933533 47.84641113 27.49118042 48.25024414 C25.64752203 49.07858042 23.80327843 49.90561521 21.95849609 50.73144531 C19.14160332 51.9925667 16.32651367 53.25764171 13.51171875 54.5234375 C11.71885477 55.32835841 9.92588933 56.13305336 8.1328125 56.9375 C7.29307892 57.31463135 6.45334534 57.6917627 5.58816528 58.08032227 C-5.40870375 63 -5.40870375 63 -9 63 C-9 63.66 -9 64.32 -9 65 C-9.89138672 65.34611328 -9.89138672 65.34611328 -10.80078125 65.69921875 C-16.54755868 67.96039245 -22.16416357 70.41264532 -27.75 73.046875 C-30 74 -30 74 -32 74 C-30.08326651 67.89015944 -27.82293271 62.06872873 -25.15625 56.25 C-24.79022675 55.44143555 -24.42420349 54.63287109 -24.04708862 53.79980469 C-22.86858105 51.19810139 -21.68424437 48.59909624 -20.5 46 C-18.87564325 42.41755369 -17.25433929 38.83372794 -15.6328125 35.25 C-15.23389801 34.36948975 -14.83498352 33.48897949 -14.42398071 32.58178711 C-11.02580797 25.07553769 -7.6832754 17.54629805 -4.375 10 C-3.92060547 8.96359375 -3.46621094 7.9271875 -2.99804688 6.859375 C-1.99720592 4.57356281 -0.99808771 2.2870149 0 0 Z " fill="#FED3B3" transform="translate(647,687)"/>
<path d="M0 0 C3.49929198 1.64443342 5.73398393 3.52464547 8.4375 6.3125 C9.17871094 7.07175781 9.91992188 7.83101563 10.68359375 8.61328125 C11.44800781 9.40089844 12.21242188 10.18851562 13 11 C14.66506556 12.66826624 16.33198338 14.33468438 18 16 C26 24 34 32 42 40 C40.4608199 43.66752005 38.24514548 45.98580573 35.4296875 48.765625 C34.53378906 49.65507813 33.63789062 50.54453125 32.71484375 51.4609375 C31.77769531 52.38132812 30.84054687 53.30171875 29.875 54.25 C28.92011363 55.19484856 27.96568141 56.14015633 27.01171875 57.0859375 C24.67890913 59.39518338 22.34155914 61.69963203 20 64 C14.60809603 59.5021065 9.60608316 54.73873458 4.66015625 49.7578125 C3.89319931 48.98944061 3.12624237 48.22106873 2.33604431 47.42941284 C-0.0908474 44.99696491 -2.51422127 42.56104678 -4.9375 40.125 C-6.59156486 38.46591448 -8.24585945 36.80705798 -9.90039062 35.1484375 C-13.93625433 31.10160291 -17.96924277 27.05192047 -22 23 C-18.7498913 19.1511826 -15.49349707 15.36650119 -11.9140625 11.81640625 C-11.21152344 11.11708984 -10.50898437 10.41777344 -9.78515625 9.69726562 C-9.07230469 8.99279297 -8.35945312 8.28832031 -7.625 7.5625 C-6.88894531 6.83095703 -6.15289063 6.09941406 -5.39453125 5.34570312 C-3.59863926 3.56147277 -1.80044015 1.77963876 0 0 Z " fill="#9D9D9D" transform="translate(868,466)"/>
<path d="M0 0 C3.63061667 1.53218685 5.9863773 3.7183144 8.75 6.5 C9.54921875 7.2940625 10.3484375 8.088125 11.171875 8.90625 C13 11 13 11 13 13 C9.71106997 14.50605402 6.41842554 16.00380532 3.125 17.5 C2.18785156 17.92925781 1.25070312 18.35851562 0.28515625 18.80078125 C-1.05869141 19.40986328 -1.05869141 19.40986328 -2.4296875 20.03125 C-3.25710449 20.40830078 -4.08452148 20.78535156 -4.93701172 21.17382812 C-7 22 -7 22 -9 22 C-6.66062389 14.33204498 -3.45231194 7.22862726 0 0 Z " fill="#363737" transform="translate(624,739)"/>
</svg>
